<svg width="28" height="28" viewBox="0 0 28 28" fill="none" xmlns="http://www.w3.org/2000/svg">
<path d="M6.18743 13.7143L3.10857 16.7943L0 13.7143L3.10743 10.6069L6.18743 13.7143ZM13.7143 6.18743L19.0171 11.4903L22.1257 8.384L13.7143 0L5.30286 8.41143L8.41143 11.5177L13.7143 6.18743ZM24.3211 10.6069L21.2411 13.7143L24.3486 16.8217L27.4549 13.7143L24.3211 10.6069ZM13.7143 21.2411L8.41143 15.9109L5.30286 19.0183L13.7143 27.4286L22.1257 19.0171L19.0171 15.9109L13.7143 21.2411ZM13.7143 16.7954L16.8217 13.6869L13.7143 10.608L10.6069 13.7143L13.7143 16.7943V16.7954Z" fill="#F0B90B"/>
</svg>
