<svg width="28" height="28" viewBox="0 0 28 28" fill="none" xmlns="http://www.w3.org/2000/svg">
<g clip-path="url(#clip0_40000061_496)">
<path d="M13.7143 6.32967C12.2538 6.32967 10.826 6.76277 9.61162 7.5742C8.39722 8.38563 7.45072 9.53895 6.89179 10.8883C6.33287 12.2377 6.18663 13.7225 6.47157 15.155C6.7565 16.5874 7.45982 17.9032 8.49258 18.936C9.52534 19.9688 10.8411 20.6721 12.2736 20.957C13.7061 21.2419 15.1909 21.0957 16.5403 20.5368C17.8896 19.9779 19.0429 19.0313 19.8544 17.817C20.6658 16.6026 21.0989 15.1748 21.0989 13.7143H27.4286C27.4286 16.4267 26.6242 19.0782 25.1173 21.3335C23.6104 23.5888 21.4685 25.3466 18.9625 26.3846C16.4566 27.4226 13.6991 27.6942 11.0388 27.165C8.37846 26.6359 5.9348 25.3297 4.01683 23.4117C2.09885 21.4938 0.792691 19.0501 0.263522 16.3898C-0.265646 13.7295 0.00594212 10.972 1.04394 8.46605C2.08195 5.9601 3.83974 3.81822 6.09504 2.31128C8.35034 0.80433 11.0019 0 13.7143 0V6.32967Z" fill="#0068FF"/>
<path d="M21.0992 13.714H13.7146V6.32935H21.0992V13.714Z" fill="#17E29D"/>
</g>
<defs>
<clipPath id="clip0_40000061_496">
<rect width="27.4286" height="27.4286" fill="white"/>
</clipPath>
</defs>
</svg>
