<svg width="28" height="28" viewBox="0 0 28 28" fill="none" xmlns="http://www.w3.org/2000/svg">
<path d="M13.7401 20.5714C9.94447 20.5714 6.87005 17.5027 6.87005 13.7143C6.87005 9.92592 9.94366 6.85714 13.7401 6.85714C15.3611 6.85743 16.9296 7.43127 18.1681 8.47707C19.4066 9.52286 20.2351 10.9732 20.5069 12.5712H27.4286C26.8445 5.5317 20.9425 0 13.7401 0C6.15449 0 0 6.14319 0 13.7143C0 21.2854 6.15449 27.4286 13.7401 27.4286C20.9417 27.4286 26.8445 21.8969 27.4286 14.8574H20.5069C20.2351 16.4554 19.4066 17.9057 18.1681 18.9515C16.9296 19.9973 15.3611 20.5711 13.7401 20.5714Z" fill="#0052FF"/>
</svg>
