<svg width="25" height="23" viewBox="0 0 25 23" fill="none" xmlns="http://www.w3.org/2000/svg">
<g clip-path="url(#clip0_40000061_466)">
<path d="M24.435 13.624L15.4535 0.0365566C15.4089 -0.0293029 15.3067 -0.00218429 15.3028 0.0772346C15.2815 0.421641 14.9913 2.25757 12.9222 2.25757C11.2433 2.25757 10.4679 1.95578 8.73891 1.95578C8.14133 1.95578 7.42947 2.29438 7.0562 2.86116L6.35034 3.92905L13.1077 14.1479H15.7514C16.5309 14.1479 17.258 14.5388 17.6873 15.1889L19.3003 17.6323H24.7966V14.8234C24.7966 14.3978 24.6709 13.9798 24.435 13.624ZM17.0645 7.8045C15.9798 7.36537 15.1345 5.4384 15.1345 5.4384C17.3276 5.4384 18.8052 8.05205 18.8052 8.05205C18.8052 8.05205 18.1514 8.24363 17.0665 7.8045H17.0645Z" fill="url(#paint0_linear_40000061_466)"/>
<path d="M16.3063 22.856H6.38122C6.03021 22.8564 5.68461 22.7696 5.37541 22.6035C5.0662 22.4373 4.80307 22.197 4.60959 21.9042L0.385865 15.5141C0.1342 15.134 0 14.6882 0 14.2323C0 13.7764 0.1342 13.3307 0.385865 12.9506L5.08533 5.84839H5.08727L16.3063 22.858V22.856Z" fill="url(#paint1_linear_40000061_466)"/>
</g>
<defs>
<linearGradient id="paint0_linear_40000061_466" x1="15.5734" y1="17.6325" x2="15.5734" y2="-5.3175e-05" gradientUnits="userSpaceOnUse">
<stop stop-color="#FCB124"/>
<stop offset="1" stop-color="#F63E58"/>
</linearGradient>
<linearGradient id="paint1_linear_40000061_466" x1="8.15458" y1="22.858" x2="8.15458" y2="5.84451" gradientUnits="userSpaceOnUse">
<stop stop-color="#FCB124"/>
<stop offset="1" stop-color="#F63E58"/>
</linearGradient>
<clipPath id="clip0_40000061_466">
<rect width="24.9879" height="22.8571" fill="white"/>
</clipPath>
</defs>
</svg>
