<svg width="24" height="24" viewBox="0 0 24 24" fill="none" xmlns="http://www.w3.org/2000/svg">
<g clip-path="url(#clip0_40000563_1393)">
<path d="M24 12C24 5.37258 18.6274 0 12 0C5.37258 0 0 5.37258 0 12C0 18.6274 5.37258 24 12 24C18.6274 24 24 18.6274 24 12Z" fill="#0A0A0A"/>
<path d="M19.5737 12.7767L13.9313 4.24306C13.9037 4.20162 13.8397 4.21907 13.8368 4.2685C13.8237 4.48443 13.6413 5.63748 12.3414 5.63748C11.2864 5.63748 10.8001 5.44773 9.71323 5.44773C9.33734 5.44773 8.89024 5.66073 8.6554 6.01698L8.21191 6.68799L12.457 13.1068H14.1175C14.6074 13.1068 15.0648 13.3525 15.3345 13.7611L16.3487 15.2951H19.802V13.5314C19.802 13.2639 19.7227 13.0014 19.5744 12.7775L19.5737 12.7767ZM14.9434 9.12132C14.2614 8.84504 13.7299 7.63604 13.7299 7.63604C15.1069 7.63604 16.0361 9.2769 16.0361 9.2769C16.0361 9.2769 15.6253 9.3976 14.9434 9.12132Z" fill="url(#paint0_linear_40000563_1393)"/>
<path d="M14.4684 18.5753H8.23286C7.78501 18.5761 7.36698 18.3514 7.11981 17.9777L4.46475 13.9624C4.14196 13.4746 4.14196 12.8406 4.46475 12.3528L7.41789 7.89183L7.41934 7.89038L14.4677 18.5746L14.4684 18.5753Z" fill="url(#paint1_linear_40000563_1393)"/>
</g>
<defs>
<linearGradient id="paint0_linear_40000563_1393" x1="14.0069" y1="15.2951" x2="14.0069" y2="4.21985" gradientUnits="userSpaceOnUse">
<stop stop-color="#FCB124"/>
<stop offset="1" stop-color="#F63E58"/>
</linearGradient>
<linearGradient id="paint1_linear_40000563_1393" x1="9.34557" y1="18.5753" x2="9.34557" y2="7.89038" gradientUnits="userSpaceOnUse">
<stop stop-color="#FCB124"/>
<stop offset="1" stop-color="#F63E58"/>
</linearGradient>
<clipPath id="clip0_40000563_1393">
<rect width="24" height="24" fill="white"/>
</clipPath>
</defs>
</svg>
