<svg width="20" height="20" viewBox="0 0 20 20" fill="none" xmlns="http://www.w3.org/2000/svg">
<path d="M5.02659 10.9274C4.75159 10.8658 4.46492 10.8344 4.16659 10.8333C3.36551 10.833 2.58314 11.0753 1.92242 11.5283C1.38825 11.9008 0.833252 12.5208 0.833252 13.2749C0.83317 13.4718 0.874617 13.6665 0.954886 13.8463C1.03515 14.0261 1.15244 14.1869 1.29909 14.3183C1.55492 14.5524 1.86992 14.6899 2.15742 14.7766C2.54992 14.8949 3.01159 14.9558 3.49159 14.9824C3.38992 14.6949 3.33325 14.3824 3.33325 14.0474C3.33325 12.7683 4.13325 11.6816 5.02659 10.9274Z" fill="#3DEB4F"/>
<path d="M6.05639 6.44345C5.66569 6.05275 5.13579 5.83325 4.58325 5.83325C4.03072 5.83325 3.50081 6.05275 3.11011 6.44345C2.71941 6.83415 2.49992 7.36405 2.49992 7.91658C2.49992 8.46912 2.71941 8.99902 3.11011 9.38972C3.50081 9.78042 4.03072 9.99992 4.58325 9.99992C5.13579 9.99992 5.66569 9.78042 6.05639 9.38972C6.44709 8.99902 6.66658 8.46912 6.66658 7.91658C6.66658 7.36405 6.44709 6.83415 6.05639 6.44345Z" fill="#3DEB4F"/>
<path d="M15.8333 10.8333C16.7033 10.8333 17.4933 11.1208 18.0774 11.5274C18.6108 11.8999 19.1666 12.5191 19.1666 13.2741C19.1666 13.7049 18.9791 14.0624 18.6999 14.3183C18.4449 14.5524 18.1299 14.6899 17.8424 14.7766C17.4508 14.8949 16.9883 14.9558 16.5083 14.9824C16.6099 14.6949 16.6666 14.3824 16.6666 14.0474C16.6666 12.7683 15.8674 11.6816 14.9733 10.9274C15.2557 10.865 15.544 10.8335 15.8333 10.8333ZM15.4166 5.83325C15.9691 5.83325 16.499 6.05275 16.8897 6.44345C17.2804 6.83415 17.4999 7.36405 17.4999 7.91658C17.4999 8.46912 17.2804 8.99902 16.8897 9.38972C16.499 9.78042 15.9691 9.99992 15.4166 9.99992C14.8641 9.99992 14.3341 9.78042 13.9434 9.38972C13.5527 8.99902 13.3333 8.46912 13.3333 7.91658C13.3333 7.36405 13.5527 6.83415 13.9434 6.44345C14.3341 6.05275 14.8641 5.83325 15.4166 5.83325Z" fill="#3DEB4F"/>
<path d="M10.0001 10C11.5609 10 12.9751 10.5167 14.0126 11.2392C14.9984 11.9267 15.8334 12.9483 15.8334 14.0475C15.8334 14.6508 15.5759 15.1508 15.1701 15.5225C14.7884 15.8733 14.2901 16.1008 13.7767 16.2558C12.7509 16.5667 11.4001 16.6667 10.0001 16.6667C8.60008 16.6667 7.24925 16.5667 6.22341 16.2558C5.71008 16.1008 5.21175 15.8733 4.82925 15.5225C4.42508 15.1517 4.16675 14.6517 4.16675 14.0483C4.16675 12.9492 5.00175 11.9275 5.98758 11.24C7.02508 10.5167 8.43925 10 10.0001 10ZM10.0001 2.5C10.8841 2.5 11.732 2.85119 12.3571 3.47631C12.9822 4.10143 13.3334 4.94928 13.3334 5.83333C13.3334 6.71739 12.9822 7.56523 12.3571 8.19036C11.732 8.81548 10.8841 9.16667 10.0001 9.16667C9.11603 9.16667 8.26818 8.81548 7.64306 8.19036C7.01794 7.56523 6.66675 6.71739 6.66675 5.83333C6.66675 4.94928 7.01794 4.10143 7.64306 3.47631C8.26818 2.85119 9.11603 2.5 10.0001 2.5Z" fill="white"/>
</svg>
