<svg width="36" height="36" viewBox="0 0 36 36" fill="none" xmlns="http://www.w3.org/2000/svg">
<path d="M10 0.5H26C31.2467 0.5 35.5 4.7533 35.5 10V26C35.5 31.2467 31.2467 35.5 26 35.5H10C4.7533 35.5 0.5 31.2467 0.5 26V10C0.5 4.7533 4.7533 0.5 10 0.5Z" stroke="white" stroke-opacity="0.07"/>
<path d="M11.0301 17.411C10.8739 17.5673 10.7861 17.7792 10.7861 18.0002C10.7861 18.2211 10.8739 18.433 11.0301 18.5893L15.7443 23.3035C15.9015 23.4553 16.112 23.5393 16.3305 23.5374C16.549 23.5355 16.758 23.4478 16.9125 23.2933C17.067 23.1388 17.1546 22.9298 17.1565 22.7113C17.1584 22.4928 17.0744 22.2823 16.9226 22.1252L13.631 18.8335H24.6668C24.8878 18.8335 25.0998 18.7457 25.256 18.5894C25.4123 18.4331 25.5001 18.2212 25.5001 18.0002C25.5001 17.7791 25.4123 17.5672 25.256 17.4109C25.0998 17.2546 24.8878 17.1668 24.6668 17.1668H13.631L16.9226 13.8752C17.0744 13.718 17.1584 13.5075 17.1565 13.289C17.1546 13.0705 17.067 12.8615 16.9125 12.707C16.758 12.5525 16.549 12.4648 16.3305 12.4629C16.112 12.461 15.9015 12.545 15.7443 12.6968L11.0301 17.411Z" fill="white" fill-opacity="0.5"/>
</svg>
