<svg width="27" height="27" viewBox="0 0 27 27" fill="none" xmlns="http://www.w3.org/2000/svg">
<g clip-path="url(#clip0_40000061_474)">
<path fill-rule="evenodd" clip-rule="evenodd" d="M13.0174 26.2338C9.12197 26.2309 5.98415 25.3056 3.79173 23.6437C1.57301 21.9618 0.395996 19.5749 0.395996 16.8741C0.395996 14.2718 1.57044 12.3954 2.89931 11.127C3.94072 10.133 5.08995 9.49635 5.89017 9.13016C5.70921 8.58042 5.48344 7.86072 5.28145 7.11738C5.01117 6.12268 4.74602 4.95564 4.74602 4.10043C4.74602 3.08817 4.96897 2.07159 5.57011 1.28167C6.20523 0.44709 7.16136 0 8.31161 0C9.21059 0 9.97381 0.330094 10.5713 0.899541C11.1425 1.44385 11.5226 2.16671 11.7851 2.92025C12.2463 4.24435 12.4258 5.90787 12.4762 7.56797H13.578C13.6284 5.90787 13.8079 4.24435 14.2692 2.92025C14.5316 2.16671 14.9118 1.44385 15.4829 0.899541C16.0804 0.330094 16.8436 0 17.7426 0C18.8928 0 19.849 0.44709 20.4841 1.28167C21.0852 2.07159 21.3082 3.08817 21.3082 4.10043C21.3082 4.95564 21.0431 6.12268 20.7727 7.11738C20.5707 7.86072 20.345 8.58042 20.164 9.13016C20.9642 9.49635 22.1135 10.133 23.1549 11.127C24.4837 12.3954 25.6583 14.2718 25.6583 16.8741C25.6583 19.5749 24.4812 21.9618 22.2625 23.6437C20.07 25.3056 16.9322 26.2309 13.0369 26.2338H13.0174Z" fill="#633001"/>
<path d="M8.31175 0.962646C6.62701 0.962646 5.85149 2.21952 5.85149 3.95775C5.85149 5.33939 6.75257 8.10644 7.12229 9.1836C7.20545 9.42588 7.07479 9.69132 6.83647 9.78528C5.48622 10.3177 1.50146 12.267 1.50146 16.7315C1.50146 21.4343 5.55088 24.9802 13.0183 24.9859C13.0213 24.9859 13.0243 24.9858 13.0272 24.9858C13.0302 24.9858 13.0332 24.9859 13.0362 24.9859C20.5037 24.9802 24.553 21.4343 24.553 16.7315C24.553 12.267 20.5683 10.3177 19.2181 9.78528C18.9798 9.69132 18.849 9.42588 18.9322 9.1836C19.3019 8.10644 20.203 5.33939 20.203 3.95775C20.203 2.21952 19.4275 0.962646 17.7427 0.962646C15.3176 0.962646 14.7132 4.39791 14.67 8.08478C14.6671 8.33091 14.4681 8.53062 14.2219 8.53062H11.8325C11.5864 8.53062 11.3874 8.33091 11.3845 8.08478C11.3414 4.39791 10.7369 0.962646 8.31175 0.962646Z" fill="#D1884F"/>
<path d="M13.0362 23.4794C7.54945 23.4794 1.51095 20.5424 1.50149 16.7405C1.50148 16.7463 1.50146 16.7522 1.50146 16.7582C1.50146 21.4648 5.55732 25.0126 13.0362 25.0126C20.515 25.0126 24.5708 21.4648 24.5708 16.7582C24.5708 16.7522 24.5708 16.7463 24.5708 16.7405C24.5613 20.5424 18.5229 23.4794 13.0362 23.4794Z" fill="#FEDC90"/>
<path d="M9.98769 15.573C9.98769 16.8566 9.38107 17.5251 8.63276 17.5251C7.88446 17.5251 7.27783 16.8566 7.27783 15.573C7.27783 14.2894 7.88446 13.6208 8.63276 13.6208C9.38107 13.6208 9.98769 14.2894 9.98769 15.573Z" fill="#633001"/>
<path d="M18.7948 15.573C18.7948 16.8566 18.1882 17.5251 17.4399 17.5251C16.6915 17.5251 16.085 16.8566 16.085 15.573C16.085 14.2894 16.6915 13.6208 17.4399 13.6208C18.1882 13.6208 18.7948 14.2894 18.7948 15.573Z" fill="#633001"/>
</g>
<defs>
<clipPath id="clip0_40000061_474">
<rect width="26.1536" height="26.2857" fill="white"/>
</clipPath>
</defs>
</svg>
