<svg width="31" height="30" viewBox="0 0 31 30" fill="none" xmlns="http://www.w3.org/2000/svg">
<path d="M13 14.0837C15.5957 14.0837 17.9562 14.8355 19.6928 15.895C20.5595 16.4237 21.3005 17.0477 21.8357 17.7258C22.3622 18.3921 22.75 19.1894 22.75 20.042C22.75 20.9574 22.3047 21.6789 21.6634 22.1935C21.0567 22.681 18.4933 21.5963 17.6429 21.8216C15.9334 22.2734 15.4148 23.8337 13 23.8337C10.5852 23.8337 8.30375 23.682 6.59425 23.2292C5.74383 23.0038 4.94325 22.681 4.33658 22.1935C3.69417 21.6778 3.25 20.9574 3.25 20.042C3.25 19.1894 3.63783 18.3921 4.16433 17.7247C4.6995 17.0477 5.43942 16.4247 6.30717 15.8939C8.04375 14.8366 10.4054 14.0837 13 14.0837ZM13 2.16699C14.4366 2.16699 15.8143 2.73768 16.8302 3.7535C17.846 4.76932 18.4167 6.14707 18.4167 7.58366C18.4167 9.02025 17.846 10.398 16.8302 11.4138C15.8143 12.4296 14.4366 13.0003 13 13.0003C11.5634 13.0003 10.1857 12.4296 9.16984 11.4138C8.15402 10.398 7.58333 9.02025 7.58333 7.58366C7.58333 6.14707 8.15402 4.76932 9.16984 3.7535C10.1857 2.73768 11.5634 2.16699 13 2.16699Z" fill="white"/>
<path d="M21.3164 16.0078C21.6477 16.0406 21.9622 16.1709 22.2197 16.3818L22.3428 16.4941L22.4551 16.6182C22.6934 16.909 22.8276 17.2721 22.8359 17.6504H25.9629C26.8479 17.6505 27.6965 18.0021 28.3223 18.6279C28.9481 19.2538 29.2998 20.1023 29.2998 20.9873V25.6621C29.2998 26.5473 28.9482 27.3966 28.3223 28.0225C27.6965 28.6482 26.8479 28.9999 25.9629 29H16.3379C15.4527 29 14.6034 28.6484 13.9775 28.0225C13.3516 27.3966 13 26.5473 13 25.6621V20.9873C13.0001 20.1023 13.3518 19.2538 13.9775 18.6279C14.6034 18.002 15.4527 17.6504 16.3379 17.6504H19.4648C19.4744 17.2163 19.6493 16.8018 19.957 16.4941L20.0801 16.3818C20.3804 16.1357 20.7587 16 21.1504 16L21.3164 16.0078ZM18.4004 22.9502C18.301 22.9502 18.2051 22.9893 18.1348 23.0596C18.0644 23.1299 18.0254 23.2257 18.0254 23.3252C18.0254 23.4245 18.0646 23.5196 18.1348 23.5898C18.2051 23.6602 18.3009 23.7002 18.4004 23.7002C18.4997 23.7001 18.5948 23.6601 18.665 23.5898C18.7353 23.5196 18.7753 23.4245 18.7754 23.3252C18.7754 23.2257 18.7354 23.1299 18.665 23.0596C18.5948 22.9895 18.4996 22.9503 18.4004 22.9502ZM23.9004 22.9502C23.801 22.9502 23.7051 22.9893 23.6348 23.0596C23.5644 23.1299 23.5254 23.2257 23.5254 23.3252C23.5254 23.4245 23.5646 23.5196 23.6348 23.5898C23.7051 23.6602 23.8009 23.7002 23.9004 23.7002C23.9997 23.7001 24.0948 23.6601 24.165 23.5898C24.2353 23.5196 24.2753 23.4245 24.2754 23.3252C24.2754 23.2257 24.2354 23.1299 24.165 23.0596C24.0948 22.9895 23.9996 22.9503 23.9004 22.9502Z" fill="#3FEC52" stroke="#161E1E" stroke-width="2"/>
</svg>
