<svg width="23" height="23" viewBox="0 0 23 23" fill="none" xmlns="http://www.w3.org/2000/svg">
<g clip-path="url(#clip0_40000061_456)">
<path d="M18.2858 4.23073C18.2858 5.49616 15.2157 6.522 11.4287 6.522C7.64157 6.522 4.57153 5.49616 4.57153 4.23073C4.57153 2.96529 7.64157 1.93945 11.4287 1.93945C15.2157 1.93945 18.2858 2.96529 18.2858 4.23073Z" fill="white"/>
<path d="M22.8572 16.6799C22.8572 15.1202 20.0593 13.7791 16.0493 13.186L15.9455 13.2071C14.5929 13.474 13.057 13.6248 11.4286 13.6248C9.75826 13.6248 8.18523 13.466 6.8078 13.186C2.79784 13.7791 0 15.1202 0 16.6799C0 18.7889 5.11671 20.4987 11.4286 20.4987C17.7404 20.4987 22.8572 18.7889 22.8572 16.6799Z" fill="white"/>
<path d="M20.5714 9.80589C20.5714 8.45629 17.9529 7.31126 14.321 6.90674L14.2273 6.92187C13.3629 7.05778 12.4181 7.13263 11.4285 7.13263C10.4029 7.13263 9.42562 7.05232 8.53602 6.90684C4.90412 7.31116 2.28564 8.4564 2.28564 9.80589C2.28564 11.4931 6.37905 12.8609 11.4285 12.8609C16.478 12.8609 20.5714 11.4931 20.5714 9.80589Z" fill="white"/>
</g>
<defs>
<clipPath id="clip0_40000061_456">
<rect width="22.8571" height="22.8571" fill="white"/>
</clipPath>
</defs>
</svg>
