<svg width="36" height="36" viewBox="0 0 36 36" fill="none" xmlns="http://www.w3.org/2000/svg">
<path d="M10 0.5H26C31.2467 0.5 35.5 4.7533 35.5 10V26C35.5 31.2467 31.2467 35.5 26 35.5H10C4.7533 35.5 0.5 31.2467 0.5 26V10C0.5 4.7533 4.7533 0.5 10 0.5Z" stroke="white" stroke-opacity="0.07"/>
<path d="M20.2558 12.6968L24.97 17.411C25.1262 17.5672 25.214 17.7792 25.214 18.0001C25.214 18.2211 25.1262 18.433 24.97 18.5893L20.2558 23.3035C20.0987 23.4553 19.8882 23.5393 19.6697 23.5374C19.4512 23.5355 19.2422 23.4478 19.0877 23.2933C18.9331 23.1388 18.8455 22.9298 18.8436 22.7113C18.8417 22.4928 18.9257 22.2823 19.0775 22.1251L22.3692 18.8335H11.3333C11.1123 18.8335 10.9004 18.7457 10.7441 18.5894C10.5878 18.4331 10.5 18.2211 10.5 18.0001C10.5 17.7791 10.5878 17.5671 10.7441 17.4109C10.9004 17.2546 11.1123 17.1668 11.3333 17.1668H22.3692L19.0775 13.8751C18.9979 13.7983 18.9344 13.7063 18.8907 13.6046C18.8471 13.503 18.8241 13.3936 18.8231 13.283C18.8222 13.1723 18.8432 13.0626 18.8851 12.9602C18.927 12.8577 18.9889 12.7647 19.0672 12.6865C19.1454 12.6082 19.2385 12.5463 19.3409 12.5044C19.4433 12.4625 19.553 12.4415 19.6637 12.4424C19.7743 12.4434 19.8837 12.4664 19.9853 12.51C20.087 12.5537 20.179 12.6172 20.2558 12.6968Z" fill="white" fill-opacity="0.5"/>
</svg>
