<svg width="20" height="16" viewBox="0 0 20 16" fill="none" xmlns="http://www.w3.org/2000/svg">
<path d="M10.9615 0.961538C10.9615 0.706523 10.8602 0.461952 10.6799 0.281628C10.4996 0.101305 10.255 0 10 0C9.74498 0 9.50041 0.101305 9.32009 0.281628C9.13977 0.461952 9.03846 0.706523 9.03846 0.961538V2.30769H3.26923C2.40218 2.30769 1.57063 2.65213 0.957535 3.26523C0.344436 3.87833 0 4.70987 0 5.57692V12.1154C0 12.9824 0.344436 13.814 0.957535 14.4271C1.57063 15.0402 2.40218 15.3846 3.26923 15.3846H16.7308C17.5978 15.3846 18.4294 15.0402 19.0425 14.4271C19.6556 13.814 20 12.9824 20 12.1154V5.57692C20 4.70987 19.6556 3.87833 19.0425 3.26523C18.4294 2.65213 17.5978 2.30769 16.7308 2.30769H10.9615V0.961538ZM6.15385 10.7692C5.64381 10.7692 5.15467 10.5666 4.79403 10.206C4.43338 9.84533 4.23077 9.35618 4.23077 8.84615C4.23077 8.33612 4.43338 7.84698 4.79403 7.48633C5.15467 7.12569 5.64381 6.92308 6.15385 6.92308C6.66388 6.92308 7.15302 7.12569 7.51367 7.48633C7.87431 7.84698 8.07692 8.33612 8.07692 8.84615C8.07692 9.35618 7.87431 9.84533 7.51367 10.206C7.15302 10.5666 6.66388 10.7692 6.15385 10.7692ZM15.7692 8.84615C15.7692 9.35618 15.5666 9.84533 15.206 10.206C14.8453 10.5666 14.3562 10.7692 13.8462 10.7692C13.3361 10.7692 12.847 10.5666 12.4863 10.206C12.1257 9.84533 11.9231 9.35618 11.9231 8.84615C11.9231 8.33612 12.1257 7.84698 12.4863 7.48633C12.847 7.12569 13.3361 6.92308 13.8462 6.92308C14.3562 6.92308 14.8453 7.12569 15.206 7.48633C15.5666 7.84698 15.7692 8.33612 15.7692 8.84615Z" fill="url(#paint0_linear_40000061_951)"/>
<defs>
<linearGradient id="paint0_linear_40000061_951" x1="10" y1="0" x2="10" y2="15.3846" gradientUnits="userSpaceOnUse">
<stop stop-color="#AFBDD1"/>
<stop offset="0.527381" stop-color="#FDFDFE"/>
<stop offset="1" stop-color="#97AAC3"/>
</linearGradient>
</defs>
</svg>
