<svg width="496" height="354" viewBox="0 0 496 354" fill="none" xmlns="http://www.w3.org/2000/svg">
<rect x="153" y="170" width="28" height="28" rx="7" transform="rotate(90 153 170)" fill="#212727"/>
<rect x="152.708" y="170.292" width="27.4167" height="27.4167" rx="6.70833" transform="rotate(90 152.708 170.292)" stroke="url(#paint0_linear_40000084_4487)" stroke-opacity="0.5" stroke-width="0.583333"/>
<path d="M139.258 178.111C139.258 177.888 139.169 177.674 139.011 177.516C138.854 177.358 138.64 177.27 138.417 177.27C138.193 177.27 137.979 177.358 137.822 177.516C137.664 177.674 137.575 177.888 137.575 178.111V179.289H132.527C131.768 179.289 131.041 179.59 130.504 180.127C129.968 180.663 129.667 181.391 129.667 182.149V187.87C129.667 188.629 129.968 189.357 130.504 189.893C131.041 190.43 131.768 190.731 132.527 190.731H144.306C145.065 190.731 145.792 190.43 146.329 189.893C146.865 189.357 147.167 188.629 147.167 187.87V182.149C147.167 181.391 146.865 180.663 146.329 180.127C145.792 179.59 145.065 179.289 144.306 179.289H139.258V178.111ZM135.051 186.693C134.605 186.693 134.177 186.515 133.861 186.2C133.546 185.884 133.368 185.456 133.368 185.01C133.368 184.564 133.546 184.136 133.861 183.82C134.177 183.505 134.605 183.327 135.051 183.327C135.497 183.327 135.925 183.505 136.241 183.82C136.557 184.136 136.734 184.564 136.734 185.01C136.734 185.456 136.557 185.884 136.241 186.2C135.925 186.515 135.497 186.693 135.051 186.693ZM143.465 185.01C143.465 185.456 143.287 185.884 142.972 186.2C142.656 186.515 142.228 186.693 141.782 186.693C141.336 186.693 140.908 186.515 140.592 186.2C140.276 185.884 140.099 185.456 140.099 185.01C140.099 184.564 140.276 184.136 140.592 183.82C140.908 183.505 141.336 183.327 141.782 183.327C142.228 183.327 142.656 183.505 142.972 183.82C143.287 184.136 143.465 184.564 143.465 185.01Z" fill="#3FEC52"/>
<rect x="207" y="170" width="28" height="28" rx="7" transform="rotate(90 207 170)" fill="#212727"/>
<rect x="206.708" y="170.292" width="27.4167" height="27.4167" rx="6.70833" transform="rotate(90 206.708 170.292)" stroke="url(#paint1_linear_40000084_4487)" stroke-opacity="0.5" stroke-width="0.583333"/>
<path d="M193.258 178.111C193.258 177.887 193.169 177.673 193.012 177.516C192.854 177.358 192.64 177.269 192.417 177.269C192.194 177.269 191.98 177.358 191.822 177.516C191.664 177.673 191.575 177.887 191.575 178.111V179.289H186.527C185.769 179.289 185.041 179.59 184.505 180.126C183.968 180.663 183.667 181.39 183.667 182.149V187.87C183.667 188.629 183.968 189.357 184.505 189.893C185.041 190.429 185.769 190.731 186.527 190.731H198.306C199.065 190.731 199.792 190.429 200.329 189.893C200.865 189.357 201.167 188.629 201.167 187.87V182.149C201.167 181.39 200.865 180.663 200.329 180.126C199.792 179.59 199.065 179.289 198.306 179.289H193.258V178.111ZM189.051 186.692C188.605 186.692 188.177 186.515 187.862 186.2C187.546 185.884 187.369 185.456 187.369 185.01C187.369 184.563 187.546 184.135 187.862 183.82C188.177 183.504 188.605 183.327 189.051 183.327C189.498 183.327 189.926 183.504 190.241 183.82C190.557 184.135 190.734 184.563 190.734 185.01C190.734 185.456 190.557 185.884 190.241 186.2C189.926 186.515 189.498 186.692 189.051 186.692ZM197.465 185.01C197.465 185.456 197.288 185.884 196.972 186.2C196.656 186.515 196.228 186.692 195.782 186.692C195.336 186.692 194.908 186.515 194.592 186.2C194.277 185.884 194.099 185.456 194.099 185.01C194.099 184.563 194.277 184.135 194.592 183.82C194.908 183.504 195.336 183.327 195.782 183.327C196.228 183.327 196.656 183.504 196.972 183.82C197.288 184.135 197.465 184.563 197.465 185.01Z" fill="#3FEC52"/>
<rect x="261" y="170" width="28" height="28" rx="7" transform="rotate(90 261 170)" fill="#212727"/>
<rect x="260.708" y="170.292" width="27.4167" height="27.4167" rx="6.70833" transform="rotate(90 260.708 170.292)" stroke="url(#paint2_linear_40000084_4487)" stroke-opacity="0.5" stroke-width="0.583333"/>
<path d="M247.258 178.111C247.258 177.887 247.169 177.673 247.012 177.516C246.854 177.358 246.64 177.269 246.417 177.269C246.194 177.269 245.98 177.358 245.822 177.516C245.664 177.673 245.575 177.887 245.575 178.111V179.289H240.527C239.769 179.289 239.041 179.59 238.505 180.126C237.968 180.663 237.667 181.39 237.667 182.149V187.87C237.667 188.629 237.968 189.357 238.505 189.893C239.041 190.429 239.769 190.731 240.527 190.731H252.306C253.065 190.731 253.792 190.429 254.329 189.893C254.865 189.357 255.167 188.629 255.167 187.87V182.149C255.167 181.39 254.865 180.663 254.329 180.126C253.792 179.59 253.065 179.289 252.306 179.289H247.258V178.111ZM243.051 186.692C242.605 186.692 242.177 186.515 241.862 186.2C241.546 185.884 241.369 185.456 241.369 185.01C241.369 184.563 241.546 184.135 241.862 183.82C242.177 183.504 242.605 183.327 243.051 183.327C243.498 183.327 243.926 183.504 244.241 183.82C244.557 184.135 244.734 184.563 244.734 185.01C244.734 185.456 244.557 185.884 244.241 186.2C243.926 186.515 243.498 186.692 243.051 186.692ZM251.465 185.01C251.465 185.456 251.288 185.884 250.972 186.2C250.656 186.515 250.228 186.692 249.782 186.692C249.336 186.692 248.908 186.515 248.592 186.2C248.277 185.884 248.099 185.456 248.099 185.01C248.099 184.563 248.277 184.135 248.592 183.82C248.908 183.504 249.336 183.327 249.782 183.327C250.228 183.327 250.656 183.504 250.972 183.82C251.288 184.135 251.465 184.563 251.465 185.01Z" fill="#3FEC52"/>
<rect x="315" y="170" width="28" height="28" rx="7" transform="rotate(90 315 170)" fill="#212727"/>
<rect x="314.708" y="170.292" width="27.4167" height="27.4167" rx="6.70833" transform="rotate(90 314.708 170.292)" stroke="url(#paint3_linear_40000084_4487)" stroke-opacity="0.5" stroke-width="0.583333"/>
<path d="M301.258 178.111C301.258 177.887 301.169 177.673 301.011 177.516C300.854 177.358 300.64 177.269 300.417 177.269C300.193 177.269 299.979 177.358 299.822 177.516C299.664 177.673 299.575 177.887 299.575 178.111V179.289H294.527C293.768 179.289 293.041 179.59 292.504 180.126C291.968 180.663 291.667 181.39 291.667 182.149V187.87C291.667 188.629 291.968 189.357 292.504 189.893C293.041 190.429 293.768 190.731 294.527 190.731H306.306C307.065 190.731 307.792 190.429 308.329 189.893C308.865 189.357 309.167 188.629 309.167 187.87V182.149C309.167 181.39 308.865 180.663 308.329 180.126C307.792 179.59 307.065 179.289 306.306 179.289H301.258V178.111ZM297.051 186.692C296.605 186.692 296.177 186.515 295.861 186.2C295.546 185.884 295.368 185.456 295.368 185.01C295.368 184.563 295.546 184.135 295.861 183.82C296.177 183.504 296.605 183.327 297.051 183.327C297.497 183.327 297.925 183.504 298.241 183.82C298.557 184.135 298.734 184.563 298.734 185.01C298.734 185.456 298.557 185.884 298.241 186.2C297.925 186.515 297.497 186.692 297.051 186.692ZM305.465 185.01C305.465 185.456 305.287 185.884 304.972 186.2C304.656 186.515 304.228 186.692 303.782 186.692C303.336 186.692 302.908 186.515 302.592 186.2C302.276 185.884 302.099 185.456 302.099 185.01C302.099 184.563 302.276 184.135 302.592 183.82C302.908 183.504 303.336 183.327 303.782 183.327C304.228 183.327 304.656 183.504 304.972 183.82C305.287 184.135 305.465 184.563 305.465 185.01Z" fill="#3FEC52"/>
<rect x="369" y="170" width="28" height="28" rx="7" transform="rotate(90 369 170)" fill="#212727"/>
<rect x="368.708" y="170.292" width="27.4167" height="27.4167" rx="6.70833" transform="rotate(90 368.708 170.292)" stroke="url(#paint4_linear_40000084_4487)" stroke-opacity="0.5" stroke-width="0.583333"/>
<path d="M355.258 178.111C355.258 177.887 355.169 177.673 355.012 177.516C354.854 177.358 354.64 177.269 354.417 177.269C354.194 177.269 353.98 177.358 353.822 177.516C353.664 177.673 353.575 177.887 353.575 178.111V179.289H348.527C347.769 179.289 347.041 179.59 346.505 180.126C345.968 180.663 345.667 181.39 345.667 182.149V187.87C345.667 188.629 345.968 189.357 346.505 189.893C347.041 190.429 347.769 190.731 348.527 190.731H360.306C361.065 190.731 361.792 190.429 362.329 189.893C362.865 189.357 363.167 188.629 363.167 187.87V182.149C363.167 181.39 362.865 180.663 362.329 180.126C361.792 179.59 361.065 179.289 360.306 179.289H355.258V178.111ZM351.051 186.692C350.605 186.692 350.177 186.515 349.862 186.2C349.546 185.884 349.369 185.456 349.369 185.01C349.369 184.563 349.546 184.135 349.862 183.82C350.177 183.504 350.605 183.327 351.051 183.327C351.498 183.327 351.926 183.504 352.241 183.82C352.557 184.135 352.734 184.563 352.734 185.01C352.734 185.456 352.557 185.884 352.241 186.2C351.926 186.515 351.498 186.692 351.051 186.692ZM359.465 185.01C359.465 185.456 359.288 185.884 358.972 186.2C358.656 186.515 358.228 186.692 357.782 186.692C357.336 186.692 356.908 186.515 356.592 186.2C356.277 185.884 356.099 185.456 356.099 185.01C356.099 184.563 356.277 184.135 356.592 183.82C356.908 183.504 357.336 183.327 357.782 183.327C358.228 183.327 358.656 183.504 358.972 183.82C359.288 184.135 359.465 184.563 359.465 185.01Z" fill="#3FEC52"/>
<rect x="124" y="224" width="28" height="28" rx="7" transform="rotate(90 124 224)" fill="#212727"/>
<rect x="123.708" y="224.292" width="27.4167" height="27.4167" rx="6.70833" transform="rotate(90 123.708 224.292)" stroke="url(#paint5_linear_40000084_4487)" stroke-opacity="0.5" stroke-width="0.583333"/>
<path d="M110.258 232.111C110.258 231.888 110.169 231.674 110.012 231.516C109.854 231.358 109.64 231.27 109.417 231.27C109.194 231.27 108.98 231.358 108.822 231.516C108.664 231.674 108.575 231.888 108.575 232.111V233.289H103.527C102.769 233.289 102.041 233.59 101.505 234.127C100.968 234.663 100.667 235.391 100.667 236.149V241.87C100.667 242.629 100.968 243.357 101.505 243.893C102.041 244.43 102.769 244.731 103.527 244.731H115.306C116.065 244.731 116.792 244.43 117.329 243.893C117.865 243.357 118.167 242.629 118.167 241.87V236.149C118.167 235.391 117.865 234.663 117.329 234.127C116.792 233.59 116.065 233.289 115.306 233.289H110.258V232.111ZM106.051 240.693C105.605 240.693 105.177 240.515 104.862 240.2C104.546 239.884 104.369 239.456 104.369 239.01C104.369 238.564 104.546 238.136 104.862 237.82C105.177 237.505 105.605 237.327 106.051 237.327C106.498 237.327 106.926 237.505 107.241 237.82C107.557 238.136 107.734 238.564 107.734 239.01C107.734 239.456 107.557 239.884 107.241 240.2C106.926 240.515 106.498 240.693 106.051 240.693ZM114.465 239.01C114.465 239.456 114.288 239.884 113.972 240.2C113.656 240.515 113.228 240.693 112.782 240.693C112.336 240.693 111.908 240.515 111.592 240.2C111.277 239.884 111.099 239.456 111.099 239.01C111.099 238.564 111.277 238.136 111.592 237.82C111.908 237.505 112.336 237.327 112.782 237.327C113.228 237.327 113.656 237.505 113.972 237.82C114.288 238.136 114.465 238.564 114.465 239.01Z" fill="#3FEC52"/>
<rect x="178.8" y="224" width="28" height="28" rx="7" transform="rotate(90 178.8 224)" fill="#212727"/>
<rect x="178.508" y="224.292" width="27.4167" height="27.4167" rx="6.70833" transform="rotate(90 178.508 224.292)" stroke="url(#paint6_linear_40000084_4487)" stroke-opacity="0.5" stroke-width="0.583333"/>
<path d="M165.058 232.111C165.058 231.887 164.969 231.673 164.811 231.516C164.654 231.358 164.44 231.269 164.217 231.269C163.993 231.269 163.779 231.358 163.622 231.516C163.464 231.673 163.375 231.887 163.375 232.111V233.289H158.327C157.568 233.289 156.841 233.59 156.304 234.126C155.768 234.663 155.467 235.39 155.467 236.149V241.87C155.467 242.629 155.768 243.357 156.304 243.893C156.841 244.429 157.568 244.731 158.327 244.731H170.106C170.865 244.731 171.592 244.429 172.129 243.893C172.665 243.357 172.967 242.629 172.967 241.87V236.149C172.967 235.39 172.665 234.663 172.129 234.126C171.592 233.59 170.865 233.289 170.106 233.289H165.058V232.111ZM160.851 240.692C160.405 240.692 159.977 240.515 159.661 240.2C159.346 239.884 159.168 239.456 159.168 239.01C159.168 238.563 159.346 238.135 159.661 237.82C159.977 237.504 160.405 237.327 160.851 237.327C161.297 237.327 161.725 237.504 162.041 237.82C162.357 238.135 162.534 238.563 162.534 239.01C162.534 239.456 162.357 239.884 162.041 240.2C161.725 240.515 161.297 240.692 160.851 240.692ZM169.265 239.01C169.265 239.456 169.087 239.884 168.772 240.2C168.456 240.515 168.028 240.692 167.582 240.692C167.136 240.692 166.708 240.515 166.392 240.2C166.077 239.884 165.899 239.456 165.899 239.01C165.899 238.563 166.077 238.135 166.392 237.82C166.708 237.504 167.136 237.327 167.582 237.327C168.028 237.327 168.456 237.504 168.772 237.82C169.087 238.135 169.265 238.563 169.265 239.01Z" fill="#3FEC52"/>
<rect x="233.6" y="224" width="28" height="28" rx="7" transform="rotate(90 233.6 224)" fill="#212727"/>
<rect x="233.308" y="224.292" width="27.4167" height="27.4167" rx="6.70833" transform="rotate(90 233.308 224.292)" stroke="url(#paint7_linear_40000084_4487)" stroke-opacity="0.5" stroke-width="0.583333"/>
<path d="M219.858 232.111C219.858 231.887 219.77 231.673 219.612 231.516C219.454 231.358 219.24 231.269 219.017 231.269C218.794 231.269 218.58 231.358 218.422 231.516C218.264 231.673 218.175 231.887 218.175 232.111V233.289H213.127C212.369 233.289 211.641 233.59 211.105 234.126C210.568 234.663 210.267 235.39 210.267 236.149V241.87C210.267 242.629 210.568 243.357 211.105 243.893C211.641 244.429 212.369 244.731 213.127 244.731H224.906C225.665 244.731 226.393 244.429 226.929 243.893C227.465 243.357 227.767 242.629 227.767 241.87V236.149C227.767 235.39 227.465 234.663 226.929 234.126C226.393 233.59 225.665 233.289 224.906 233.289H219.858V232.111ZM215.651 240.692C215.205 240.692 214.777 240.515 214.462 240.2C214.146 239.884 213.969 239.456 213.969 239.01C213.969 238.563 214.146 238.135 214.462 237.82C214.777 237.504 215.205 237.327 215.651 237.327C216.098 237.327 216.526 237.504 216.841 237.82C217.157 238.135 217.334 238.563 217.334 239.01C217.334 239.456 217.157 239.884 216.841 240.2C216.526 240.515 216.098 240.692 215.651 240.692ZM224.065 239.01C224.065 239.456 223.888 239.884 223.572 240.2C223.257 240.515 222.829 240.692 222.382 240.692C221.936 240.692 221.508 240.515 221.192 240.2C220.877 239.884 220.7 239.456 220.7 239.01C220.7 238.563 220.877 238.135 221.192 237.82C221.508 237.504 221.936 237.327 222.382 237.327C222.829 237.327 223.257 237.504 223.572 237.82C223.888 238.135 224.065 238.563 224.065 239.01Z" fill="#3FEC52"/>
<rect x="288.4" y="224" width="28" height="28" rx="7" transform="rotate(90 288.4 224)" fill="#212727"/>
<rect x="288.108" y="224.292" width="27.4167" height="27.4167" rx="6.70833" transform="rotate(90 288.108 224.292)" stroke="url(#paint8_linear_40000084_4487)" stroke-opacity="0.5" stroke-width="0.583333"/>
<path d="M274.658 232.111C274.658 231.887 274.569 231.673 274.412 231.516C274.254 231.358 274.04 231.269 273.817 231.269C273.594 231.269 273.38 231.358 273.222 231.516C273.064 231.673 272.975 231.887 272.975 232.111V233.289H267.927C267.169 233.289 266.441 233.59 265.904 234.126C265.368 234.663 265.067 235.39 265.067 236.149V241.87C265.067 242.629 265.368 243.357 265.904 243.893C266.441 244.429 267.169 244.731 267.927 244.731H279.706C280.465 244.731 281.192 244.429 281.729 243.893C282.265 243.357 282.567 242.629 282.567 241.87V236.149C282.567 235.39 282.265 234.663 281.729 234.126C281.192 233.59 280.465 233.289 279.706 233.289H274.658V232.111ZM270.451 240.692C270.005 240.692 269.577 240.515 269.261 240.2C268.946 239.884 268.769 239.456 268.769 239.01C268.769 238.563 268.946 238.135 269.261 237.82C269.577 237.504 270.005 237.327 270.451 237.327C270.898 237.327 271.326 237.504 271.641 237.82C271.957 238.135 272.134 238.563 272.134 239.01C272.134 239.456 271.957 239.884 271.641 240.2C271.326 240.515 270.898 240.692 270.451 240.692ZM278.865 239.01C278.865 239.456 278.687 239.884 278.372 240.2C278.056 240.515 277.628 240.692 277.182 240.692C276.736 240.692 276.308 240.515 275.992 240.2C275.677 239.884 275.499 239.456 275.499 239.01C275.499 238.563 275.677 238.135 275.992 237.82C276.308 237.504 276.736 237.327 277.182 237.327C277.628 237.327 278.056 237.504 278.372 237.82C278.687 238.135 278.865 238.563 278.865 239.01Z" fill="#3FEC52"/>
<rect x="343.2" y="224" width="28" height="28" rx="7" transform="rotate(90 343.2 224)" fill="#212727"/>
<rect x="342.908" y="224.292" width="27.4167" height="27.4167" rx="6.70833" transform="rotate(90 342.908 224.292)" stroke="url(#paint9_linear_40000084_4487)" stroke-opacity="0.5" stroke-width="0.583333"/>
<path d="M329.458 232.111C329.458 231.887 329.369 231.673 329.212 231.516C329.054 231.358 328.84 231.269 328.617 231.269C328.394 231.269 328.18 231.358 328.022 231.516C327.864 231.673 327.775 231.887 327.775 232.111V233.289H322.727C321.969 233.289 321.241 233.59 320.705 234.126C320.168 234.663 319.867 235.39 319.867 236.149V241.87C319.867 242.629 320.168 243.357 320.705 243.893C321.241 244.429 321.969 244.731 322.727 244.731H334.506C335.265 244.731 335.992 244.429 336.529 243.893C337.065 243.357 337.367 242.629 337.367 241.87V236.149C337.367 235.39 337.065 234.663 336.529 234.126C335.992 233.59 335.265 233.289 334.506 233.289H329.458V232.111ZM325.251 240.692C324.805 240.692 324.377 240.515 324.061 240.2C323.746 239.884 323.569 239.456 323.569 239.01C323.569 238.563 323.746 238.135 324.061 237.82C324.377 237.504 324.805 237.327 325.251 237.327C325.698 237.327 326.126 237.504 326.441 237.82C326.757 238.135 326.934 238.563 326.934 239.01C326.934 239.456 326.757 239.884 326.441 240.2C326.126 240.515 325.698 240.692 325.251 240.692ZM333.665 239.01C333.665 239.456 333.487 239.884 333.172 240.2C332.856 240.515 332.428 240.692 331.982 240.692C331.536 240.692 331.108 240.515 330.792 240.2C330.477 239.884 330.299 239.456 330.299 239.01C330.299 238.563 330.477 238.135 330.792 237.82C331.108 237.504 331.536 237.327 331.982 237.327C332.428 237.327 332.856 237.504 333.172 237.82C333.487 238.135 333.665 238.563 333.665 239.01Z" fill="#3FEC52"/>
<rect x="398" y="224" width="28" height="28" rx="7" transform="rotate(90 398 224)" fill="#212727"/>
<rect x="397.708" y="224.292" width="27.4167" height="27.4167" rx="6.70833" transform="rotate(90 397.708 224.292)" stroke="url(#paint10_linear_40000084_4487)" stroke-opacity="0.5" stroke-width="0.583333"/>
<path d="M384.258 232.111C384.258 231.887 384.169 231.673 384.011 231.516C383.854 231.358 383.64 231.269 383.417 231.269C383.193 231.269 382.979 231.358 382.822 231.516C382.664 231.673 382.575 231.887 382.575 232.111V233.289H377.527C376.768 233.289 376.041 233.59 375.504 234.126C374.968 234.663 374.667 235.39 374.667 236.149V241.87C374.667 242.629 374.968 243.357 375.504 243.893C376.041 244.429 376.768 244.731 377.527 244.731H389.306C390.065 244.731 390.792 244.429 391.329 243.893C391.865 243.357 392.167 242.629 392.167 241.87V236.149C392.167 235.39 391.865 234.663 391.329 234.126C390.792 233.59 390.065 233.289 389.306 233.289H384.258V232.111ZM380.051 240.692C379.605 240.692 379.177 240.515 378.861 240.2C378.546 239.884 378.368 239.456 378.368 239.01C378.368 238.563 378.546 238.135 378.861 237.82C379.177 237.504 379.605 237.327 380.051 237.327C380.497 237.327 380.925 237.504 381.241 237.82C381.557 238.135 381.734 238.563 381.734 239.01C381.734 239.456 381.557 239.884 381.241 240.2C380.925 240.515 380.497 240.692 380.051 240.692ZM388.465 239.01C388.465 239.456 388.287 239.884 387.972 240.2C387.656 240.515 387.228 240.692 386.782 240.692C386.336 240.692 385.908 240.515 385.592 240.2C385.276 239.884 385.099 239.456 385.099 239.01C385.099 238.563 385.276 238.135 385.592 237.82C385.908 237.504 386.336 237.327 386.782 237.327C387.228 237.327 387.656 237.504 387.972 237.82C388.287 238.135 388.465 238.563 388.465 239.01Z" fill="#3FEC52"/>
<rect x="153" y="278" width="28" height="28" rx="7" transform="rotate(90 153 278)" fill="#212727"/>
<rect x="152.708" y="278.292" width="27.4167" height="27.4167" rx="6.70833" transform="rotate(90 152.708 278.292)" stroke="url(#paint11_linear_40000084_4487)" stroke-opacity="0.5" stroke-width="0.583333"/>
<path d="M139.258 286.111C139.258 285.888 139.169 285.674 139.011 285.516C138.854 285.358 138.64 285.27 138.417 285.27C138.193 285.27 137.979 285.358 137.822 285.516C137.664 285.674 137.575 285.888 137.575 286.111V287.289H132.527C131.768 287.289 131.041 287.59 130.504 288.127C129.968 288.663 129.667 289.391 129.667 290.149V295.87C129.667 296.629 129.968 297.357 130.504 297.893C131.041 298.43 131.768 298.731 132.527 298.731H144.306C145.065 298.731 145.792 298.43 146.329 297.893C146.865 297.357 147.167 296.629 147.167 295.87V290.149C147.167 289.391 146.865 288.663 146.329 288.127C145.792 287.59 145.065 287.289 144.306 287.289H139.258V286.111ZM135.051 294.693C134.605 294.693 134.177 294.515 133.861 294.2C133.546 293.884 133.368 293.456 133.368 293.01C133.368 292.564 133.546 292.136 133.861 291.82C134.177 291.505 134.605 291.327 135.051 291.327C135.497 291.327 135.925 291.505 136.241 291.82C136.557 292.136 136.734 292.564 136.734 293.01C136.734 293.456 136.557 293.884 136.241 294.2C135.925 294.515 135.497 294.693 135.051 294.693ZM143.465 293.01C143.465 293.456 143.287 293.884 142.972 294.2C142.656 294.515 142.228 294.693 141.782 294.693C141.336 294.693 140.908 294.515 140.592 294.2C140.276 293.884 140.099 293.456 140.099 293.01C140.099 292.564 140.276 292.136 140.592 291.82C140.908 291.505 141.336 291.327 141.782 291.327C142.228 291.327 142.656 291.505 142.972 291.82C143.287 292.136 143.465 292.564 143.465 293.01Z" fill="#3FEC52"/>
<rect x="207" y="278" width="28" height="28" rx="7" transform="rotate(90 207 278)" fill="#212727"/>
<rect x="206.708" y="278.292" width="27.4167" height="27.4167" rx="6.70833" transform="rotate(90 206.708 278.292)" stroke="url(#paint12_linear_40000084_4487)" stroke-opacity="0.5" stroke-width="0.583333"/>
<path d="M193.258 286.111C193.258 285.887 193.169 285.673 193.012 285.516C192.854 285.358 192.64 285.269 192.417 285.269C192.194 285.269 191.98 285.358 191.822 285.516C191.664 285.673 191.575 285.887 191.575 286.111V287.289H186.527C185.769 287.289 185.041 287.59 184.505 288.126C183.968 288.663 183.667 289.39 183.667 290.149V295.87C183.667 296.629 183.968 297.357 184.505 297.893C185.041 298.429 185.769 298.731 186.527 298.731H198.306C199.065 298.731 199.792 298.429 200.329 297.893C200.865 297.357 201.167 296.629 201.167 295.87V290.149C201.167 289.39 200.865 288.663 200.329 288.126C199.792 287.59 199.065 287.289 198.306 287.289H193.258V286.111ZM189.051 294.692C188.605 294.692 188.177 294.515 187.862 294.2C187.546 293.884 187.369 293.456 187.369 293.01C187.369 292.563 187.546 292.135 187.862 291.82C188.177 291.504 188.605 291.327 189.051 291.327C189.498 291.327 189.926 291.504 190.241 291.82C190.557 292.135 190.734 292.563 190.734 293.01C190.734 293.456 190.557 293.884 190.241 294.2C189.926 294.515 189.498 294.692 189.051 294.692ZM197.465 293.01C197.465 293.456 197.288 293.884 196.972 294.2C196.656 294.515 196.228 294.692 195.782 294.692C195.336 294.692 194.908 294.515 194.592 294.2C194.277 293.884 194.099 293.456 194.099 293.01C194.099 292.563 194.277 292.135 194.592 291.82C194.908 291.504 195.336 291.327 195.782 291.327C196.228 291.327 196.656 291.504 196.972 291.82C197.288 292.135 197.465 292.563 197.465 293.01Z" fill="#3FEC52"/>
<rect x="261" y="278" width="28" height="28" rx="7" transform="rotate(90 261 278)" fill="#212727"/>
<rect x="260.708" y="278.292" width="27.4167" height="27.4167" rx="6.70833" transform="rotate(90 260.708 278.292)" stroke="url(#paint13_linear_40000084_4487)" stroke-opacity="0.5" stroke-width="0.583333"/>
<path d="M247.258 286.111C247.258 285.887 247.169 285.673 247.012 285.516C246.854 285.358 246.64 285.269 246.417 285.269C246.194 285.269 245.98 285.358 245.822 285.516C245.664 285.673 245.575 285.887 245.575 286.111V287.289H240.527C239.769 287.289 239.041 287.59 238.505 288.126C237.968 288.663 237.667 289.39 237.667 290.149V295.87C237.667 296.629 237.968 297.357 238.505 297.893C239.041 298.429 239.769 298.731 240.527 298.731H252.306C253.065 298.731 253.792 298.429 254.329 297.893C254.865 297.357 255.167 296.629 255.167 295.87V290.149C255.167 289.39 254.865 288.663 254.329 288.126C253.792 287.59 253.065 287.289 252.306 287.289H247.258V286.111ZM243.051 294.692C242.605 294.692 242.177 294.515 241.862 294.2C241.546 293.884 241.369 293.456 241.369 293.01C241.369 292.563 241.546 292.135 241.862 291.82C242.177 291.504 242.605 291.327 243.051 291.327C243.498 291.327 243.926 291.504 244.241 291.82C244.557 292.135 244.734 292.563 244.734 293.01C244.734 293.456 244.557 293.884 244.241 294.2C243.926 294.515 243.498 294.692 243.051 294.692ZM251.465 293.01C251.465 293.456 251.288 293.884 250.972 294.2C250.656 294.515 250.228 294.692 249.782 294.692C249.336 294.692 248.908 294.515 248.592 294.2C248.277 293.884 248.099 293.456 248.099 293.01C248.099 292.563 248.277 292.135 248.592 291.82C248.908 291.504 249.336 291.327 249.782 291.327C250.228 291.327 250.656 291.504 250.972 291.82C251.288 292.135 251.465 292.563 251.465 293.01Z" fill="#3FEC52"/>
<rect x="315" y="278" width="28" height="28" rx="7" transform="rotate(90 315 278)" fill="#212727"/>
<rect x="314.708" y="278.292" width="27.4167" height="27.4167" rx="6.70833" transform="rotate(90 314.708 278.292)" stroke="url(#paint14_linear_40000084_4487)" stroke-opacity="0.5" stroke-width="0.583333"/>
<path d="M301.258 286.111C301.258 285.887 301.169 285.673 301.011 285.516C300.854 285.358 300.64 285.269 300.417 285.269C300.193 285.269 299.979 285.358 299.822 285.516C299.664 285.673 299.575 285.887 299.575 286.111V287.289H294.527C293.768 287.289 293.041 287.59 292.504 288.126C291.968 288.663 291.667 289.39 291.667 290.149V295.87C291.667 296.629 291.968 297.357 292.504 297.893C293.041 298.429 293.768 298.731 294.527 298.731H306.306C307.065 298.731 307.792 298.429 308.329 297.893C308.865 297.357 309.167 296.629 309.167 295.87V290.149C309.167 289.39 308.865 288.663 308.329 288.126C307.792 287.59 307.065 287.289 306.306 287.289H301.258V286.111ZM297.051 294.692C296.605 294.692 296.177 294.515 295.861 294.2C295.546 293.884 295.368 293.456 295.368 293.01C295.368 292.563 295.546 292.135 295.861 291.82C296.177 291.504 296.605 291.327 297.051 291.327C297.497 291.327 297.925 291.504 298.241 291.82C298.557 292.135 298.734 292.563 298.734 293.01C298.734 293.456 298.557 293.884 298.241 294.2C297.925 294.515 297.497 294.692 297.051 294.692ZM305.465 293.01C305.465 293.456 305.287 293.884 304.972 294.2C304.656 294.515 304.228 294.692 303.782 294.692C303.336 294.692 302.908 294.515 302.592 294.2C302.276 293.884 302.099 293.456 302.099 293.01C302.099 292.563 302.276 292.135 302.592 291.82C302.908 291.504 303.336 291.327 303.782 291.327C304.228 291.327 304.656 291.504 304.972 291.82C305.287 292.135 305.465 292.563 305.465 293.01Z" fill="#3FEC52"/>
<rect x="369" y="278" width="28" height="28" rx="7" transform="rotate(90 369 278)" fill="#212727"/>
<rect x="368.708" y="278.292" width="27.4167" height="27.4167" rx="6.70833" transform="rotate(90 368.708 278.292)" stroke="url(#paint15_linear_40000084_4487)" stroke-opacity="0.5" stroke-width="0.583333"/>
<path d="M355.258 286.111C355.258 285.887 355.169 285.673 355.012 285.516C354.854 285.358 354.64 285.269 354.417 285.269C354.194 285.269 353.98 285.358 353.822 285.516C353.664 285.673 353.575 285.887 353.575 286.111V287.289H348.527C347.769 287.289 347.041 287.59 346.505 288.126C345.968 288.663 345.667 289.39 345.667 290.149V295.87C345.667 296.629 345.968 297.357 346.505 297.893C347.041 298.429 347.769 298.731 348.527 298.731H360.306C361.065 298.731 361.792 298.429 362.329 297.893C362.865 297.357 363.167 296.629 363.167 295.87V290.149C363.167 289.39 362.865 288.663 362.329 288.126C361.792 287.59 361.065 287.289 360.306 287.289H355.258V286.111ZM351.051 294.692C350.605 294.692 350.177 294.515 349.862 294.2C349.546 293.884 349.369 293.456 349.369 293.01C349.369 292.563 349.546 292.135 349.862 291.82C350.177 291.504 350.605 291.327 351.051 291.327C351.498 291.327 351.926 291.504 352.241 291.82C352.557 292.135 352.734 292.563 352.734 293.01C352.734 293.456 352.557 293.884 352.241 294.2C351.926 294.515 351.498 294.692 351.051 294.692ZM359.465 293.01C359.465 293.456 359.288 293.884 358.972 294.2C358.656 294.515 358.228 294.692 357.782 294.692C357.336 294.692 356.908 294.515 356.592 294.2C356.277 293.884 356.099 293.456 356.099 293.01C356.099 292.563 356.277 292.135 356.592 291.82C356.908 291.504 357.336 291.327 357.782 291.327C358.228 291.327 358.656 291.504 358.972 291.82C359.288 292.135 359.465 292.563 359.465 293.01Z" fill="#3FEC52"/>
<mask id="path-49-outside-1_40000084_4487" maskUnits="userSpaceOnUse" x="310" y="72" width="88" height="42" fill="black">
<rect fill="white" x="310" y="72" width="88" height="42"/>
<path d="M310 74H398V114H310V74Z"/>
</mask>
<path d="M310 74H398V114H310V74Z" fill="white" fill-opacity="0.05"/>
<path d="M310 74V76H398V74V72H310V74Z" fill="url(#paint16_linear_40000084_4487)" mask="url(#path-49-outside-1_40000084_4487)"/>
<g opacity="0.3">
<path d="M319.447 90.0627C318.867 91.2516 318.542 92.5878 318.542 94.0001C318.542 95.4125 318.867 96.7486 319.447 97.9375L321.619 96.6801C321.249 95.8635 321.042 94.956 321.042 94.0001C321.042 93.0443 321.249 92.1368 321.619 91.3201L319.447 90.0627Z" fill="white"/>
<path d="M328.125 102.958C330.957 102.763 333.427 101.248 334.928 99.0221L332.755 97.7646C331.697 99.2454 330.032 100.261 328.125 100.444V102.958Z" fill="white"/>
<path d="M334.928 88.978C333.427 86.7523 330.957 85.2372 328.125 85.0417V87.5561C330.032 87.7397 331.697 88.7548 332.755 90.2356L334.928 88.978Z" fill="white"/>
</g>
<path opacity="0.8" d="M326.875 85.0417C324.043 85.2375 321.573 86.7525 320.073 88.9781L322.245 90.2355C323.303 88.7549 324.968 87.7398 326.875 87.5561V85.0417Z" fill="white"/>
<path opacity="0.8" d="M320.073 99.0218C321.573 101.247 324.043 102.762 326.875 102.958V100.444C324.968 100.26 323.303 99.245 322.245 97.7644L320.073 99.0218Z" fill="white"/>
<path opacity="0.8" d="M335.554 97.9374C336.133 96.7486 336.459 95.4123 336.459 94C336.459 92.5876 336.133 91.2514 335.554 90.0625L333.381 91.32C333.752 92.1367 333.959 93.0442 333.959 94C333.959 94.9558 333.752 95.8632 333.381 96.6799L335.554 97.9374Z" fill="white"/>
<path opacity="0.3" d="M327.5 99.2084C330.377 99.2084 332.709 96.8766 332.709 94.0001C332.709 91.1236 330.377 88.7917 327.5 88.7917C324.624 88.7917 322.292 91.1236 322.292 94.0001C322.292 96.8766 324.624 99.2084 327.5 99.2084Z" fill="white"/>
<path opacity="0.8" d="M327.264 90.8137C327.342 90.5907 327.658 90.5907 327.736 90.8137C328.219 92.195 329.305 93.2812 330.686 93.7642C330.909 93.8422 330.909 94.1576 330.686 94.2356C329.305 94.7186 328.219 95.8047 327.736 97.1861C327.658 97.4091 327.342 97.4091 327.264 97.1861C326.781 95.8047 325.695 94.7186 324.314 94.2356C324.091 94.1576 324.091 93.8422 324.314 93.7643C325.695 93.2813 326.781 92.1952 327.264 90.8137Z" fill="white"/>
<path d="M350.241 101.455V86.9091H351.173V101.455H350.241ZM353.156 91.4205C353.096 90.8826 352.846 90.4659 352.406 90.1705C351.967 89.8712 351.414 89.7216 350.747 89.7216C350.27 89.7216 349.857 89.7973 349.509 89.9489C349.16 90.0966 348.889 90.3011 348.696 90.5625C348.507 90.8201 348.412 91.1136 348.412 91.4432C348.412 91.7197 348.476 91.9583 348.605 92.1591C348.738 92.3598 348.91 92.5284 349.122 92.6648C349.338 92.7973 349.569 92.9091 349.815 93C350.062 93.0871 350.298 93.1591 350.526 93.2159L351.662 93.5114C352.033 93.6023 352.414 93.7254 352.804 93.8807C353.194 94.036 353.556 94.2405 353.889 94.4943C354.223 94.7481 354.491 95.0625 354.696 95.4375C354.904 95.8125 355.009 96.2614 355.009 96.7841C355.009 97.4432 354.838 98.0284 354.497 98.5398C354.16 99.0511 353.67 99.4545 353.026 99.75C352.385 100.045 351.611 100.193 350.702 100.193C349.83 100.193 349.077 100.055 348.44 99.7784C347.804 99.5019 347.306 99.1098 346.946 98.6023C346.586 98.0909 346.387 97.4848 346.349 96.7841H348.111C348.145 97.2045 348.281 97.5549 348.52 97.8352C348.762 98.1117 349.071 98.3182 349.446 98.4545C349.825 98.5871 350.24 98.6534 350.69 98.6534C351.187 98.6534 351.628 98.5758 352.014 98.4205C352.404 98.2614 352.711 98.0417 352.935 97.7614C353.158 97.4773 353.27 97.1458 353.27 96.767C353.27 96.4223 353.171 96.1402 352.974 95.9205C352.781 95.7008 352.518 95.5189 352.185 95.375C351.855 95.2311 351.482 95.1042 351.065 94.9943L349.69 94.6193C348.759 94.3655 348.02 93.9924 347.474 93.5C346.933 93.0076 346.662 92.3561 346.662 91.5455C346.662 90.875 346.844 90.2898 347.207 89.7898C347.571 89.2898 348.063 88.9015 348.685 88.625C349.306 88.3447 350.007 88.2045 350.787 88.2045C351.575 88.2045 352.27 88.3428 352.872 88.6193C353.478 88.8958 353.955 89.2765 354.304 89.7614C354.652 90.2424 354.834 90.7955 354.849 91.4205H353.156ZM360.999 100.193C360.101 100.189 359.334 99.9527 358.697 99.483C358.061 99.0133 357.574 98.3295 357.237 97.4318C356.9 96.5341 356.732 95.4527 356.732 94.1875C356.732 92.9261 356.9 91.8485 357.237 90.9545C357.578 90.0606 358.067 89.3788 358.703 88.9091C359.343 88.4394 360.108 88.2045 360.999 88.2045C361.889 88.2045 362.652 88.4413 363.288 88.9148C363.925 89.3845 364.411 90.0663 364.749 90.9602C365.089 91.8504 365.26 92.9261 365.26 94.1875C365.26 95.4564 365.091 96.5398 364.754 97.4375C364.417 98.3314 363.93 99.0152 363.294 99.4886C362.658 99.9583 361.893 100.193 360.999 100.193ZM360.999 98.6761C361.786 98.6761 362.402 98.2917 362.845 97.5227C363.292 96.7538 363.516 95.642 363.516 94.1875C363.516 93.2216 363.413 92.4053 363.209 91.7386C363.008 91.0682 362.718 90.5606 362.339 90.2159C361.964 89.8674 361.518 89.6932 360.999 89.6932C360.214 89.6932 359.599 90.0795 359.152 90.8523C358.705 91.625 358.48 92.7367 358.476 94.1875C358.476 95.1572 358.576 95.9773 358.777 96.6477C358.982 97.3144 359.271 97.8201 359.646 98.1648C360.021 98.5057 360.472 98.6761 360.999 98.6761ZM367.996 100.108C367.685 100.108 367.418 99.9981 367.195 99.7784C366.971 99.5549 366.859 99.286 366.859 98.9716C366.859 98.661 366.971 98.3958 367.195 98.1761C367.418 97.9527 367.685 97.8409 367.996 97.8409C368.306 97.8409 368.573 97.9527 368.797 98.1761C369.02 98.3958 369.132 98.661 369.132 98.9716C369.132 99.1799 369.079 99.3712 368.973 99.5455C368.871 99.7159 368.734 99.8523 368.564 99.9545C368.393 100.057 368.204 100.108 367.996 100.108ZM375.114 88.2045C375.633 88.2083 376.144 88.303 376.648 88.4886C377.152 88.6742 377.606 88.9773 378.011 89.3977C378.42 89.8182 378.746 90.3864 378.989 91.1023C379.235 91.8144 379.36 92.7008 379.364 93.7614C379.364 94.7803 379.261 95.6875 379.057 96.483C378.852 97.2746 378.559 97.9432 378.176 98.4886C377.797 99.0341 377.337 99.4489 376.795 99.733C376.254 100.017 375.644 100.159 374.966 100.159C374.273 100.159 373.657 100.023 373.119 99.75C372.581 99.4773 372.144 99.1004 371.807 98.6193C371.47 98.1345 371.259 97.5777 371.176 96.9489H372.909C373.023 97.4489 373.254 97.8542 373.602 98.1648C373.955 98.4716 374.409 98.625 374.966 98.625C375.818 98.625 376.483 98.2538 376.96 97.5114C377.438 96.7652 377.678 95.7235 377.682 94.3864H377.591C377.394 94.7121 377.148 94.9924 376.852 95.2273C376.561 95.4621 376.233 95.6439 375.869 95.7727C375.506 95.9015 375.117 95.9659 374.705 95.9659C374.034 95.9659 373.424 95.8011 372.875 95.4716C372.326 95.142 371.888 94.6894 371.562 94.1136C371.237 93.5379 371.074 92.8807 371.074 92.142C371.074 91.4072 371.241 90.7405 371.574 90.142C371.911 89.5436 372.381 89.0701 372.983 88.7216C373.589 88.3693 374.299 88.197 375.114 88.2045ZM375.119 89.6818C374.676 89.6818 374.277 89.7917 373.92 90.0114C373.568 90.2273 373.29 90.5208 373.085 90.892C372.881 91.2595 372.778 91.6686 372.778 92.1193C372.778 92.5701 372.877 92.9792 373.074 93.3466C373.275 93.7102 373.547 94 373.892 94.2159C374.241 94.428 374.638 94.5341 375.085 94.5341C375.419 94.5341 375.729 94.4697 376.017 94.3409C376.305 94.2121 376.557 94.0341 376.773 93.8068C376.989 93.5758 377.157 93.3144 377.278 93.0227C377.4 92.7311 377.46 92.4242 377.46 92.1023C377.46 91.6742 377.358 91.2765 377.153 90.9091C376.953 90.5417 376.676 90.2462 376.324 90.0227C375.972 89.7955 375.57 89.6818 375.119 89.6818ZM385.479 100.159C384.96 100.152 384.448 100.057 383.945 99.875C383.445 99.6932 382.99 99.3902 382.581 98.9659C382.172 98.5417 381.844 97.9716 381.598 97.2557C381.356 96.5398 381.234 95.6458 381.234 94.5739C381.234 93.5587 381.335 92.6572 381.536 91.8693C381.74 91.0814 382.034 90.4167 382.416 89.875C382.799 89.3295 383.261 88.9148 383.803 88.6307C384.344 88.3466 384.952 88.2045 385.626 88.2045C386.32 88.2045 386.935 88.3409 387.473 88.6136C388.011 88.8864 388.446 89.2633 388.78 89.7443C389.117 90.2254 389.331 90.7727 389.422 91.3864H387.689C387.571 90.9015 387.339 90.5057 386.99 90.1989C386.642 89.892 386.187 89.7386 385.626 89.7386C384.774 89.7386 384.109 90.1098 383.632 90.8523C383.159 91.5947 382.92 92.6269 382.916 93.9489H383.001C383.202 93.6193 383.448 93.339 383.74 93.108C384.036 92.8731 384.365 92.6932 384.729 92.5682C385.096 92.4394 385.482 92.375 385.888 92.375C386.562 92.375 387.172 92.5398 387.717 92.8693C388.267 93.1951 388.704 93.6458 389.03 94.2216C389.356 94.7973 389.518 95.4564 389.518 96.1989C389.518 96.9413 389.35 97.6136 389.013 98.2159C388.679 98.8182 388.21 99.2955 387.604 99.6477C386.998 99.9962 386.289 100.167 385.479 100.159ZM385.473 98.6818C385.92 98.6818 386.32 98.572 386.672 98.3523C387.024 98.1326 387.303 97.8371 387.507 97.4659C387.712 97.0947 387.814 96.6799 387.814 96.2216C387.814 95.7746 387.714 95.3674 387.513 95C387.316 94.6326 387.043 94.3409 386.695 94.125C386.35 93.9091 385.956 93.8011 385.513 93.8011C385.176 93.8011 384.863 93.8655 384.575 93.9943C384.291 94.1231 384.041 94.3011 383.825 94.5284C383.609 94.7557 383.439 95.017 383.314 95.3125C383.193 95.6042 383.132 95.9129 383.132 96.2386C383.132 96.6742 383.232 97.0777 383.433 97.4489C383.638 97.8201 383.916 98.1193 384.268 98.3466C384.625 98.5701 385.026 98.6818 385.473 98.6818Z" fill="white"/>
<mask id="path-60-outside-2_40000084_4487" maskUnits="userSpaceOnUse" x="96" y="72" width="88" height="42" fill="black">
<rect fill="white" x="96" y="72" width="88" height="42"/>
<path d="M96 74H184V114H96V74Z"/>
</mask>
<path d="M96 74H184V114H96V74Z" fill="white" fill-opacity="0.05"/>
<path d="M96 74V76H184V74V72H96V74Z" fill="#F0B90B" mask="url(#path-60-outside-2_40000084_4487)"/>
<g opacity="0.3">
<path d="M106.947 90.0627C106.367 91.2516 106.042 92.5878 106.042 94.0001C106.042 95.4125 106.367 96.7486 106.947 97.9375L109.119 96.6801C108.749 95.8635 108.542 94.956 108.542 94.0001C108.542 93.0443 108.749 92.1368 109.119 91.3201L106.947 90.0627Z" fill="white"/>
<path d="M115.625 102.958C118.457 102.763 120.927 101.248 122.428 99.0221L120.255 97.7646C119.197 99.2454 117.532 100.261 115.625 100.444V102.958Z" fill="white"/>
<path d="M122.428 88.978C120.927 86.7523 118.457 85.2372 115.625 85.0417V87.5561C117.532 87.7397 119.197 88.7548 120.255 90.2356L122.428 88.978Z" fill="white"/>
</g>
<path opacity="0.8" d="M114.375 85.0417C111.543 85.2375 109.073 86.7525 107.573 88.9781L109.745 90.2355C110.803 88.7549 112.468 87.7398 114.375 87.5561V85.0417Z" fill="white"/>
<path opacity="0.8" d="M107.573 99.0218C109.073 101.247 111.543 102.762 114.375 102.958V100.444C112.468 100.26 110.803 99.245 109.745 97.7644L107.573 99.0218Z" fill="white"/>
<path opacity="0.8" d="M123.054 97.9374C123.633 96.7486 123.959 95.4123 123.959 94C123.959 92.5876 123.633 91.2514 123.054 90.0625L120.881 91.32C121.252 92.1367 121.459 93.0442 121.459 94C121.459 94.9558 121.252 95.8632 120.881 96.6799L123.054 97.9374Z" fill="white"/>
<path opacity="0.3" d="M115 99.2084C117.877 99.2084 120.209 96.8766 120.209 94.0001C120.209 91.1236 117.877 88.7917 115 88.7917C112.124 88.7917 109.792 91.1236 109.792 94.0001C109.792 96.8766 112.124 99.2084 115 99.2084Z" fill="white"/>
<path opacity="0.8" d="M114.764 90.8137C114.842 90.5907 115.158 90.5907 115.236 90.8137C115.719 92.195 116.805 93.2812 118.186 93.7642C118.409 93.8422 118.409 94.1576 118.186 94.2356C116.805 94.7186 115.719 95.8047 115.236 97.1861C115.158 97.4091 114.842 97.4091 114.764 97.1861C114.281 95.8047 113.195 94.7186 111.814 94.2356C111.591 94.1576 111.591 93.8422 111.814 93.7643C113.195 93.2813 114.281 92.1952 114.764 90.8137Z" fill="white"/>
<path d="M137.937 101.455V86.9091H138.869V101.455H137.937ZM140.852 91.4205C140.791 90.8826 140.541 90.4659 140.102 90.1705C139.662 89.8712 139.109 89.7216 138.442 89.7216C137.965 89.7216 137.552 89.7973 137.204 89.9489C136.855 90.0966 136.585 90.3011 136.391 90.5625C136.202 90.8201 136.107 91.1136 136.107 91.4432C136.107 91.7197 136.172 91.9583 136.3 92.1591C136.433 92.3598 136.605 92.5284 136.817 92.6648C137.033 92.7973 137.264 92.9091 137.511 93C137.757 93.0871 137.994 93.1591 138.221 93.2159L139.357 93.5114C139.728 93.6023 140.109 93.7254 140.499 93.8807C140.889 94.036 141.251 94.2405 141.585 94.4943C141.918 94.7481 142.187 95.0625 142.391 95.4375C142.6 95.8125 142.704 96.2614 142.704 96.7841C142.704 97.4432 142.533 98.0284 142.192 98.5398C141.855 99.0511 141.365 99.4545 140.721 99.75C140.081 100.045 139.306 100.193 138.397 100.193C137.526 100.193 136.772 100.055 136.136 99.7784C135.499 99.5019 135.001 99.1098 134.641 98.6023C134.281 98.0909 134.083 97.4848 134.045 96.7841H135.806C135.84 97.2045 135.977 97.5549 136.215 97.8352C136.458 98.1117 136.766 98.3182 137.141 98.4545C137.52 98.5871 137.935 98.6534 138.386 98.6534C138.882 98.6534 139.323 98.5758 139.71 98.4205C140.1 98.2614 140.406 98.0417 140.63 97.7614C140.853 97.4773 140.965 97.1458 140.965 96.767C140.965 96.4223 140.867 96.1402 140.67 95.9205C140.477 95.7008 140.213 95.5189 139.88 95.375C139.55 95.2311 139.177 95.1042 138.761 94.9943L137.386 94.6193C136.454 94.3655 135.715 93.9924 135.17 93.5C134.628 93.0076 134.357 92.3561 134.357 91.5455C134.357 90.875 134.539 90.2898 134.903 89.7898C135.266 89.2898 135.759 88.9015 136.38 88.625C137.001 88.3447 137.702 88.2045 138.482 88.2045C139.27 88.2045 139.965 88.3428 140.567 88.6193C141.174 88.8958 141.651 89.2765 141.999 89.7614C142.348 90.2424 142.53 90.7955 142.545 91.4205H140.852ZM149.058 88.3636V100H147.296V90.125H147.228L144.444 91.9432V90.2614L147.347 88.3636H149.058ZM152.675 100.108C152.365 100.108 152.098 99.9981 151.874 99.7784C151.651 99.5549 151.539 99.286 151.539 98.9716C151.539 98.661 151.651 98.3958 151.874 98.1761C152.098 97.9527 152.365 97.8409 152.675 97.8409C152.986 97.8409 153.253 97.9527 153.477 98.1761C153.7 98.3958 153.812 98.661 153.812 98.9716C153.812 99.1799 153.759 99.3712 153.653 99.5455C153.55 99.7159 153.414 99.8523 153.244 99.9545C153.073 100.057 152.884 100.108 152.675 100.108ZM159.694 100.193C158.796 100.189 158.029 99.9527 157.393 99.483C156.756 99.0133 156.27 98.3295 155.933 97.4318C155.595 96.5341 155.427 95.4527 155.427 94.1875C155.427 92.9261 155.595 91.8485 155.933 90.9545C156.273 90.0606 156.762 89.3788 157.398 88.9091C158.039 88.4394 158.804 88.2045 159.694 88.2045C160.584 88.2045 161.347 88.4413 161.984 88.9148C162.62 89.3845 163.107 90.0663 163.444 90.9602C163.785 91.8504 163.955 92.9261 163.955 94.1875C163.955 95.4564 163.787 96.5398 163.45 97.4375C163.112 98.3314 162.626 99.0152 161.989 99.4886C161.353 99.9583 160.588 100.193 159.694 100.193ZM159.694 98.6761C160.482 98.6761 161.097 98.2917 161.54 97.5227C161.987 96.7538 162.211 95.642 162.211 94.1875C162.211 93.2216 162.109 92.4053 161.904 91.7386C161.703 91.0682 161.414 90.5606 161.035 90.2159C160.66 89.8674 160.213 89.6932 159.694 89.6932C158.91 89.6932 158.294 90.0795 157.847 90.8523C157.4 91.625 157.175 92.7367 157.171 94.1875C157.171 95.1572 157.272 95.9773 157.472 96.6477C157.677 97.3144 157.967 97.8201 158.342 98.1648C158.717 98.5057 159.167 98.6761 159.694 98.6761ZM169.812 100.159C169.1 100.159 168.46 100.023 167.891 99.75C167.327 99.4735 166.876 99.0947 166.539 98.6136C166.202 98.1326 166.022 97.5833 165.999 96.9659H167.704C167.746 97.4659 167.967 97.8769 168.369 98.1989C168.77 98.5208 169.251 98.6818 169.812 98.6818C170.259 98.6818 170.655 98.5795 170.999 98.375C171.348 98.1667 171.621 97.8807 171.817 97.517C172.018 97.1534 172.119 96.7386 172.119 96.2727C172.119 95.7992 172.016 95.3769 171.812 95.0057C171.607 94.6345 171.325 94.3428 170.965 94.1307C170.609 93.9186 170.2 93.8106 169.738 93.8068C169.386 93.8068 169.031 93.8674 168.675 93.9886C168.319 94.1098 168.031 94.2689 167.812 94.4659L166.204 94.2273L166.857 88.3636H173.255V89.8693H168.317L167.948 93.125H168.016C168.244 92.9053 168.545 92.7216 168.92 92.5739C169.299 92.4261 169.704 92.3523 170.136 92.3523C170.844 92.3523 171.475 92.5208 172.028 92.858C172.585 93.1951 173.022 93.6553 173.34 94.2386C173.662 94.8182 173.821 95.4848 173.817 96.2386C173.821 96.9924 173.651 97.6648 173.306 98.2557C172.965 98.8466 172.492 99.3125 171.886 99.6534C171.283 99.9905 170.592 100.159 169.812 100.159Z" fill="white"/>
<rect x="116" width="48" height="48" rx="9" fill="url(#paint17_linear_40000084_4487)"/>
<rect x="116.5" y="0.5" width="47" height="47" rx="8.5" stroke="url(#paint18_linear_40000084_4487)" stroke-opacity="0.5"/>
<path d="M132.46 23.9999L129.381 27.0799L126.273 23.9999L129.38 20.8925L132.46 23.9999ZM139.987 16.4731L145.29 21.7759L148.398 18.6696L139.987 10.2856L131.576 18.6971L134.684 21.8034L139.987 16.4731ZM150.594 20.8925L147.514 23.9999L150.621 27.1074L153.728 23.9999L150.594 20.8925ZM139.987 31.5268L134.684 26.1965L131.576 29.3039L139.987 37.7142L148.398 29.3028L145.29 26.1965L139.987 31.5268ZM139.987 27.0811L143.094 23.9725L139.987 20.8936L136.88 23.9999L139.987 27.0799V27.0811Z" fill="#F0B90B"/>
<rect x="330" width="48" height="48" rx="9" fill="url(#paint19_linear_40000084_4487)"/>
<rect x="330.5" y="0.5" width="47" height="47" rx="8.5" stroke="url(#paint20_linear_40000084_4487)" stroke-opacity="0.5"/>
<g clip-path="url(#clip0_40000084_4487)">
<path d="M365.941 26.1955L356.96 12.6081C356.915 12.5422 356.813 12.5693 356.809 12.6488C356.788 12.9932 356.497 14.8291 354.428 14.8291C352.749 14.8291 351.974 14.5273 350.245 14.5273C349.647 14.5273 348.936 14.8659 348.562 15.4327L347.856 16.5006L354.614 26.7195H357.258C358.037 26.7195 358.764 27.1104 359.193 27.7604L360.806 30.2038H366.303V27.3949C366.303 26.9693 366.177 26.5513 365.941 26.1955ZM358.571 20.376C357.486 19.9369 356.641 18.0099 356.641 18.0099C358.834 18.0099 360.311 20.6236 360.311 20.6236C360.311 20.6236 359.658 20.8152 358.573 20.376H358.571Z" fill="url(#paint21_linear_40000084_4487)"/>
<path d="M357.812 35.4276H347.887C347.536 35.4279 347.191 35.3411 346.882 35.175C346.572 35.0089 346.309 34.7686 346.116 34.4757L341.892 28.0856C341.64 27.7055 341.506 27.2597 341.506 26.8038C341.506 26.348 341.64 25.9022 341.892 25.5221L346.591 18.4199H346.593L357.812 35.4295V35.4276Z" fill="url(#paint22_linear_40000084_4487)"/>
</g>
<path d="M314 114V132C314 138.627 308.627 144 302 144H121C114.373 144 109 149.373 109 156V224" stroke="white" stroke-opacity="0.1"/>
<path d="M322 114V132C322 138.627 316.627 144 310 144H150C143.373 144 138 149.373 138 156V278" stroke="white" stroke-opacity="0.1"/>
<path d="M338 114V132C338 138.627 332.627 144 326 144H204C197.373 144 192 149.373 192 156V278" stroke="white" stroke-opacity="0.1"/>
<path d="M354 114L354.587 131.6C354.813 138.381 349.377 144 342.593 144H258C251.373 144 246 149.373 246 156V278" stroke="white" stroke-opacity="0.1"/>
<path d="M370 114V132C370 138.627 364.627 144 358 144H312C305.373 144 300 149.373 300 156V278" stroke="white" stroke-opacity="0.1"/>
<path d="M386 114V132C386 138.627 380.627 144 374 144H366C359.373 144 354 149.373 354 156V278" stroke="white" stroke-opacity="0.1"/>
<path d="M330 114V132C330 138.627 324.627 144 318 144H176C169.373 144 164 149.373 164 156V224" stroke="white" stroke-opacity="0.1"/>
<path d="M346 114V132C346 138.627 340.627 144 334 144H231C224.373 144 219 149.373 219 156V224" stroke="white" stroke-opacity="0.1"/>
<path d="M362 114V132C362 138.627 356.627 144 350 144H286C279.373 144 274 149.373 274 156V224" stroke="white" stroke-opacity="0.1"/>
<path d="M378 114V132C378 138.627 372.627 144 366 144H340C333.373 144 328 149.373 328 156V224" stroke="white" stroke-opacity="0.1"/>
<path d="M394 114C394 154.5 383 154.5 383 224" stroke="white" stroke-opacity="0.1"/>
<path d="M180 114V132C180 138.627 185.373 144 192 144H371C377.627 144 383 149.373 383 156V224" stroke="white" stroke-opacity="0.1"/>
<path d="M172 114V132C172 138.627 177.373 144 184 144H342C348.627 144 354 149.373 354 156V278" stroke="white" stroke-opacity="0.1"/>
<path d="M156 114V132C156 138.627 161.373 144 168 144H288C294.627 144 300 149.373 300 156V278" stroke="white" stroke-opacity="0.1"/>
<path d="M140 114L140.613 132.4C140.829 138.868 146.135 144 152.607 144H234C240.627 144 246 149.373 246 156V278" stroke="white" stroke-opacity="0.1"/>
<path d="M124 114V132C124 138.627 129.373 144 136 144H180C186.627 144 192 149.373 192 156V278" stroke="white" stroke-opacity="0.1"/>
<path d="M108 114V132C108 138.627 113.373 144 120 144H125.089C131.682 144 137.04 149.318 137.089 155.91L138 278" stroke="white" stroke-opacity="0.1"/>
<path d="M164 114V132C164 138.627 169.373 144 176 144H316C322.627 144 328 149.373 328 156V224" stroke="white" stroke-opacity="0.1"/>
<path d="M148 114V132C148 138.627 153.373 144 160 144H262C268.627 144 274 149.373 274 156V224" stroke="white" stroke-opacity="0.1"/>
<path d="M132 114V132C132 138.627 137.373 144 144 144H207C213.627 144 219 149.373 219 156V224" stroke="white" stroke-opacity="0.1"/>
<path d="M116 114V132C116 138.627 121.373 144 128 144H152C158.627 144 164 149.373 164 156V224" stroke="white" stroke-opacity="0.1"/>
<path d="M100 114C100 156.5 109 154 109 224" stroke="white" stroke-opacity="0.1"/>
<path d="M212.988 348H211.511L215.783 336.364H217.238L221.511 348H220.033L216.556 338.205H216.465L212.988 348ZM213.533 343.455H219.488V344.705H213.533V343.455ZM224.732 336.364V348H223.323V336.364H224.732ZM232.535 348H231.058L235.33 336.364H236.785L241.058 348H239.58L236.103 338.205H236.012L232.535 348ZM233.08 343.455H239.035V344.705H233.08V343.455ZM246.211 351.455C245.563 351.455 245.006 351.371 244.54 351.205C244.075 351.042 243.686 350.826 243.376 350.557C243.069 350.292 242.825 350.008 242.643 349.705L243.711 348.955C243.832 349.114 243.986 349.295 244.171 349.5C244.357 349.708 244.611 349.888 244.933 350.04C245.258 350.195 245.684 350.273 246.211 350.273C246.915 350.273 247.497 350.102 247.955 349.761C248.414 349.42 248.643 348.886 248.643 348.159V346.386H248.529C248.431 346.545 248.29 346.742 248.109 346.977C247.931 347.208 247.673 347.415 247.336 347.597C247.003 347.775 246.552 347.864 245.984 347.864C245.279 347.864 244.647 347.697 244.086 347.364C243.529 347.03 243.088 346.545 242.762 345.909C242.44 345.273 242.279 344.5 242.279 343.591C242.279 342.697 242.436 341.919 242.751 341.256C243.065 340.589 243.503 340.074 244.063 339.71C244.624 339.343 245.272 339.159 246.006 339.159C246.575 339.159 247.025 339.254 247.359 339.443C247.696 339.629 247.953 339.841 248.131 340.08C248.313 340.314 248.453 340.508 248.552 340.659H248.688V339.273H249.984V348.25C249.984 349 249.813 349.61 249.472 350.08C249.135 350.553 248.681 350.9 248.109 351.119C247.54 351.343 246.908 351.455 246.211 351.455ZM246.165 346.659C246.703 346.659 247.158 346.536 247.529 346.29C247.9 346.044 248.183 345.689 248.376 345.227C248.569 344.765 248.665 344.212 248.665 343.568C248.665 342.939 248.571 342.384 248.381 341.903C248.192 341.422 247.912 341.045 247.54 340.773C247.169 340.5 246.711 340.364 246.165 340.364C245.597 340.364 245.124 340.508 244.745 340.795C244.37 341.083 244.088 341.47 243.898 341.955C243.713 342.439 243.62 342.977 243.62 343.568C243.62 344.174 243.715 344.71 243.904 345.176C244.097 345.638 244.381 346.002 244.756 346.267C245.135 346.528 245.605 346.659 246.165 346.659ZM256.097 348.182C255.256 348.182 254.531 347.996 253.921 347.625C253.315 347.25 252.847 346.727 252.518 346.057C252.192 345.383 252.029 344.598 252.029 343.705C252.029 342.811 252.192 342.023 252.518 341.341C252.847 340.655 253.306 340.121 253.893 339.739C254.484 339.352 255.173 339.159 255.961 339.159C256.415 339.159 256.864 339.235 257.308 339.386C257.751 339.538 258.154 339.784 258.518 340.125C258.881 340.462 259.171 340.909 259.387 341.466C259.603 342.023 259.711 342.708 259.711 343.523V344.091H252.984V342.932H258.347C258.347 342.439 258.249 342 258.052 341.614C257.859 341.227 257.582 340.922 257.222 340.699C256.866 340.475 256.446 340.364 255.961 340.364C255.427 340.364 254.965 340.496 254.575 340.761C254.188 341.023 253.891 341.364 253.683 341.784C253.474 342.205 253.37 342.655 253.37 343.136V343.909C253.37 344.568 253.484 345.127 253.711 345.585C253.942 346.04 254.262 346.386 254.671 346.625C255.08 346.86 255.556 346.977 256.097 346.977C256.45 346.977 256.768 346.928 257.052 346.83C257.34 346.727 257.588 346.576 257.796 346.375C258.004 346.17 258.165 345.917 258.279 345.614L259.575 345.977C259.438 346.417 259.209 346.803 258.887 347.136C258.565 347.466 258.167 347.723 257.694 347.909C257.22 348.091 256.688 348.182 256.097 348.182ZM263.092 342.75V348H261.751V339.273H263.046V340.636H263.16C263.364 340.193 263.675 339.837 264.092 339.568C264.508 339.295 265.046 339.159 265.705 339.159C266.296 339.159 266.813 339.28 267.256 339.523C267.7 339.761 268.044 340.125 268.29 340.614C268.537 341.098 268.66 341.712 268.66 342.455V348H267.319V342.545C267.319 341.86 267.141 341.326 266.785 340.943C266.429 340.557 265.94 340.364 265.319 340.364C264.891 340.364 264.508 340.456 264.171 340.642C263.838 340.828 263.575 341.098 263.381 341.455C263.188 341.811 263.092 342.242 263.092 342.75ZM274.906 339.273V340.409H270.383V339.273H274.906ZM271.701 337.182H273.042V345.5C273.042 345.879 273.097 346.163 273.207 346.352C273.32 346.538 273.464 346.663 273.638 346.727C273.817 346.788 274.004 346.818 274.201 346.818C274.349 346.818 274.47 346.811 274.565 346.795C274.659 346.777 274.735 346.761 274.792 346.75L275.065 347.955C274.974 347.989 274.847 348.023 274.684 348.057C274.521 348.095 274.315 348.114 274.065 348.114C273.686 348.114 273.315 348.032 272.951 347.869C272.591 347.706 272.292 347.458 272.053 347.125C271.818 346.792 271.701 346.371 271.701 345.864V337.182ZM282.948 341.227L281.744 341.568C281.668 341.367 281.556 341.172 281.408 340.983C281.264 340.79 281.067 340.631 280.817 340.506C280.567 340.381 280.247 340.318 279.857 340.318C279.323 340.318 278.878 340.441 278.522 340.688C278.17 340.93 277.994 341.239 277.994 341.614C277.994 341.947 278.115 342.21 278.357 342.403C278.6 342.597 278.978 342.758 279.494 342.886L280.789 343.205C281.569 343.394 282.151 343.684 282.533 344.074C282.916 344.46 283.107 344.958 283.107 345.568C283.107 346.068 282.963 346.515 282.675 346.909C282.391 347.303 281.994 347.614 281.482 347.841C280.971 348.068 280.376 348.182 279.698 348.182C278.808 348.182 278.071 347.989 277.488 347.602C276.905 347.216 276.535 346.652 276.38 345.909L277.653 345.591C277.774 346.061 278.003 346.413 278.34 346.648C278.681 346.883 279.126 347 279.675 347C280.3 347 280.797 346.867 281.164 346.602C281.535 346.333 281.721 346.011 281.721 345.636C281.721 345.333 281.615 345.08 281.403 344.875C281.191 344.667 280.865 344.511 280.425 344.409L278.971 344.068C278.172 343.879 277.585 343.585 277.21 343.188C276.838 342.786 276.653 342.284 276.653 341.682C276.653 341.189 276.791 340.754 277.067 340.375C277.348 339.996 277.728 339.699 278.21 339.483C278.694 339.267 279.244 339.159 279.857 339.159C280.721 339.159 281.399 339.348 281.891 339.727C282.388 340.106 282.74 340.606 282.948 341.227Z" fill="white" fill-opacity="0.5"/>
<defs>
<linearGradient id="paint0_linear_40000084_4487" x1="180.928" y1="170.422" x2="153.422" y2="197.928" gradientUnits="userSpaceOnUse">
<stop offset="0.1" stop-color="white"/>
<stop offset="0.454409" stop-color="white" stop-opacity="0"/>
<stop offset="0.55" stop-color="white" stop-opacity="0"/>
<stop offset="0.9" stop-color="white"/>
</linearGradient>
<linearGradient id="paint1_linear_40000084_4487" x1="234.928" y1="170.422" x2="207.422" y2="197.928" gradientUnits="userSpaceOnUse">
<stop offset="0.1" stop-color="white"/>
<stop offset="0.454409" stop-color="white" stop-opacity="0"/>
<stop offset="0.55" stop-color="white" stop-opacity="0"/>
<stop offset="0.9" stop-color="white"/>
</linearGradient>
<linearGradient id="paint2_linear_40000084_4487" x1="288.928" y1="170.422" x2="261.422" y2="197.928" gradientUnits="userSpaceOnUse">
<stop offset="0.1" stop-color="white"/>
<stop offset="0.454409" stop-color="white" stop-opacity="0"/>
<stop offset="0.55" stop-color="white" stop-opacity="0"/>
<stop offset="0.9" stop-color="white"/>
</linearGradient>
<linearGradient id="paint3_linear_40000084_4487" x1="342.928" y1="170.422" x2="315.422" y2="197.928" gradientUnits="userSpaceOnUse">
<stop offset="0.1" stop-color="white"/>
<stop offset="0.454409" stop-color="white" stop-opacity="0"/>
<stop offset="0.55" stop-color="white" stop-opacity="0"/>
<stop offset="0.9" stop-color="white"/>
</linearGradient>
<linearGradient id="paint4_linear_40000084_4487" x1="396.928" y1="170.422" x2="369.422" y2="197.928" gradientUnits="userSpaceOnUse">
<stop offset="0.1" stop-color="white"/>
<stop offset="0.454409" stop-color="white" stop-opacity="0"/>
<stop offset="0.55" stop-color="white" stop-opacity="0"/>
<stop offset="0.9" stop-color="white"/>
</linearGradient>
<linearGradient id="paint5_linear_40000084_4487" x1="151.928" y1="224.422" x2="124.422" y2="251.928" gradientUnits="userSpaceOnUse">
<stop offset="0.1" stop-color="white"/>
<stop offset="0.454409" stop-color="white" stop-opacity="0"/>
<stop offset="0.55" stop-color="white" stop-opacity="0"/>
<stop offset="0.9" stop-color="white"/>
</linearGradient>
<linearGradient id="paint6_linear_40000084_4487" x1="206.728" y1="224.422" x2="179.223" y2="251.928" gradientUnits="userSpaceOnUse">
<stop offset="0.1" stop-color="white"/>
<stop offset="0.454409" stop-color="white" stop-opacity="0"/>
<stop offset="0.55" stop-color="white" stop-opacity="0"/>
<stop offset="0.9" stop-color="white"/>
</linearGradient>
<linearGradient id="paint7_linear_40000084_4487" x1="261.528" y1="224.422" x2="234.023" y2="251.928" gradientUnits="userSpaceOnUse">
<stop offset="0.1" stop-color="white"/>
<stop offset="0.454409" stop-color="white" stop-opacity="0"/>
<stop offset="0.55" stop-color="white" stop-opacity="0"/>
<stop offset="0.9" stop-color="white"/>
</linearGradient>
<linearGradient id="paint8_linear_40000084_4487" x1="316.327" y1="224.422" x2="288.822" y2="251.928" gradientUnits="userSpaceOnUse">
<stop offset="0.1" stop-color="white"/>
<stop offset="0.454409" stop-color="white" stop-opacity="0"/>
<stop offset="0.55" stop-color="white" stop-opacity="0"/>
<stop offset="0.9" stop-color="white"/>
</linearGradient>
<linearGradient id="paint9_linear_40000084_4487" x1="371.127" y1="224.422" x2="343.622" y2="251.928" gradientUnits="userSpaceOnUse">
<stop offset="0.1" stop-color="white"/>
<stop offset="0.454409" stop-color="white" stop-opacity="0"/>
<stop offset="0.55" stop-color="white" stop-opacity="0"/>
<stop offset="0.9" stop-color="white"/>
</linearGradient>
<linearGradient id="paint10_linear_40000084_4487" x1="425.928" y1="224.422" x2="398.422" y2="251.928" gradientUnits="userSpaceOnUse">
<stop offset="0.1" stop-color="white"/>
<stop offset="0.454409" stop-color="white" stop-opacity="0"/>
<stop offset="0.55" stop-color="white" stop-opacity="0"/>
<stop offset="0.9" stop-color="white"/>
</linearGradient>
<linearGradient id="paint11_linear_40000084_4487" x1="180.928" y1="278.422" x2="153.422" y2="305.928" gradientUnits="userSpaceOnUse">
<stop offset="0.1" stop-color="white"/>
<stop offset="0.454409" stop-color="white" stop-opacity="0"/>
<stop offset="0.55" stop-color="white" stop-opacity="0"/>
<stop offset="0.9" stop-color="white"/>
</linearGradient>
<linearGradient id="paint12_linear_40000084_4487" x1="234.928" y1="278.422" x2="207.422" y2="305.928" gradientUnits="userSpaceOnUse">
<stop offset="0.1" stop-color="white"/>
<stop offset="0.454409" stop-color="white" stop-opacity="0"/>
<stop offset="0.55" stop-color="white" stop-opacity="0"/>
<stop offset="0.9" stop-color="white"/>
</linearGradient>
<linearGradient id="paint13_linear_40000084_4487" x1="288.928" y1="278.422" x2="261.422" y2="305.928" gradientUnits="userSpaceOnUse">
<stop offset="0.1" stop-color="white"/>
<stop offset="0.454409" stop-color="white" stop-opacity="0"/>
<stop offset="0.55" stop-color="white" stop-opacity="0"/>
<stop offset="0.9" stop-color="white"/>
</linearGradient>
<linearGradient id="paint14_linear_40000084_4487" x1="342.928" y1="278.422" x2="315.422" y2="305.928" gradientUnits="userSpaceOnUse">
<stop offset="0.1" stop-color="white"/>
<stop offset="0.454409" stop-color="white" stop-opacity="0"/>
<stop offset="0.55" stop-color="white" stop-opacity="0"/>
<stop offset="0.9" stop-color="white"/>
</linearGradient>
<linearGradient id="paint15_linear_40000084_4487" x1="396.928" y1="278.422" x2="369.422" y2="305.928" gradientUnits="userSpaceOnUse">
<stop offset="0.1" stop-color="white"/>
<stop offset="0.454409" stop-color="white" stop-opacity="0"/>
<stop offset="0.55" stop-color="white" stop-opacity="0"/>
<stop offset="0.9" stop-color="white"/>
</linearGradient>
<linearGradient id="paint16_linear_40000084_4487" x1="398" y1="94" x2="310" y2="94" gradientUnits="userSpaceOnUse">
<stop stop-color="#FCB124"/>
<stop offset="1" stop-color="#F63E58"/>
</linearGradient>
<linearGradient id="paint17_linear_40000084_4487" x1="116" y1="0" x2="164" y2="48" gradientUnits="userSpaceOnUse">
<stop stop-color="#F0B90B" stop-opacity="0.03"/>
<stop offset="1" stop-color="#F0B90B" stop-opacity="0.08"/>
</linearGradient>
<linearGradient id="paint18_linear_40000084_4487" x1="116" y1="0" x2="164" y2="48.6" gradientUnits="userSpaceOnUse">
<stop offset="0.1" stop-color="white"/>
<stop offset="0.454409" stop-color="white" stop-opacity="0"/>
<stop offset="0.55" stop-color="white" stop-opacity="0"/>
<stop offset="0.9" stop-color="white"/>
</linearGradient>
<linearGradient id="paint19_linear_40000084_4487" x1="330" y1="0" x2="378" y2="48" gradientUnits="userSpaceOnUse">
<stop stop-color="#F63E58" stop-opacity="0.03"/>
<stop offset="1" stop-color="#FCB124" stop-opacity="0.08"/>
</linearGradient>
<linearGradient id="paint20_linear_40000084_4487" x1="330" y1="0" x2="378" y2="48.6" gradientUnits="userSpaceOnUse">
<stop offset="0.1" stop-color="white"/>
<stop offset="0.454409" stop-color="white" stop-opacity="0"/>
<stop offset="0.55" stop-color="white" stop-opacity="0"/>
<stop offset="0.9" stop-color="white"/>
</linearGradient>
<linearGradient id="paint21_linear_40000084_4487" x1="357.079" y1="30.204" x2="357.079" y2="12.5715" gradientUnits="userSpaceOnUse">
<stop stop-color="#FCB124"/>
<stop offset="1" stop-color="#F63E58"/>
</linearGradient>
<linearGradient id="paint22_linear_40000084_4487" x1="349.661" y1="35.4295" x2="349.661" y2="18.416" gradientUnits="userSpaceOnUse">
<stop stop-color="#FCB124"/>
<stop offset="1" stop-color="#F63E58"/>
</linearGradient>
<clipPath id="clip0_40000084_4487">
<rect width="24.9879" height="22.8571" fill="white" transform="translate(341.506 12.5715)"/>
</clipPath>
</defs>
</svg>
