<svg width="496" height="308" viewBox="0 0 496 308" fill="none" xmlns="http://www.w3.org/2000/svg">
<path d="M142.894 10H141.485C141.402 9.5947 141.256 9.23864 141.048 8.93182C140.843 8.625 140.593 8.36742 140.298 8.15909C140.006 7.94697 139.682 7.78788 139.326 7.68182C138.97 7.57576 138.599 7.52273 138.213 7.52273C137.508 7.52273 136.87 7.70076 136.298 8.05682C135.73 8.41288 135.277 8.9375 134.94 9.63068C134.607 10.3239 134.44 11.1742 134.44 12.1818C134.44 13.1894 134.607 14.0398 134.94 14.733C135.277 15.4261 135.73 15.9508 136.298 16.3068C136.87 16.6629 137.508 16.8409 138.213 16.8409C138.599 16.8409 138.97 16.7879 139.326 16.6818C139.682 16.5758 140.006 16.4186 140.298 16.2102C140.593 15.9981 140.843 15.7386 141.048 15.4318C141.256 15.1212 141.402 14.7652 141.485 14.3636H142.894C142.788 14.9583 142.595 15.4905 142.315 15.9602C142.035 16.4299 141.686 16.8295 141.269 17.1591C140.853 17.4848 140.385 17.733 139.866 17.9034C139.351 18.0739 138.8 18.1591 138.213 18.1591C137.22 18.1591 136.338 17.9167 135.565 17.4318C134.792 16.947 134.184 16.2576 133.741 15.3636C133.298 14.4697 133.076 13.4091 133.076 12.1818C133.076 10.9545 133.298 9.89394 133.741 9C134.184 8.10606 134.792 7.41667 135.565 6.93182C136.338 6.44697 137.22 6.20455 138.213 6.20455C138.8 6.20455 139.351 6.28977 139.866 6.46023C140.385 6.63068 140.853 6.88068 141.269 7.21023C141.686 7.53598 142.035 7.93371 142.315 8.40341C142.595 8.86932 142.788 9.40151 142.894 10ZM145.171 18V6.36364H152.194V7.61364H146.581V11.5455H151.831V12.7955H146.581V16.75H152.285V18H145.171ZM155.416 6.36364L158.416 11.2045H158.507L161.507 6.36364H163.166L159.507 12.1818L163.166 18H161.507L158.507 13.25H158.416L155.416 18H153.757L157.507 12.1818L153.757 6.36364H155.416ZM171 11.2273L169.795 11.5682C169.719 11.3674 169.607 11.1723 169.46 10.983C169.316 10.7898 169.119 10.6307 168.869 10.5057C168.619 10.3807 168.299 10.3182 167.909 10.3182C167.375 10.3182 166.929 10.4413 166.573 10.6875C166.221 10.9299 166.045 11.2386 166.045 11.6136C166.045 11.947 166.166 12.2102 166.409 12.4034C166.651 12.5966 167.03 12.7576 167.545 12.8864L168.84 13.2045C169.621 13.3939 170.202 13.6837 170.585 14.0739C170.967 14.4602 171.159 14.9583 171.159 15.5682C171.159 16.0682 171.015 16.5152 170.727 16.9091C170.443 17.303 170.045 17.6136 169.534 17.8409C169.022 18.0682 168.428 18.1818 167.75 18.1818C166.859 18.1818 166.123 17.9886 165.539 17.6023C164.956 17.2159 164.587 16.6515 164.431 15.9091L165.704 15.5909C165.825 16.0606 166.054 16.4129 166.392 16.6477C166.732 16.8826 167.178 17 167.727 17C168.352 17 168.848 16.8674 169.215 16.6023C169.587 16.3333 169.772 16.0114 169.772 15.6364C169.772 15.3333 169.666 15.0795 169.454 14.875C169.242 14.6667 168.916 14.5114 168.477 14.4091L167.022 14.0682C166.223 13.8788 165.636 13.5852 165.261 13.1875C164.89 12.786 164.704 12.2841 164.704 11.6818C164.704 11.1894 164.842 10.7538 165.119 10.375C165.399 9.99621 165.78 9.69886 166.261 9.48295C166.746 9.26705 167.295 9.15909 167.909 9.15909C168.772 9.15909 169.45 9.34848 169.943 9.72727C170.439 10.1061 170.791 10.6061 171 11.2273Z" fill="white" fill-opacity="0.5"/>
<g clip-path="url(#clip0_40000084_4488)">
<rect x="96" y="48" width="48" height="48" rx="9" fill="url(#paint0_linear_40000084_4488)"/>
<rect x="96.5" y="48.5" width="47" height="47" rx="8.5" stroke="url(#paint1_linear_40000084_4488)" stroke-opacity="0.5"/>
<path d="M120.026 78.8571C116.23 78.8571 113.156 75.7883 113.156 71.9999C113.156 68.2116 116.23 65.1428 120.026 65.1428C121.647 65.1431 123.216 65.7169 124.454 66.7627C125.692 67.8085 126.521 69.2588 126.793 70.8568H133.714C133.13 63.8173 127.228 58.2856 120.026 58.2856C112.44 58.2856 106.286 64.4288 106.286 71.9999C106.286 79.571 112.44 85.7142 120.026 85.7142C127.228 85.7142 133.13 80.1825 133.714 73.1431H126.793C126.521 74.7411 125.692 76.1914 124.454 77.2372C123.216 78.2829 121.647 78.8568 120.026 78.8571Z" fill="#0052FF"/>
<rect x="160" y="48" width="48" height="48" rx="9" fill="url(#paint2_linear_40000084_4488)"/>
<rect x="160.5" y="48.5" width="47" height="47" rx="8.5" stroke="url(#paint3_linear_40000084_4488)" stroke-opacity="0.5"/>
<g clip-path="url(#clip1_40000084_4488)">
<path d="M184 64.6153C182.539 64.6153 181.112 65.0484 179.897 65.8598C178.683 66.6713 177.736 67.8246 177.177 69.174C176.619 70.5233 176.472 72.0081 176.757 73.4406C177.042 74.8731 177.745 76.1889 178.778 77.2216C179.811 78.2544 181.127 78.9577 182.559 79.2426C183.992 79.5276 185.477 79.3813 186.826 78.8224C188.175 78.2635 189.329 77.317 190.14 76.1026C190.951 74.8882 191.385 73.4605 191.385 71.9999H197.714C197.714 74.7124 196.91 77.3639 195.403 79.6192C193.896 81.8745 191.754 83.6323 189.248 84.6703C186.742 85.7083 183.985 85.9799 181.324 85.4507C178.664 84.9215 176.22 83.6154 174.302 81.6974C172.384 79.7794 171.078 77.3358 170.549 74.6754C170.02 72.0151 170.292 69.2577 171.33 66.7517C172.368 64.2457 174.125 62.1039 176.381 60.5969C178.636 59.09 181.288 58.2856 184 58.2856V64.6153Z" fill="#0068FF"/>
<path d="M191.385 71.9996H184V64.615H191.385V71.9996Z" fill="#17E29D"/>
</g>
<rect x="96.0715" y="112" width="48" height="48" rx="9" fill="url(#paint4_linear_40000084_4488)"/>
<rect x="96.5715" y="112.5" width="47" height="47" rx="8.5" stroke="url(#paint5_linear_40000084_4488)" stroke-opacity="0.5"/>
<path d="M112.531 136L109.453 139.08L106.344 136L109.451 132.893L112.531 136ZM120.058 128.473L125.361 133.776L128.47 130.67L120.058 122.286L111.647 130.697L114.755 133.803L120.058 128.473ZM130.665 132.893L127.585 136L130.693 139.107L133.799 136L130.665 132.893ZM120.058 143.527L114.755 138.197L111.647 141.304L120.058 149.714L128.47 141.303L125.361 138.197L120.058 143.527ZM120.058 139.081L123.166 135.973L120.058 132.894L116.951 136L120.058 139.08V139.081Z" fill="#F0B90B"/>
<rect x="160.072" y="112" width="48" height="48" rx="9" fill="url(#paint6_linear_40000084_4488)"/>
<rect x="160.572" y="112.5" width="47" height="47" rx="8.5" stroke="url(#paint7_linear_40000084_4488)" stroke-opacity="0.5"/>
<path d="M184.069 125.088C176.496 125.088 170.357 131.307 170.357 138.978V144.93C170.357 146.025 171.233 146.912 172.315 146.912C173.396 146.912 174.279 146.025 174.279 144.93V138.978C174.279 137.88 175.151 136.993 176.236 136.993C177.317 136.993 178.193 137.88 178.193 138.978V144.93C178.193 146.025 179.069 146.912 180.151 146.912C181.235 146.912 182.111 146.025 182.111 144.93V138.978C182.111 137.88 182.987 136.993 184.069 136.993C185.153 136.993 186.032 137.88 186.032 138.978V144.93C186.032 146.025 186.908 146.912 187.99 146.912C189.071 146.912 189.947 146.025 189.947 144.93V138.978C189.947 137.88 190.823 136.993 191.911 136.993C192.992 136.993 193.868 137.88 193.868 138.978V144.93C193.868 146.025 194.744 146.912 195.829 146.912C196.91 146.912 197.786 146.025 197.786 144.93V138.978C197.786 131.307 191.644 125.088 184.069 125.088Z" fill="#7132F5"/>
</g>
<path d="M329.228 18H325.637V6.36364H329.387C330.516 6.36364 331.482 6.59659 332.285 7.0625C333.088 7.52462 333.703 8.18939 334.131 9.05682C334.559 9.92045 334.773 10.9545 334.773 12.1591C334.773 13.3712 334.557 14.4148 334.126 15.2898C333.694 16.161 333.065 16.8314 332.239 17.3011C331.413 17.767 330.41 18 329.228 18ZM327.046 16.75H329.137C330.099 16.75 330.896 16.5644 331.529 16.1932C332.161 15.822 332.633 15.2936 332.944 14.608C333.254 13.9223 333.41 13.1061 333.41 12.1591C333.41 11.2197 333.256 10.411 332.949 9.73295C332.643 9.05114 332.184 8.52841 331.574 8.16477C330.965 7.79735 330.205 7.61364 329.296 7.61364H327.046V16.75ZM337.137 18V6.36364H344.16V7.61364H338.546V11.5455H343.796V12.7955H338.546V16.75H344.251V18H337.137ZM347.381 6.36364L350.381 11.2045H350.472L353.472 6.36364H355.131L351.472 12.1818L355.131 18H353.472L350.472 13.25H350.381L347.381 18H345.722L349.472 12.1818L345.722 6.36364H347.381ZM362.965 11.2273L361.76 11.5682C361.685 11.3674 361.573 11.1723 361.425 10.983C361.281 10.7898 361.084 10.6307 360.834 10.5057C360.584 10.3807 360.264 10.3182 359.874 10.3182C359.34 10.3182 358.895 10.4413 358.539 10.6875C358.187 10.9299 358.01 11.2386 358.01 11.6136C358.01 11.947 358.132 12.2102 358.374 12.4034C358.617 12.5966 358.995 12.7576 359.51 12.8864L360.806 13.2045C361.586 13.3939 362.168 13.6837 362.55 14.0739C362.933 14.4602 363.124 14.9583 363.124 15.5682C363.124 16.0682 362.98 16.5152 362.692 16.9091C362.408 17.303 362.01 17.6136 361.499 17.8409C360.988 18.0682 360.393 18.1818 359.715 18.1818C358.825 18.1818 358.088 17.9886 357.505 17.6023C356.921 17.2159 356.552 16.6515 356.397 15.9091L357.67 15.5909C357.791 16.0606 358.02 16.4129 358.357 16.6477C358.698 16.8826 359.143 17 359.692 17C360.317 17 360.813 16.8674 361.181 16.6023C361.552 16.3333 361.738 16.0114 361.738 15.6364C361.738 15.3333 361.632 15.0795 361.42 14.875C361.207 14.6667 360.882 14.5114 360.442 14.4091L358.988 14.0682C358.188 13.8788 357.601 13.5852 357.226 13.1875C356.855 12.786 356.67 12.2841 356.67 11.6818C356.67 11.1894 356.808 10.7538 357.084 10.375C357.365 9.99621 357.745 9.69886 358.226 9.48295C358.711 9.26705 359.26 9.15909 359.874 9.15909C360.738 9.15909 361.416 9.34848 361.908 9.72727C362.404 10.1061 362.757 10.6061 362.965 11.2273Z" fill="white" fill-opacity="0.5"/>
<g clip-path="url(#clip2_40000084_4488)">
<rect x="288.072" y="48" width="48" height="48" rx="9" fill="url(#paint8_linear_40000084_4488)"/>
<rect x="288.572" y="48.5" width="47" height="47" rx="8.5" stroke="url(#paint9_linear_40000084_4488)" stroke-opacity="0.5"/>
<path d="M319.303 63.1885C319.337 62.5943 319.418 62.2023 319.579 61.8443C319.643 61.7026 319.703 61.5867 319.712 61.5867C319.722 61.5867 319.694 61.6913 319.651 61.8191C319.533 62.1665 319.514 62.6416 319.595 63.1945C319.698 63.896 319.756 63.9972 320.496 64.7549C320.843 65.1103 321.247 65.5585 321.393 65.751L321.659 66.1009L321.393 65.8509C321.068 65.5451 320.319 64.9486 320.154 64.8634C320.043 64.8062 320.027 64.8072 319.958 64.8754C319.895 64.9382 319.882 65.0326 319.873 65.4789C319.86 66.1745 319.765 66.621 319.537 67.0674C319.413 67.3089 319.394 67.2574 319.505 66.9848C319.589 66.7813 319.597 66.6918 319.597 66.0185C319.595 64.6655 319.435 64.3402 318.495 63.783C318.257 63.6418 317.864 63.4383 317.623 63.3306C317.381 63.2229 317.189 63.1291 317.196 63.1221C317.223 63.0955 318.14 63.3637 318.509 63.5059C319.058 63.7175 319.149 63.7449 319.215 63.7194C319.26 63.7023 319.282 63.5719 319.303 63.1885Z" fill="#EB4BC2"/>
<path d="M307.705 61.2201C307.379 61.1696 307.365 61.1637 307.518 61.1401C307.812 61.095 308.506 61.1565 308.983 61.2702C310.099 61.5354 311.114 62.2147 312.198 63.4212L312.486 63.7418L312.898 63.6756C314.633 63.3967 316.398 63.6183 317.874 64.3003C318.28 64.4879 318.92 64.8614 319 64.9574C319.026 64.988 319.073 65.1849 319.104 65.395C319.214 66.1219 319.159 66.6789 318.937 67.0951C318.816 67.3216 318.809 67.3933 318.89 67.5871C318.955 67.7418 319.136 67.8562 319.316 67.8559C319.682 67.8555 320.077 67.2624 320.26 66.4372L320.333 66.1095L320.477 66.2726C321.267 67.1673 321.887 68.3875 321.994 69.256L322.021 69.4824L321.889 69.2766C321.66 68.9224 321.431 68.6812 321.137 68.4867C320.607 68.1361 320.046 68.0168 318.563 67.9386C317.223 67.868 316.464 67.7535 315.712 67.5083C314.433 67.0911 313.788 66.5355 312.268 64.5415C311.593 63.6558 311.176 63.1658 310.761 62.7711C309.817 61.8744 308.891 61.4041 307.705 61.2201Z" fill="#EB4BC2"/>
<path d="M308.337 65.5097C307.676 64.5995 307.267 63.204 307.355 62.1607L307.383 61.8379L307.533 61.8654C307.816 61.9169 308.303 62.0983 308.531 62.2369C309.157 62.6171 309.428 63.1178 309.704 64.4034C309.785 64.78 309.891 65.2061 309.94 65.3504C310.018 65.5826 310.315 66.125 310.556 66.4773C310.73 66.7309 310.614 66.8512 310.23 66.8165C309.644 66.7636 308.849 66.2153 308.337 65.5097Z" fill="#EB4BC2"/>
<path d="M318.501 72.2836C315.411 71.0396 314.323 69.9598 314.323 68.1379C314.323 67.8698 314.332 67.6504 314.344 67.6504C314.355 67.6504 314.474 67.7389 314.609 67.8471C315.236 68.3495 315.937 68.5642 317.879 68.8476C319.022 69.0143 319.666 69.149 320.259 69.3457C322.145 69.9712 323.311 71.2403 323.59 72.9691C323.67 73.4714 323.623 74.4133 323.492 74.9098C323.389 75.3019 323.073 76.0087 322.989 76.0358C322.966 76.0434 322.943 75.9543 322.937 75.8333C322.905 75.1841 322.577 74.5522 322.026 74.0788C321.4 73.5406 320.558 73.112 318.501 72.2836Z" fill="#EB4BC2"/>
<path d="M316.331 72.8003C316.293 72.5699 316.225 72.2758 316.182 72.1465L316.103 71.9116L316.25 72.076C316.452 72.3035 316.612 72.5945 316.748 72.9821C316.852 73.278 316.863 73.366 316.863 73.8468C316.862 74.3188 316.849 74.4177 316.753 74.684C316.602 75.1039 316.415 75.4017 316.101 75.7213C315.537 76.2957 314.811 76.6137 313.764 76.7456C313.582 76.7685 313.052 76.8072 312.585 76.8314C311.41 76.8925 310.636 77.0188 309.941 77.2629C309.841 77.298 309.752 77.3194 309.743 77.3103C309.715 77.2823 310.188 77.0002 310.579 76.8119C311.13 76.5463 311.679 76.4015 312.908 76.1967C313.515 76.0956 314.143 75.9729 314.302 75.9241C315.806 75.463 316.579 74.2731 316.331 72.8003Z" fill="#EB4BC2"/>
<path d="M317.748 75.316C317.337 74.4336 317.243 73.5816 317.468 72.7869C317.492 72.7021 317.531 72.6326 317.554 72.6326C317.577 72.6326 317.674 72.6849 317.769 72.7489C317.958 72.8763 318.338 73.0908 319.348 73.6418C320.61 74.3295 321.329 74.862 321.818 75.4703C322.246 76.0031 322.511 76.6099 322.639 77.3499C322.711 77.769 322.669 78.7775 322.561 79.1996C322.222 80.5304 321.434 81.5757 320.31 82.1857C320.145 82.275 319.997 82.3484 319.981 82.3487C319.965 82.3491 320.025 82.1965 320.115 82.0096C320.493 81.2191 320.536 80.4502 320.25 79.5943C320.075 79.0702 319.718 78.4308 318.997 77.35C318.159 76.0936 317.954 75.7592 317.748 75.316Z" fill="#EB4BC2"/>
<path d="M306.143 80.0774C307.29 79.1094 308.716 78.4216 310.016 78.2105C310.576 78.1195 311.509 78.1556 312.027 78.2884C312.859 78.5011 313.602 78.9776 313.989 79.5452C314.367 80.1001 314.529 80.5836 314.698 81.6594C314.764 82.0837 314.837 82.5099 314.859 82.6064C314.986 83.1639 315.232 83.6095 315.538 83.8333C316.024 84.1887 316.86 84.2108 317.682 83.89C317.822 83.8355 317.943 83.7979 317.952 83.8064C317.981 83.836 317.567 84.1133 317.275 84.2592C316.882 84.4556 316.569 84.5315 316.154 84.5315C315.4 84.5315 314.775 84.1483 314.253 83.3669C314.15 83.2131 313.92 82.7524 313.74 82.3433C313.189 81.0865 312.917 80.7037 312.277 80.2846C311.72 79.92 311.002 79.8547 310.462 80.1196C309.753 80.4675 309.555 81.3743 310.063 81.9489C310.265 82.1773 310.642 82.3744 310.95 82.4126C311.526 82.4843 312.021 82.046 312.021 81.4642C312.021 81.0864 311.876 80.8709 311.51 80.7059C311.011 80.4807 310.474 80.744 310.477 81.2129C310.478 81.4129 310.565 81.5385 310.766 81.6292C310.894 81.6873 310.897 81.692 310.792 81.6702C310.334 81.5752 310.227 81.023 310.595 80.6565C311.037 80.2164 311.952 80.4106 312.266 81.0113C312.398 81.2636 312.413 81.7661 312.298 82.0695C312.041 82.7486 311.29 83.1058 310.529 82.9114C310.011 82.7791 309.8 82.6358 309.175 81.9922C308.089 80.8736 307.667 80.6569 306.102 80.4124L305.802 80.3657L306.143 80.0774Z" fill="#EB4BC2"/>
<path fill-rule="evenodd" clip-rule="evenodd" d="M301.048 60.0575C304.675 64.4588 307.172 66.2746 307.45 66.6583C307.679 66.9751 307.593 67.2598 307.2 67.4831C306.982 67.6071 306.533 67.7329 306.308 67.7329C306.054 67.7329 305.967 67.6348 305.967 67.6348C305.819 67.495 305.736 67.5195 304.979 66.176C303.929 64.5456 303.049 63.1931 303.025 63.1704C302.97 63.1181 302.971 63.1198 304.872 66.522C305.179 67.2311 304.933 67.4914 304.933 67.5924C304.933 67.7979 304.877 67.9059 304.624 68.1886C304.201 68.66 304.013 69.1895 303.876 70.2856C303.723 71.5143 303.294 72.3822 302.102 73.8676C301.405 74.7372 301.291 74.8965 301.115 75.247C300.894 75.6883 300.833 75.9355 300.808 76.4928C300.782 77.082 300.833 77.4627 301.013 78.026C301.17 78.5193 301.335 78.8449 301.755 79.4963C302.118 80.0584 302.327 80.4762 302.327 80.6396C302.327 80.7696 302.352 80.7698 302.915 80.6428C304.26 80.3389 305.353 79.8043 305.968 79.1493C306.348 78.7438 306.438 78.5199 306.441 77.9643C306.443 77.6008 306.43 77.5248 306.331 77.3157C306.172 76.9754 305.88 76.6924 305.239 76.2538C304.398 75.6791 304.039 75.2164 303.94 74.58C303.858 74.0579 303.953 73.6896 304.418 72.7148C304.899 71.7057 305.019 71.2758 305.099 70.2587C305.151 69.6017 305.224 69.3426 305.412 69.1345C305.609 68.9176 305.787 68.8442 306.274 68.7776C307.068 68.6691 307.574 68.4635 307.99 68.0804C308.351 67.748 308.502 67.4277 308.525 66.9456L308.542 66.5801L308.341 66.3451C307.611 65.494 300.559 59.3884 300.514 59.3884C300.505 59.3884 300.745 59.6895 301.048 60.0575ZM302.737 77.1595C302.902 76.8672 302.814 76.4915 302.538 76.3079C302.278 76.1344 301.872 76.2161 301.872 76.4421C301.872 76.5111 301.911 76.5613 301.996 76.6056C302.141 76.6801 302.152 76.7638 302.038 76.935C301.922 77.1083 301.932 77.2607 302.064 77.3643C302.277 77.5312 302.579 77.4394 302.737 77.1595Z" fill="#EB4BC2"/>
<path fill-rule="evenodd" clip-rule="evenodd" d="M309.043 68.9692C308.67 69.0837 308.308 69.479 308.196 69.8934C308.127 70.1462 308.166 70.5898 308.269 70.7267C308.434 70.948 308.594 71.0063 309.028 71.0032C309.878 70.9973 310.616 70.633 310.702 70.1777C310.772 69.8044 310.448 69.2871 310.001 69.06C309.771 68.9429 309.281 68.8964 309.043 68.9692ZM310.036 69.7456C310.167 69.5595 310.11 69.3583 309.887 69.2223C309.463 68.9633 308.821 69.1776 308.821 69.5783C308.821 69.7778 309.156 69.9955 309.463 69.9955C309.667 69.9955 309.946 69.8737 310.036 69.7456Z" fill="#EB4BC2"/>
<rect x="352.072" y="48" width="48" height="48" rx="9" fill="url(#paint10_linear_40000084_4488)"/>
<rect x="352.572" y="48.5" width="47" height="47" rx="8.5" stroke="url(#paint11_linear_40000084_4488)" stroke-opacity="0.5"/>
<g clip-path="url(#clip3_40000084_4488)">
<path d="M382.929 64.8023C382.929 66.0677 379.859 67.0935 376.071 67.0935C372.284 67.0935 369.214 66.0677 369.214 64.8023C369.214 63.5368 372.284 62.511 376.071 62.511C379.859 62.511 382.929 63.5368 382.929 64.8023Z" fill="white"/>
<path d="M387.5 77.2514C387.5 75.6917 384.702 74.3506 380.692 73.7576L380.588 73.7787C379.236 74.0455 377.7 74.1964 376.071 74.1964C374.401 74.1964 372.828 74.0376 371.451 73.7576C367.441 74.3506 364.643 75.6917 364.643 77.2514C364.643 79.3604 369.76 81.0702 376.071 81.0702C382.383 81.0702 387.5 79.3604 387.5 77.2514Z" fill="white"/>
<path d="M385.214 70.3774C385.214 69.0278 382.596 67.8828 378.964 67.4783L378.87 67.4934C378.006 67.6293 377.061 67.7042 376.071 67.7042C375.046 67.7042 374.068 67.6239 373.179 67.4784C369.547 67.8827 366.928 69.0279 366.928 70.3774C366.928 72.0646 371.022 73.4324 376.071 73.4324C381.121 73.4324 385.214 72.0646 385.214 70.3774Z" fill="white"/>
</g>
<rect x="288.072" y="112" width="48" height="48" rx="9" fill="url(#paint12_linear_40000084_4488)"/>
<rect x="288.572" y="112.5" width="47" height="47" rx="8.5" stroke="url(#paint13_linear_40000084_4488)" stroke-opacity="0.5"/>
<g clip-path="url(#clip4_40000084_4488)">
<path d="M324.013 138.195L315.031 124.608C314.987 124.542 314.884 124.569 314.88 124.649C314.859 124.993 314.569 126.829 312.5 126.829C310.821 126.829 310.046 126.527 308.317 126.527C307.719 126.527 307.007 126.866 306.634 127.433L305.928 128.501L312.685 138.719H315.329C316.109 138.719 316.836 139.11 317.265 139.76L318.878 142.204H324.374V139.395C324.374 138.969 324.249 138.551 324.013 138.195ZM316.642 132.376C315.557 131.937 314.712 130.01 314.712 130.01C316.905 130.01 318.383 132.624 318.383 132.624C318.383 132.624 317.729 132.815 316.644 132.376H316.642Z" fill="url(#paint14_linear_40000084_4488)"/>
<path d="M315.884 147.428H305.959C305.608 147.428 305.262 147.341 304.953 147.175C304.644 147.009 304.381 146.769 304.187 146.476L299.964 140.086C299.712 139.705 299.578 139.26 299.578 138.804C299.578 138.348 299.712 137.902 299.964 137.522L304.663 130.42H304.665L315.884 147.43V147.428Z" fill="url(#paint15_linear_40000084_4488)"/>
</g>
<rect x="352.072" y="112" width="48" height="48" rx="9" fill="url(#paint16_linear_40000084_4488)"/>
<rect x="352.572" y="112.5" width="47" height="47" rx="8.5" stroke="url(#paint17_linear_40000084_4488)" stroke-opacity="0.5"/>
<g clip-path="url(#clip5_40000084_4488)">
<path fill-rule="evenodd" clip-rule="evenodd" d="M376.012 149.091C372.117 149.088 368.979 148.163 366.786 146.501C364.568 144.819 363.391 142.432 363.391 139.731C363.391 137.129 364.565 135.253 365.894 133.984C366.935 132.99 368.085 132.354 368.885 131.987C368.704 131.438 368.478 130.718 368.276 129.975C368.006 128.98 367.741 127.813 367.741 126.958C367.741 125.945 367.964 124.929 368.565 124.139C369.2 123.304 370.156 122.857 371.306 122.857C372.205 122.857 372.968 123.187 373.566 123.757C374.137 124.301 374.517 125.024 374.78 125.777C375.241 127.102 375.42 128.765 375.471 130.425H376.573C376.623 128.765 376.803 127.102 377.264 125.777C377.526 125.024 377.906 124.301 378.478 123.757C379.075 123.187 379.838 122.857 380.737 122.857C381.887 122.857 382.844 123.304 383.479 124.139C384.08 124.929 384.303 125.945 384.303 126.958C384.303 127.813 384.038 128.98 383.767 129.975C383.565 130.718 383.34 131.438 383.159 131.987C383.959 132.354 385.108 132.99 386.15 133.984C387.478 135.253 388.653 137.129 388.653 139.731C388.653 142.432 387.476 144.819 385.257 146.501C383.065 148.163 379.927 149.088 376.031 149.091H376.012Z" fill="#633001"/>
<path d="M371.306 123.82C369.622 123.82 368.846 125.077 368.846 126.815C368.846 128.197 369.747 130.964 370.117 132.041C370.2 132.283 370.069 132.549 369.831 132.642C368.481 133.175 364.496 135.124 364.496 139.589C364.496 144.291 368.546 147.837 376.013 147.843C376.016 147.843 376.019 147.843 376.022 147.843C376.025 147.843 376.028 147.843 376.031 147.843C383.498 147.837 387.548 144.291 387.548 139.589C387.548 135.124 383.563 133.175 382.213 132.642C381.974 132.549 381.844 132.283 381.927 132.041C382.297 130.964 383.198 128.197 383.198 126.815C383.198 125.077 382.422 123.82 380.737 123.82C378.312 123.82 377.708 127.255 377.665 130.942C377.662 131.188 377.463 131.388 377.217 131.388H374.827C374.581 131.388 374.382 131.188 374.379 130.942C374.336 127.255 373.732 123.82 371.306 123.82Z" fill="#D1884F"/>
<path d="M376.031 146.337C370.544 146.337 364.506 143.4 364.496 139.598C364.496 139.603 364.496 139.609 364.496 139.615C364.496 144.322 368.552 147.87 376.031 147.87C383.51 147.87 387.565 144.322 387.565 139.615C387.565 139.609 387.565 139.603 387.565 139.598C387.556 143.4 381.517 146.337 376.031 146.337Z" fill="#FEDC90"/>
<path d="M372.982 138.43C372.982 139.714 372.376 140.382 371.627 140.382C370.879 140.382 370.272 139.714 370.272 138.43C370.272 137.147 370.879 136.478 371.627 136.478C372.376 136.478 372.982 137.147 372.982 138.43Z" fill="#633001"/>
<path d="M381.789 138.43C381.789 139.714 381.183 140.382 380.435 140.382C379.686 140.382 379.08 139.714 379.08 138.43C379.08 137.147 379.686 136.478 380.435 136.478C381.183 136.478 381.789 137.147 381.789 138.43Z" fill="#633001"/>
</g>
</g>
<g clip-path="url(#clip6_40000084_4488)">
<rect width="304" height="116" transform="translate(96 192)" fill="url(#paint18_linear_40000084_4488)" fill-opacity="0.05"/>
<g opacity="0.3">
<path d="M211.947 210.063C211.367 211.252 211.042 212.588 211.042 214C211.042 215.412 211.367 216.749 211.947 217.937L214.119 216.68C213.749 215.863 213.542 214.956 213.542 214C213.542 213.044 213.749 212.137 214.119 211.32L211.947 210.063Z" fill="white"/>
<path d="M220.625 222.958C223.457 222.763 225.927 221.248 227.428 219.022L225.255 217.765C224.197 219.245 222.532 220.261 220.625 220.444V222.958Z" fill="white"/>
<path d="M227.428 208.978C225.927 206.752 223.457 205.237 220.625 205.042V207.556C222.532 207.74 224.197 208.755 225.255 210.236L227.428 208.978Z" fill="white"/>
</g>
<path opacity="0.8" d="M219.375 205.042C216.543 205.238 214.073 206.753 212.573 208.978L214.745 210.235C215.803 208.755 217.468 207.74 219.375 207.556V205.042Z" fill="white"/>
<path opacity="0.8" d="M212.573 219.022C214.073 221.247 216.543 222.762 219.375 222.958V220.444C217.468 220.26 215.803 219.245 214.745 217.764L212.573 219.022Z" fill="white"/>
<path opacity="0.8" d="M228.054 217.937C228.633 216.749 228.959 215.412 228.959 214C228.959 212.588 228.633 211.251 228.054 210.062L225.881 211.32C226.252 212.137 226.459 213.044 226.459 214C226.459 214.956 226.252 215.863 225.881 216.68L228.054 217.937Z" fill="white"/>
<path opacity="0.3" d="M220 219.208C222.877 219.208 225.209 216.877 225.209 214C225.209 211.124 222.877 208.792 220 208.792C217.124 208.792 214.792 211.124 214.792 214C214.792 216.877 217.124 219.208 220 219.208Z" fill="white"/>
<path opacity="0.8" d="M219.764 210.814C219.842 210.591 220.158 210.591 220.236 210.814C220.719 212.195 221.805 213.281 223.186 213.764C223.409 213.842 223.409 214.158 223.186 214.236C221.805 214.719 220.719 215.805 220.236 217.186C220.158 217.409 219.842 217.409 219.764 217.186C219.281 215.805 218.195 214.719 216.814 214.236C216.591 214.158 216.591 213.842 216.814 213.764C218.195 213.281 219.281 212.195 219.764 210.814Z" fill="white"/>
<path d="M239.044 209.912V208.818H246.681V209.912H243.479V219H242.246V209.912H239.044ZM256.751 213.909C256.751 214.983 256.557 215.911 256.169 216.693C255.781 217.475 255.249 218.079 254.573 218.503C253.897 218.927 253.125 219.139 252.256 219.139C251.388 219.139 250.616 218.927 249.94 218.503C249.263 218.079 248.731 217.475 248.344 216.693C247.956 215.911 247.762 214.983 247.762 213.909C247.762 212.835 247.956 211.907 248.344 211.125C248.731 210.343 249.263 209.74 249.94 209.315C250.616 208.891 251.388 208.679 252.256 208.679C253.125 208.679 253.897 208.891 254.573 209.315C255.249 209.74 255.781 210.343 256.169 211.125C256.557 211.907 256.751 212.835 256.751 213.909ZM255.557 213.909C255.557 213.027 255.41 212.283 255.115 211.677C254.823 211.07 254.427 210.611 253.927 210.3C253.43 209.988 252.873 209.832 252.256 209.832C251.64 209.832 251.081 209.988 250.581 210.3C250.084 210.611 249.688 211.07 249.393 211.677C249.101 212.283 248.955 213.027 248.955 213.909C248.955 214.791 249.101 215.535 249.393 216.141C249.688 216.748 250.084 217.207 250.581 217.518C251.081 217.83 251.64 217.986 252.256 217.986C252.873 217.986 253.43 217.83 253.927 217.518C254.427 217.207 254.823 216.748 255.115 216.141C255.41 215.535 255.557 214.791 255.557 213.909ZM258.824 219V208.818H260.057V213.869H260.176L264.75 208.818H266.361L262.085 213.412L266.361 219H264.869L261.329 214.267L260.057 215.699V219H258.824ZM267.957 219V208.818H274.101V209.912H269.19V213.352H273.783V214.446H269.19V217.906H274.181V219H267.957ZM284.398 208.818V219H283.204L277.656 211.006H277.557V219H276.324V208.818H277.517L283.085 216.832H283.185V208.818H284.398Z" fill="white"/>
<g opacity="0.75">
<path d="M120.256 260.273V247.545H121.071V260.273H120.256ZM123 251.364C122.941 250.86 122.699 250.469 122.275 250.19C121.85 249.912 121.33 249.773 120.713 249.773C120.263 249.773 119.868 249.846 119.53 249.991C119.195 250.137 118.934 250.338 118.745 250.593C118.559 250.848 118.466 251.138 118.466 251.463C118.466 251.735 118.531 251.969 118.66 252.164C118.793 252.356 118.962 252.517 119.167 252.646C119.373 252.772 119.588 252.877 119.814 252.96C120.039 253.039 120.246 253.104 120.435 253.153L121.469 253.432C121.734 253.501 122.029 253.598 122.354 253.72C122.682 253.843 122.995 254.01 123.294 254.222C123.595 254.431 123.844 254.7 124.039 255.028C124.235 255.356 124.333 255.759 124.333 256.236C124.333 256.786 124.189 257.283 123.9 257.727C123.615 258.171 123.198 258.524 122.647 258.786C122.1 259.048 121.436 259.179 120.654 259.179C119.925 259.179 119.293 259.061 118.76 258.826C118.229 258.591 117.812 258.263 117.507 257.842C117.205 257.421 117.034 256.932 116.995 256.375H118.267C118.301 256.759 118.43 257.078 118.655 257.33C118.884 257.578 119.172 257.764 119.52 257.886C119.872 258.006 120.249 258.065 120.654 258.065C121.124 258.065 121.547 257.989 121.922 257.837C122.296 257.681 122.593 257.465 122.811 257.19C123.03 256.912 123.14 256.587 123.14 256.216C123.14 255.878 123.045 255.603 122.856 255.391C122.667 255.179 122.419 255.006 122.11 254.874C121.802 254.741 121.469 254.625 121.111 254.526L119.858 254.168C119.063 253.939 118.433 253.612 117.969 253.188C117.505 252.764 117.273 252.209 117.273 251.523C117.273 250.953 117.427 250.455 117.735 250.031C118.047 249.604 118.465 249.272 118.988 249.037C119.515 248.798 120.104 248.679 120.753 248.679C121.409 248.679 121.993 248.797 122.503 249.032C123.014 249.264 123.418 249.582 123.716 249.987C124.018 250.391 124.177 250.85 124.194 251.364H123ZM129.76 248.818V259H128.528V250.111H128.468L125.982 251.761V250.509L128.528 248.818H129.76ZM132.962 259.08C132.717 259.08 132.506 258.992 132.331 258.816C132.155 258.64 132.067 258.43 132.067 258.185C132.067 257.939 132.155 257.729 132.331 257.553C132.506 257.378 132.717 257.29 132.962 257.29C133.207 257.29 133.418 257.378 133.594 257.553C133.769 257.729 133.857 257.939 133.857 258.185C133.857 258.347 133.816 258.496 133.733 258.632C133.653 258.768 133.546 258.877 133.41 258.96C133.277 259.04 133.128 259.08 132.962 259.08ZM138.908 259.139C138.159 259.139 137.521 258.935 136.994 258.528C136.467 258.117 136.064 257.522 135.786 256.743C135.508 255.961 135.368 255.016 135.368 253.909C135.368 252.809 135.508 251.869 135.786 251.09C136.068 250.308 136.472 249.711 136.999 249.3C137.529 248.886 138.166 248.679 138.908 248.679C139.651 248.679 140.285 248.886 140.812 249.3C141.343 249.711 141.747 250.308 142.025 251.09C142.307 251.869 142.448 252.809 142.448 253.909C142.448 255.016 142.309 255.961 142.03 256.743C141.752 257.522 141.349 258.117 140.822 258.528C140.295 258.935 139.657 259.139 138.908 259.139ZM138.908 258.045C139.651 258.045 140.227 257.687 140.638 256.972C141.049 256.256 141.255 255.235 141.255 253.909C141.255 253.027 141.16 252.277 140.971 251.657C140.786 251.037 140.517 250.565 140.166 250.24C139.818 249.915 139.399 249.753 138.908 249.753C138.172 249.753 137.597 250.116 137.183 250.842C136.769 251.564 136.562 252.587 136.562 253.909C136.562 254.791 136.654 255.54 136.84 256.156C137.026 256.773 137.292 257.242 137.64 257.563C137.992 257.885 138.414 258.045 138.908 258.045ZM147.519 259.139C146.936 259.139 146.41 259.023 145.943 258.791C145.476 258.559 145.101 258.241 144.819 257.837C144.538 257.432 144.384 256.972 144.357 256.455H145.55C145.597 256.915 145.805 257.296 146.177 257.598C146.551 257.896 146.999 258.045 147.519 258.045C147.937 258.045 148.308 257.948 148.633 257.752C148.961 257.557 149.218 257.288 149.403 256.947C149.592 256.602 149.687 256.213 149.687 255.778C149.687 255.334 149.589 254.938 149.393 254.59C149.201 254.239 148.936 253.962 148.598 253.76C148.26 253.558 147.874 253.455 147.439 253.452C147.128 253.448 146.808 253.496 146.48 253.596C146.152 253.692 145.882 253.816 145.67 253.969L144.516 253.83L145.133 248.818H150.422V249.912H146.167L145.809 252.915H145.868C146.077 252.749 146.339 252.612 146.654 252.502C146.969 252.393 147.297 252.338 147.638 252.338C148.261 252.338 148.817 252.487 149.304 252.786C149.794 253.08 150.179 253.485 150.457 253.999C150.739 254.512 150.88 255.099 150.88 255.759C150.88 256.408 150.734 256.988 150.442 257.499C150.154 258.006 149.756 258.407 149.249 258.702C148.742 258.993 148.165 259.139 147.519 259.139Z" fill="white"/>
<path d="M196.14 260.273V247.545H196.955V260.273H196.14ZM198.884 251.364C198.824 250.86 198.583 250.469 198.158 250.19C197.734 249.912 197.214 249.773 196.597 249.773C196.146 249.773 195.752 249.846 195.414 249.991C195.079 250.137 194.817 250.338 194.628 250.593C194.443 250.848 194.35 251.138 194.35 251.463C194.35 251.735 194.415 251.969 194.544 252.164C194.677 252.356 194.846 252.517 195.051 252.646C195.257 252.772 195.472 252.877 195.697 252.96C195.923 253.039 196.13 253.104 196.319 253.153L197.353 253.432C197.618 253.501 197.913 253.598 198.238 253.72C198.566 253.843 198.879 254.01 199.177 254.222C199.479 254.431 199.728 254.7 199.923 255.028C200.119 255.356 200.217 255.759 200.217 256.236C200.217 256.786 200.072 257.283 199.784 257.727C199.499 258.171 199.081 258.524 198.531 258.786C197.984 259.048 197.32 259.179 196.538 259.179C195.808 259.179 195.177 259.061 194.643 258.826C194.113 258.591 193.695 258.263 193.391 257.842C193.089 257.421 192.918 256.932 192.878 256.375H194.151C194.184 256.759 194.314 257.078 194.539 257.33C194.768 257.578 195.056 257.764 195.404 257.886C195.755 258.006 196.133 258.065 196.538 258.065C197.008 258.065 197.431 257.989 197.805 257.837C198.18 257.681 198.476 257.465 198.695 257.19C198.914 256.912 199.023 256.587 199.023 256.216C199.023 255.878 198.929 255.603 198.74 255.391C198.551 255.179 198.302 255.006 197.994 254.874C197.686 254.741 197.353 254.625 196.995 254.526L195.742 254.168C194.947 253.939 194.317 253.612 193.853 253.188C193.389 252.764 193.157 252.209 193.157 251.523C193.157 250.953 193.311 250.455 193.619 250.031C193.931 249.604 194.348 249.272 194.872 249.037C195.399 248.798 195.987 248.679 196.637 248.679C197.293 248.679 197.877 248.797 198.387 249.032C198.897 249.264 199.302 249.582 199.6 249.987C199.902 250.391 200.061 250.85 200.077 251.364H198.884ZM205.644 248.818V259H204.411V250.111H204.352L201.866 251.761V250.509L204.411 248.818H205.644ZM208.846 259.08C208.601 259.08 208.39 258.992 208.215 258.816C208.039 258.64 207.951 258.43 207.951 258.185C207.951 257.939 208.039 257.729 208.215 257.553C208.39 257.378 208.601 257.29 208.846 257.29C209.091 257.29 209.302 257.378 209.477 257.553C209.653 257.729 209.741 257.939 209.741 258.185C209.741 258.347 209.699 258.496 209.617 258.632C209.537 258.768 209.429 258.877 209.293 258.96C209.161 259.04 209.012 259.08 208.846 259.08ZM214.792 259.139C214.043 259.139 213.405 258.935 212.878 258.528C212.351 258.117 211.948 257.522 211.67 256.743C211.391 255.961 211.252 255.016 211.252 253.909C211.252 252.809 211.391 251.869 211.67 251.09C211.952 250.308 212.356 249.711 212.883 249.3C213.413 248.886 214.05 248.679 214.792 248.679C215.534 248.679 216.169 248.886 216.696 249.3C217.226 249.711 217.631 250.308 217.909 251.09C218.191 251.869 218.332 252.809 218.332 253.909C218.332 255.016 218.193 255.961 217.914 256.743C217.636 257.522 217.233 258.117 216.706 258.528C216.179 258.935 215.541 259.139 214.792 259.139ZM214.792 258.045C215.534 258.045 216.111 257.687 216.522 256.972C216.933 256.256 217.139 255.235 217.139 253.909C217.139 253.027 217.044 252.277 216.855 251.657C216.67 251.037 216.401 250.565 216.05 250.24C215.702 249.915 215.283 249.753 214.792 249.753C214.056 249.753 213.481 250.116 213.067 250.842C212.653 251.564 212.445 252.587 212.445 253.909C212.445 254.791 212.538 255.54 212.724 256.156C212.909 256.773 213.176 257.242 213.524 257.563C213.876 257.885 214.298 258.045 214.792 258.045ZM223.542 259.139C222.793 259.139 222.155 258.935 221.628 258.528C221.101 258.117 220.698 257.522 220.42 256.743C220.141 255.961 220.002 255.016 220.002 253.909C220.002 252.809 220.141 251.869 220.42 251.09C220.702 250.308 221.106 249.711 221.633 249.3C222.163 248.886 222.8 248.679 223.542 248.679C224.284 248.679 224.919 248.886 225.446 249.3C225.976 249.711 226.381 250.308 226.659 251.09C226.941 251.869 227.082 252.809 227.082 253.909C227.082 255.016 226.943 255.961 226.664 256.743C226.386 257.522 225.983 258.117 225.456 258.528C224.929 258.935 224.291 259.139 223.542 259.139ZM223.542 258.045C224.284 258.045 224.861 257.687 225.272 256.972C225.683 256.256 225.889 255.235 225.889 253.909C225.889 253.027 225.794 252.277 225.605 251.657C225.42 251.037 225.151 250.565 224.8 250.24C224.452 249.915 224.033 249.753 223.542 249.753C222.806 249.753 222.231 250.116 221.817 250.842C221.403 251.564 221.195 252.587 221.195 253.909C221.195 254.791 221.288 255.54 221.474 256.156C221.659 256.773 221.926 257.242 222.274 257.563C222.626 257.885 223.048 258.045 223.542 258.045Z" fill="white"/>
<path d="M270.779 260.273V247.545H271.595V260.273H270.779ZM273.524 251.364C273.464 250.86 273.222 250.469 272.798 250.19C272.374 249.912 271.853 249.773 271.237 249.773C270.786 249.773 270.392 249.846 270.054 249.991C269.719 250.137 269.457 250.338 269.268 250.593C269.083 250.848 268.99 251.138 268.99 251.463C268.99 251.735 269.054 251.969 269.184 252.164C269.316 252.356 269.485 252.517 269.691 252.646C269.896 252.772 270.112 252.877 270.337 252.96C270.562 253.039 270.77 253.104 270.958 253.153L271.993 253.432C272.258 253.501 272.553 253.598 272.877 253.72C273.206 253.843 273.519 254.01 273.817 254.222C274.119 254.431 274.367 254.7 274.563 255.028C274.758 255.356 274.856 255.759 274.856 256.236C274.856 256.786 274.712 257.283 274.424 257.727C274.139 258.171 273.721 258.524 273.171 258.786C272.624 259.048 271.959 259.179 271.177 259.179C270.448 259.179 269.817 259.061 269.283 258.826C268.753 258.591 268.335 258.263 268.03 257.842C267.729 257.421 267.558 256.932 267.518 256.375H268.791C268.824 256.759 268.953 257.078 269.179 257.33C269.407 257.578 269.696 257.764 270.044 257.886C270.395 258.006 270.773 258.065 271.177 258.065C271.648 258.065 272.07 257.989 272.445 257.837C272.819 257.681 273.116 257.465 273.335 257.19C273.554 256.912 273.663 256.587 273.663 256.216C273.663 255.878 273.569 255.603 273.38 255.391C273.191 255.179 272.942 255.006 272.634 254.874C272.326 254.741 271.993 254.625 271.635 254.526L270.382 254.168C269.586 253.939 268.957 253.612 268.493 253.188C268.029 252.764 267.797 252.209 267.797 251.523C267.797 250.953 267.951 250.455 268.259 250.031C268.57 249.604 268.988 249.272 269.512 249.037C270.039 248.798 270.627 248.679 271.277 248.679C271.933 248.679 272.516 248.797 273.027 249.032C273.537 249.264 273.941 249.582 274.24 249.987C274.541 250.391 274.7 250.85 274.717 251.364H273.524ZM280.025 259.139C279.276 259.139 278.638 258.935 278.111 258.528C277.584 258.117 277.182 257.522 276.903 256.743C276.625 255.961 276.486 255.016 276.486 253.909C276.486 252.809 276.625 251.869 276.903 251.09C277.185 250.308 277.589 249.711 278.116 249.3C278.647 248.886 279.283 248.679 280.025 248.679C280.768 248.679 281.403 248.886 281.93 249.3C282.46 249.711 282.864 250.308 283.143 251.09C283.424 251.869 283.565 252.809 283.565 253.909C283.565 255.016 283.426 255.961 283.148 256.743C282.869 257.522 282.466 258.117 281.939 258.528C281.412 258.935 280.774 259.139 280.025 259.139ZM280.025 258.045C280.768 258.045 281.345 257.687 281.756 256.972C282.166 256.256 282.372 255.235 282.372 253.909C282.372 253.027 282.278 252.277 282.089 251.657C281.903 251.037 281.635 250.565 281.283 250.24C280.935 249.915 280.516 249.753 280.025 249.753C279.29 249.753 278.715 250.116 278.3 250.842C277.886 251.564 277.679 252.587 277.679 253.909C277.679 254.791 277.772 255.54 277.957 256.156C278.143 256.773 278.41 257.242 278.758 257.563C279.109 257.885 279.532 258.045 280.025 258.045ZM285.974 259.08C285.729 259.08 285.518 258.992 285.343 258.816C285.167 258.64 285.079 258.43 285.079 258.185C285.079 257.939 285.167 257.729 285.343 257.553C285.518 257.378 285.729 257.29 285.974 257.29C286.219 257.29 286.43 257.378 286.605 257.553C286.781 257.729 286.869 257.939 286.869 258.185C286.869 258.347 286.827 258.496 286.744 258.632C286.665 258.768 286.557 258.877 286.421 258.96C286.289 259.04 286.14 259.08 285.974 259.08ZM292.1 248.679C292.518 248.682 292.935 248.762 293.353 248.918C293.771 249.073 294.152 249.332 294.496 249.693C294.841 250.051 295.118 250.54 295.327 251.16C295.536 251.78 295.64 252.557 295.64 253.491C295.64 254.396 295.554 255.2 295.381 255.903C295.212 256.602 294.967 257.192 294.646 257.673C294.327 258.153 293.94 258.518 293.482 258.766C293.028 259.015 292.514 259.139 291.941 259.139C291.371 259.139 290.862 259.027 290.415 258.801C289.971 258.572 289.606 258.256 289.321 257.852C289.039 257.444 288.859 256.972 288.779 256.435H289.992C290.102 256.902 290.319 257.288 290.643 257.593C290.972 257.895 291.404 258.045 291.941 258.045C292.727 258.045 293.346 257.702 293.8 257.016C294.258 256.33 294.487 255.361 294.487 254.108H294.407C294.221 254.386 294.001 254.627 293.746 254.829C293.491 255.031 293.207 255.187 292.896 255.296C292.584 255.406 292.253 255.46 291.901 255.46C291.318 255.46 290.783 255.316 290.295 255.028C289.812 254.736 289.424 254.337 289.132 253.83C288.844 253.319 288.7 252.736 288.7 252.08C288.7 251.456 288.839 250.886 289.117 250.369C289.399 249.849 289.793 249.435 290.3 249.126C290.811 248.818 291.411 248.669 292.1 248.679ZM292.1 249.773C291.683 249.773 291.306 249.877 290.972 250.086C290.64 250.291 290.377 250.57 290.181 250.921C289.989 251.269 289.893 251.655 289.893 252.08C289.893 252.504 289.986 252.89 290.171 253.238C290.36 253.583 290.617 253.858 290.942 254.063C291.27 254.265 291.643 254.366 292.06 254.366C292.375 254.366 292.669 254.305 292.94 254.183C293.212 254.057 293.449 253.886 293.651 253.67C293.857 253.452 294.018 253.205 294.134 252.93C294.25 252.651 294.308 252.361 294.308 252.06C294.308 251.662 294.211 251.289 294.019 250.941C293.83 250.593 293.568 250.311 293.234 250.096C292.902 249.88 292.524 249.773 292.1 249.773ZM300.976 259.139C300.558 259.133 300.14 259.053 299.723 258.901C299.305 258.748 298.924 258.491 298.579 258.13C298.235 257.765 297.958 257.273 297.749 256.653C297.54 256.03 297.436 255.248 297.436 254.307C297.436 253.405 297.52 252.607 297.689 251.911C297.858 251.211 298.104 250.623 298.425 250.146C298.747 249.665 299.135 249.3 299.589 249.052C300.046 248.803 300.561 248.679 301.135 248.679C301.705 248.679 302.212 248.793 302.656 249.022C303.104 249.247 303.468 249.562 303.75 249.967C304.032 250.371 304.214 250.837 304.297 251.364H303.084C302.971 250.906 302.752 250.527 302.427 250.225C302.103 249.924 301.672 249.773 301.135 249.773C300.346 249.773 299.724 250.116 299.27 250.802C298.82 251.488 298.593 252.451 298.589 253.69H298.669C298.854 253.409 299.075 253.168 299.33 252.969C299.589 252.767 299.874 252.612 300.185 252.502C300.497 252.393 300.827 252.338 301.175 252.338C301.758 252.338 302.291 252.484 302.775 252.776C303.259 253.064 303.647 253.463 303.939 253.974C304.23 254.481 304.376 255.062 304.376 255.719C304.376 256.348 304.235 256.925 303.954 257.449C303.672 257.969 303.276 258.384 302.765 258.692C302.258 258.997 301.662 259.146 300.976 259.139ZM300.976 258.045C301.393 258.045 301.768 257.941 302.099 257.732C302.434 257.523 302.698 257.243 302.89 256.892C303.085 256.541 303.183 256.15 303.183 255.719C303.183 255.298 303.089 254.915 302.9 254.57C302.714 254.222 302.457 253.946 302.129 253.74C301.804 253.535 301.433 253.432 301.015 253.432C300.701 253.432 300.407 253.495 300.135 253.621C299.864 253.743 299.625 253.912 299.42 254.128C299.217 254.343 299.058 254.59 298.942 254.869C298.826 255.144 298.768 255.434 298.768 255.739C298.768 256.143 298.863 256.521 299.052 256.872C299.244 257.223 299.506 257.507 299.837 257.722C300.172 257.938 300.551 258.045 300.976 258.045Z" fill="white"/>
<path d="M348.277 260.273V247.545H349.092V260.273H348.277ZM351.021 251.364C350.961 250.86 350.719 250.469 350.295 250.19C349.871 249.912 349.35 249.773 348.734 249.773C348.283 249.773 347.889 249.846 347.551 249.991C347.216 250.137 346.954 250.338 346.765 250.593C346.58 250.848 346.487 251.138 346.487 251.463C346.487 251.735 346.551 251.969 346.681 252.164C346.813 252.356 346.982 252.517 347.188 252.646C347.393 252.772 347.609 252.877 347.834 252.96C348.059 253.039 348.267 253.104 348.456 253.153L349.49 253.432C349.755 253.501 350.05 253.598 350.375 253.72C350.703 253.843 351.016 254.01 351.314 254.222C351.616 254.431 351.864 254.7 352.06 255.028C352.255 255.356 352.353 255.759 352.353 256.236C352.353 256.786 352.209 257.283 351.921 257.727C351.636 258.171 351.218 258.524 350.668 258.786C350.121 259.048 349.456 259.179 348.674 259.179C347.945 259.179 347.314 259.061 346.78 258.826C346.25 258.591 345.832 258.263 345.527 257.842C345.226 257.421 345.055 256.932 345.015 256.375H346.288C346.321 256.759 346.45 257.078 346.676 257.33C346.904 257.578 347.193 257.764 347.541 257.886C347.892 258.006 348.27 258.065 348.674 258.065C349.145 258.065 349.568 257.989 349.942 257.837C350.317 257.681 350.613 257.465 350.832 257.19C351.051 256.912 351.16 256.587 351.16 256.216C351.16 255.878 351.066 255.603 350.877 255.391C350.688 255.179 350.439 255.006 350.131 254.874C349.823 254.741 349.49 254.625 349.132 254.526L347.879 254.168C347.083 253.939 346.454 253.612 345.99 253.188C345.526 252.764 345.294 252.209 345.294 251.523C345.294 250.953 345.448 250.455 345.756 250.031C346.068 249.604 346.485 249.272 347.009 249.037C347.536 248.798 348.124 248.679 348.774 248.679C349.43 248.679 350.013 248.797 350.524 249.032C351.034 249.264 351.438 249.582 351.737 249.987C352.038 250.391 352.197 250.85 352.214 251.364H351.021ZM357.781 248.818V259H356.548V250.111H356.488L354.003 251.761V250.509L356.548 248.818H357.781ZM360.983 259.08C360.737 259.08 360.527 258.992 360.351 258.816C360.176 258.64 360.088 258.43 360.088 258.185C360.088 257.939 360.176 257.729 360.351 257.553C360.527 257.378 360.737 257.29 360.983 257.29C361.228 257.29 361.438 257.378 361.614 257.553C361.79 257.729 361.878 257.939 361.878 258.185C361.878 258.347 361.836 258.496 361.753 258.632C361.674 258.768 361.566 258.877 361.43 258.96C361.298 259.04 361.148 259.08 360.983 259.08ZM366.929 259.139C366.18 259.139 365.542 258.935 365.015 258.528C364.488 258.117 364.085 257.522 363.807 256.743C363.528 255.961 363.389 255.016 363.389 253.909C363.389 252.809 363.528 251.869 363.807 251.09C364.088 250.308 364.493 249.711 365.02 249.3C365.55 248.886 366.186 248.679 366.929 248.679C367.671 248.679 368.306 248.886 368.833 249.3C369.363 249.711 369.767 250.308 370.046 251.09C370.328 251.869 370.468 252.809 370.468 253.909C370.468 255.016 370.329 255.961 370.051 256.743C369.772 257.522 369.37 258.117 368.843 258.528C368.316 258.935 367.678 259.139 366.929 259.139ZM366.929 258.045C367.671 258.045 368.248 257.687 368.659 256.972C369.07 256.256 369.275 255.235 369.275 253.909C369.275 253.027 369.181 252.277 368.992 251.657C368.806 251.037 368.538 250.565 368.187 250.24C367.839 249.915 367.419 249.753 366.929 249.753C366.193 249.753 365.618 250.116 365.204 250.842C364.789 251.564 364.582 252.587 364.582 253.909C364.582 254.791 364.675 255.54 364.861 256.156C365.046 256.773 365.313 257.242 365.661 257.563C366.012 257.885 366.435 258.045 366.929 258.045ZM372.358 259V258.105L375.718 254.426C376.113 253.995 376.438 253.621 376.693 253.303C376.948 252.981 377.137 252.679 377.26 252.398C377.386 252.113 377.449 251.814 377.449 251.503C377.449 251.145 377.362 250.835 377.19 250.573C377.021 250.311 376.789 250.109 376.494 249.967C376.199 249.824 375.868 249.753 375.5 249.753C375.109 249.753 374.767 249.834 374.476 249.996C374.187 250.156 373.964 250.379 373.804 250.668C373.649 250.956 373.571 251.294 373.571 251.682H372.397C372.397 251.085 372.535 250.562 372.81 250.111C373.085 249.66 373.46 249.309 373.934 249.057C374.411 248.805 374.946 248.679 375.54 248.679C376.136 248.679 376.665 248.805 377.125 249.057C377.586 249.309 377.947 249.648 378.209 250.076C378.471 250.504 378.602 250.979 378.602 251.503C378.602 251.877 378.534 252.244 378.398 252.602C378.266 252.956 378.034 253.352 377.702 253.79C377.374 254.224 376.918 254.754 376.335 255.381L374.048 257.827V257.906H378.781V259H372.358Z" fill="white"/>
<path d="M118.779 296.273V283.545H119.595V296.273H118.779ZM121.524 287.364C121.464 286.86 121.222 286.469 120.798 286.19C120.374 285.912 119.853 285.773 119.237 285.773C118.786 285.773 118.392 285.846 118.054 285.991C117.719 286.137 117.457 286.338 117.268 286.593C117.083 286.848 116.99 287.138 116.99 287.463C116.99 287.735 117.054 287.969 117.184 288.164C117.316 288.356 117.485 288.517 117.691 288.646C117.896 288.772 118.112 288.877 118.337 288.96C118.562 289.039 118.77 289.104 118.958 289.153L119.993 289.432C120.258 289.501 120.553 289.598 120.877 289.72C121.206 289.843 121.519 290.01 121.817 290.222C122.119 290.431 122.367 290.7 122.563 291.028C122.758 291.356 122.856 291.759 122.856 292.236C122.856 292.786 122.712 293.283 122.424 293.727C122.139 294.171 121.721 294.524 121.171 294.786C120.624 295.048 119.959 295.179 119.177 295.179C118.448 295.179 117.817 295.061 117.283 294.826C116.753 294.591 116.335 294.263 116.03 293.842C115.729 293.421 115.558 292.932 115.518 292.375H116.791C116.824 292.759 116.953 293.078 117.179 293.33C117.407 293.578 117.696 293.764 118.044 293.886C118.395 294.006 118.773 294.065 119.177 294.065C119.648 294.065 120.07 293.989 120.445 293.837C120.819 293.681 121.116 293.465 121.335 293.19C121.554 292.912 121.663 292.587 121.663 292.216C121.663 291.878 121.569 291.603 121.38 291.391C121.191 291.179 120.942 291.006 120.634 290.874C120.326 290.741 119.993 290.625 119.635 290.526L118.382 290.168C117.586 289.939 116.957 289.612 116.493 289.188C116.029 288.764 115.797 288.209 115.797 287.523C115.797 286.953 115.951 286.455 116.259 286.031C116.57 285.604 116.988 285.272 117.512 285.037C118.039 284.798 118.627 284.679 119.277 284.679C119.933 284.679 120.516 284.797 121.027 285.032C121.537 285.264 121.941 285.582 122.24 285.987C122.541 286.391 122.7 286.85 122.717 287.364H121.524ZM128.025 295.139C127.276 295.139 126.638 294.935 126.111 294.528C125.584 294.117 125.182 293.522 124.903 292.743C124.625 291.961 124.486 291.016 124.486 289.909C124.486 288.809 124.625 287.869 124.903 287.09C125.185 286.308 125.589 285.711 126.116 285.3C126.647 284.886 127.283 284.679 128.025 284.679C128.768 284.679 129.403 284.886 129.93 285.3C130.46 285.711 130.864 286.308 131.143 287.09C131.424 287.869 131.565 288.809 131.565 289.909C131.565 291.016 131.426 291.961 131.148 292.743C130.869 293.522 130.466 294.117 129.939 294.528C129.412 294.935 128.774 295.139 128.025 295.139ZM128.025 294.045C128.768 294.045 129.345 293.687 129.756 292.972C130.166 292.256 130.372 291.235 130.372 289.909C130.372 289.027 130.278 288.277 130.089 287.657C129.903 287.037 129.635 286.565 129.283 286.24C128.935 285.915 128.516 285.753 128.025 285.753C127.29 285.753 126.715 286.116 126.3 286.842C125.886 287.564 125.679 288.587 125.679 289.909C125.679 290.791 125.772 291.54 125.957 292.156C126.143 292.773 126.41 293.242 126.758 293.563C127.109 293.885 127.532 294.045 128.025 294.045ZM133.974 295.08C133.729 295.08 133.518 294.992 133.343 294.816C133.167 294.64 133.079 294.43 133.079 294.185C133.079 293.939 133.167 293.729 133.343 293.553C133.518 293.378 133.729 293.29 133.974 293.29C134.219 293.29 134.43 293.378 134.605 293.553C134.781 293.729 134.869 293.939 134.869 294.185C134.869 294.347 134.827 294.496 134.744 294.632C134.665 294.768 134.557 294.877 134.421 294.96C134.289 295.04 134.14 295.08 133.974 295.08ZM140.1 284.679C140.518 284.682 140.935 284.762 141.353 284.918C141.771 285.073 142.152 285.332 142.496 285.693C142.841 286.051 143.118 286.54 143.327 287.16C143.536 287.78 143.64 288.557 143.64 289.491C143.64 290.396 143.554 291.2 143.381 291.903C143.212 292.602 142.967 293.192 142.646 293.673C142.327 294.153 141.94 294.518 141.482 294.766C141.028 295.015 140.514 295.139 139.941 295.139C139.371 295.139 138.862 295.027 138.415 294.801C137.971 294.572 137.606 294.256 137.321 293.852C137.039 293.444 136.859 292.972 136.779 292.435H137.992C138.102 292.902 138.319 293.288 138.643 293.593C138.972 293.895 139.404 294.045 139.941 294.045C140.727 294.045 141.346 293.702 141.8 293.016C142.258 292.33 142.487 291.361 142.487 290.108H142.407C142.221 290.386 142.001 290.627 141.746 290.829C141.491 291.031 141.207 291.187 140.896 291.296C140.584 291.406 140.253 291.46 139.901 291.46C139.318 291.46 138.783 291.316 138.295 291.028C137.812 290.736 137.424 290.337 137.132 289.83C136.844 289.319 136.7 288.736 136.7 288.08C136.7 287.456 136.839 286.886 137.117 286.369C137.399 285.849 137.793 285.435 138.3 285.126C138.811 284.818 139.411 284.669 140.1 284.679ZM140.1 285.773C139.683 285.773 139.306 285.877 138.972 286.086C138.64 286.291 138.377 286.57 138.181 286.921C137.989 287.269 137.893 287.655 137.893 288.08C137.893 288.504 137.986 288.89 138.171 289.238C138.36 289.583 138.617 289.858 138.942 290.063C139.27 290.265 139.643 290.366 140.06 290.366C140.375 290.366 140.669 290.305 140.94 290.183C141.212 290.057 141.449 289.886 141.651 289.67C141.857 289.452 142.018 289.205 142.134 288.93C142.25 288.651 142.308 288.361 142.308 288.06C142.308 287.662 142.211 287.289 142.019 286.941C141.83 286.593 141.568 286.311 141.234 286.096C140.902 285.88 140.524 285.773 140.1 285.773ZM148.836 284.679C149.254 284.682 149.672 284.762 150.089 284.918C150.507 285.073 150.888 285.332 151.233 285.693C151.577 286.051 151.854 286.54 152.063 287.16C152.272 287.78 152.376 288.557 152.376 289.491C152.376 290.396 152.29 291.2 152.118 291.903C151.949 292.602 151.703 293.192 151.382 293.673C151.064 294.153 150.676 294.518 150.219 294.766C149.765 295.015 149.251 295.139 148.677 295.139C148.107 295.139 147.599 295.027 147.151 294.801C146.707 294.572 146.342 294.256 146.057 293.852C145.776 293.444 145.595 292.972 145.515 292.435H146.729C146.838 292.902 147.055 293.288 147.38 293.593C147.708 293.895 148.14 294.045 148.677 294.045C149.463 294.045 150.083 293.702 150.537 293.016C150.994 292.33 151.223 291.361 151.223 290.108H151.143C150.958 290.386 150.737 290.627 150.482 290.829C150.227 291.031 149.943 291.187 149.632 291.296C149.32 291.406 148.989 291.46 148.638 291.46C148.054 291.46 147.519 291.316 147.032 291.028C146.548 290.736 146.16 290.337 145.868 289.83C145.58 289.319 145.436 288.736 145.436 288.08C145.436 287.456 145.575 286.886 145.854 286.369C146.135 285.849 146.53 285.435 147.037 285.126C147.547 284.818 148.147 284.669 148.836 284.679ZM148.836 285.773C148.419 285.773 148.043 285.877 147.708 286.086C147.376 286.291 147.113 286.57 146.917 286.921C146.725 287.269 146.629 287.655 146.629 288.08C146.629 288.504 146.722 288.89 146.907 289.238C147.096 289.583 147.353 289.858 147.678 290.063C148.006 290.265 148.379 290.366 148.797 290.366C149.112 290.366 149.405 290.305 149.677 290.183C149.948 290.057 150.185 289.886 150.388 289.67C150.593 289.452 150.754 289.205 150.87 288.93C150.986 288.651 151.044 288.361 151.044 288.06C151.044 287.662 150.948 287.289 150.756 286.941C150.567 286.593 150.305 286.311 149.97 286.096C149.639 285.88 149.261 285.773 148.836 285.773Z" fill="white"/>
<path d="M196.147 296.273V283.545H196.962V296.273H196.147ZM198.891 287.364C198.831 286.86 198.589 286.469 198.165 286.19C197.741 285.912 197.221 285.773 196.604 285.773C196.153 285.773 195.759 285.846 195.421 285.991C195.086 286.137 194.824 286.338 194.635 286.593C194.45 286.848 194.357 287.138 194.357 287.463C194.357 287.735 194.422 287.969 194.551 288.164C194.683 288.356 194.852 288.517 195.058 288.646C195.263 288.772 195.479 288.877 195.704 288.96C195.93 289.039 196.137 289.104 196.326 289.153L197.36 289.432C197.625 289.501 197.92 289.598 198.245 289.72C198.573 289.843 198.886 290.01 199.184 290.222C199.486 290.431 199.734 290.7 199.93 291.028C200.126 291.356 200.223 291.759 200.223 292.236C200.223 292.786 200.079 293.283 199.791 293.727C199.506 294.171 199.088 294.524 198.538 294.786C197.991 295.048 197.327 295.179 196.544 295.179C195.815 295.179 195.184 295.061 194.65 294.826C194.12 294.591 193.702 294.263 193.397 293.842C193.096 293.421 192.925 292.932 192.885 292.375H194.158C194.191 292.759 194.32 293.078 194.546 293.33C194.775 293.578 195.063 293.764 195.411 293.886C195.762 294.006 196.14 294.065 196.544 294.065C197.015 294.065 197.438 293.989 197.812 293.837C198.187 293.681 198.483 293.465 198.702 293.19C198.921 292.912 199.03 292.587 199.03 292.216C199.03 291.878 198.936 291.603 198.747 291.391C198.558 291.179 198.309 291.006 198.001 290.874C197.693 290.741 197.36 290.625 197.002 290.526L195.749 290.168C194.953 289.939 194.324 289.612 193.86 289.188C193.396 288.764 193.164 288.209 193.164 287.523C193.164 286.953 193.318 286.455 193.626 286.031C193.938 285.604 194.355 285.272 194.879 285.037C195.406 284.798 195.994 284.679 196.644 284.679C197.3 284.679 197.883 284.797 198.394 285.032C198.904 285.264 199.309 285.582 199.607 285.987C199.908 286.391 200.068 286.85 200.084 287.364H198.891ZM205.651 284.818V295H204.418V286.111H204.358L201.873 287.761V286.509L204.418 284.818H205.651ZM208.853 295.08C208.608 295.08 208.397 294.992 208.221 294.816C208.046 294.64 207.958 294.43 207.958 294.185C207.958 293.939 208.046 293.729 208.221 293.553C208.397 293.378 208.608 293.29 208.853 293.29C209.098 293.29 209.309 293.378 209.484 293.553C209.66 293.729 209.748 293.939 209.748 294.185C209.748 294.347 209.706 294.496 209.623 294.632C209.544 294.768 209.436 294.877 209.3 294.96C209.168 295.04 209.019 295.08 208.853 295.08ZM214.799 295.139C214.05 295.139 213.412 294.935 212.885 294.528C212.358 294.117 211.955 293.522 211.677 292.743C211.398 291.961 211.259 291.016 211.259 289.909C211.259 288.809 211.398 287.869 211.677 287.09C211.958 286.308 212.363 285.711 212.89 285.3C213.42 284.886 214.056 284.679 214.799 284.679C215.541 284.679 216.176 284.886 216.703 285.3C217.233 285.711 217.638 286.308 217.916 287.09C218.198 287.869 218.339 288.809 218.339 289.909C218.339 291.016 218.199 291.961 217.921 292.743C217.643 293.522 217.24 294.117 216.713 294.528C216.186 294.935 215.548 295.139 214.799 295.139ZM214.799 294.045C215.541 294.045 216.118 293.687 216.529 292.972C216.94 292.256 217.145 291.235 217.145 289.909C217.145 289.027 217.051 288.277 216.862 287.657C216.676 287.037 216.408 286.565 216.057 286.24C215.709 285.915 215.289 285.753 214.799 285.753C214.063 285.753 213.488 286.116 213.074 286.842C212.659 287.564 212.452 288.587 212.452 289.909C212.452 290.791 212.545 291.54 212.731 292.156C212.916 292.773 213.183 293.242 213.531 293.563C213.882 293.885 214.305 294.045 214.799 294.045ZM223.608 295.139C223.191 295.133 222.773 295.053 222.356 294.901C221.938 294.748 221.557 294.491 221.212 294.13C220.867 293.765 220.591 293.273 220.382 292.653C220.173 292.03 220.069 291.248 220.069 290.307C220.069 289.405 220.153 288.607 220.322 287.911C220.491 287.211 220.737 286.623 221.058 286.146C221.38 285.665 221.767 285.3 222.221 285.052C222.679 284.803 223.194 284.679 223.768 284.679C224.338 284.679 224.845 284.793 225.289 285.022C225.736 285.247 226.101 285.562 226.383 285.967C226.664 286.371 226.847 286.837 226.93 287.364H225.716C225.604 286.906 225.385 286.527 225.06 286.225C224.735 285.924 224.305 285.773 223.768 285.773C222.979 285.773 222.357 286.116 221.903 286.802C221.452 287.488 221.225 288.451 221.222 289.69H221.302C221.487 289.409 221.708 289.168 221.963 288.969C222.221 288.767 222.506 288.612 222.818 288.502C223.13 288.393 223.459 288.338 223.807 288.338C224.391 288.338 224.924 288.484 225.408 288.776C225.892 289.064 226.28 289.463 226.572 289.974C226.863 290.481 227.009 291.062 227.009 291.719C227.009 292.348 226.868 292.925 226.586 293.449C226.305 293.969 225.909 294.384 225.398 294.692C224.891 294.997 224.295 295.146 223.608 295.139ZM223.608 294.045C224.026 294.045 224.401 293.941 224.732 293.732C225.067 293.523 225.33 293.243 225.523 292.892C225.718 292.541 225.816 292.15 225.816 291.719C225.816 291.298 225.721 290.915 225.532 290.57C225.347 290.222 225.09 289.946 224.762 289.74C224.437 289.535 224.066 289.432 223.648 289.432C223.333 289.432 223.04 289.495 222.768 289.621C222.497 289.743 222.258 289.912 222.052 290.128C221.85 290.343 221.691 290.59 221.575 290.869C221.459 291.144 221.401 291.434 221.401 291.739C221.401 292.143 221.496 292.521 221.684 292.872C221.877 293.223 222.139 293.507 222.47 293.722C222.805 293.938 223.184 294.045 223.608 294.045Z" fill="white"/>
<path d="M270.691 296.273V283.545H271.506V296.273H270.691ZM273.435 287.364C273.375 286.86 273.133 286.469 272.709 286.19C272.285 285.912 271.764 285.773 271.148 285.773C270.697 285.773 270.303 285.846 269.965 285.991C269.63 286.137 269.368 286.338 269.179 286.593C268.994 286.848 268.901 287.138 268.901 287.463C268.901 287.735 268.965 287.969 269.095 288.164C269.227 288.356 269.396 288.517 269.602 288.646C269.807 288.772 270.023 288.877 270.248 288.96C270.474 289.039 270.681 289.104 270.87 289.153L271.904 289.432C272.169 289.501 272.464 289.598 272.789 289.72C273.117 289.843 273.43 290.01 273.728 290.222C274.03 290.431 274.278 290.7 274.474 291.028C274.67 291.356 274.767 291.759 274.767 292.236C274.767 292.786 274.623 293.283 274.335 293.727C274.05 294.171 273.632 294.524 273.082 294.786C272.535 295.048 271.871 295.179 271.088 295.179C270.359 295.179 269.728 295.061 269.194 294.826C268.664 294.591 268.246 294.263 267.941 293.842C267.64 293.421 267.469 292.932 267.429 292.375H268.702C268.735 292.759 268.864 293.078 269.09 293.33C269.318 293.578 269.607 293.764 269.955 293.886C270.306 294.006 270.684 294.065 271.088 294.065C271.559 294.065 271.982 293.989 272.356 293.837C272.731 293.681 273.027 293.465 273.246 293.19C273.465 292.912 273.574 292.587 273.574 292.216C273.574 291.878 273.48 291.603 273.291 291.391C273.102 291.179 272.853 291.006 272.545 290.874C272.237 290.741 271.904 290.625 271.546 290.526L270.293 290.168C269.497 289.939 268.868 289.612 268.404 289.188C267.94 288.764 267.708 288.209 267.708 287.523C267.708 286.953 267.862 286.455 268.17 286.031C268.482 285.604 268.899 285.272 269.423 285.037C269.95 284.798 270.538 284.679 271.188 284.679C271.844 284.679 272.427 284.797 272.938 285.032C273.448 285.264 273.853 285.582 274.151 285.987C274.452 286.391 274.612 286.85 274.628 287.364H273.435ZM279.937 295.139C279.187 295.139 278.549 294.935 278.022 294.528C277.495 294.117 277.093 293.522 276.814 292.743C276.536 291.961 276.397 291.016 276.397 289.909C276.397 288.809 276.536 287.869 276.814 287.09C277.096 286.308 277.5 285.711 278.027 285.3C278.558 284.886 279.194 284.679 279.937 284.679C280.679 284.679 281.314 284.886 281.841 285.3C282.371 285.711 282.775 286.308 283.054 287.09C283.335 287.869 283.476 288.809 283.476 289.909C283.476 291.016 283.337 291.961 283.059 292.743C282.78 293.522 282.378 294.117 281.851 294.528C281.324 294.935 280.686 295.139 279.937 295.139ZM279.937 294.045C280.679 294.045 281.256 293.687 281.667 292.972C282.078 292.256 282.283 291.235 282.283 289.909C282.283 289.027 282.189 288.277 282 287.657C281.814 287.037 281.546 286.565 281.194 286.24C280.846 285.915 280.427 285.753 279.937 285.753C279.201 285.753 278.626 286.116 278.211 286.842C277.797 287.564 277.59 288.587 277.59 289.909C277.59 290.791 277.683 291.54 277.868 292.156C278.054 292.773 278.321 293.242 278.669 293.563C279.02 293.885 279.443 294.045 279.937 294.045ZM285.885 295.08C285.64 295.08 285.429 294.992 285.254 294.816C285.078 294.64 284.99 294.43 284.99 294.185C284.99 293.939 285.078 293.729 285.254 293.553C285.429 293.378 285.64 293.29 285.885 293.29C286.13 293.29 286.341 293.378 286.516 293.553C286.692 293.729 286.78 293.939 286.78 294.185C286.78 294.347 286.738 294.496 286.656 294.632C286.576 294.768 286.468 294.877 286.332 294.96C286.2 295.04 286.051 295.08 285.885 295.08ZM292.011 284.679C292.429 284.682 292.847 284.762 293.264 284.918C293.682 285.073 294.063 285.332 294.408 285.693C294.752 286.051 295.029 286.54 295.238 287.16C295.447 287.78 295.551 288.557 295.551 289.491C295.551 290.396 295.465 291.2 295.293 291.903C295.123 292.602 294.878 293.192 294.557 293.673C294.239 294.153 293.851 294.518 293.393 294.766C292.939 295.015 292.426 295.139 291.852 295.139C291.282 295.139 290.773 295.027 290.326 294.801C289.882 294.572 289.517 294.256 289.232 293.852C288.95 293.444 288.77 292.972 288.69 292.435H289.903C290.013 292.902 290.23 293.288 290.555 293.593C290.883 293.895 291.315 294.045 291.852 294.045C292.638 294.045 293.257 293.702 293.712 293.016C294.169 292.33 294.398 291.361 294.398 290.108H294.318C294.132 290.386 293.912 290.627 293.657 290.829C293.402 291.031 293.118 291.187 292.807 291.296C292.495 291.406 292.164 291.46 291.812 291.46C291.229 291.46 290.694 291.316 290.207 291.028C289.723 290.736 289.335 290.337 289.043 289.83C288.755 289.319 288.611 288.736 288.611 288.08C288.611 287.456 288.75 286.886 289.028 286.369C289.31 285.849 289.704 285.435 290.212 285.126C290.722 284.818 291.322 284.669 292.011 284.679ZM292.011 285.773C291.594 285.773 291.217 285.877 290.883 286.086C290.551 286.291 290.288 286.57 290.092 286.921C289.9 287.269 289.804 287.655 289.804 288.08C289.804 288.504 289.897 288.89 290.082 289.238C290.271 289.583 290.528 289.858 290.853 290.063C291.181 290.265 291.554 290.366 291.972 290.366C292.286 290.366 292.58 290.305 292.851 290.183C293.123 290.057 293.36 289.886 293.562 289.67C293.768 289.452 293.929 289.205 294.045 288.93C294.161 288.651 294.219 288.361 294.219 288.06C294.219 287.662 294.123 287.289 293.93 286.941C293.741 286.593 293.48 286.311 293.145 286.096C292.813 285.88 292.436 285.773 292.011 285.773ZM300.946 295.139C300.29 295.139 299.705 295.027 299.191 294.801C298.681 294.576 298.275 294.263 297.973 293.862C297.675 293.457 297.513 292.988 297.486 292.455H298.739C298.766 292.783 298.878 293.066 299.077 293.305C299.276 293.54 299.536 293.722 299.858 293.852C300.179 293.981 300.535 294.045 300.927 294.045C301.364 294.045 301.752 293.969 302.09 293.817C302.428 293.664 302.693 293.452 302.885 293.18C303.078 292.909 303.174 292.594 303.174 292.236C303.174 291.861 303.081 291.531 302.895 291.246C302.71 290.958 302.438 290.733 302.08 290.57C301.722 290.408 301.285 290.327 300.767 290.327H299.952V289.233H300.767C301.172 289.233 301.526 289.16 301.831 289.014C302.14 288.868 302.38 288.663 302.552 288.398C302.728 288.133 302.816 287.821 302.816 287.463C302.816 287.118 302.74 286.818 302.587 286.563C302.435 286.308 302.219 286.109 301.941 285.967C301.666 285.824 301.341 285.753 300.966 285.753C300.615 285.753 300.284 285.817 299.972 285.947C299.664 286.073 299.412 286.257 299.216 286.499C299.021 286.737 298.915 287.026 298.898 287.364H297.705C297.725 286.83 297.886 286.363 298.187 285.962C298.489 285.557 298.883 285.242 299.37 285.017C299.861 284.792 300.4 284.679 300.986 284.679C301.616 284.679 302.156 284.807 302.607 285.062C303.058 285.314 303.404 285.647 303.646 286.061C303.888 286.475 304.009 286.923 304.009 287.403C304.009 287.977 303.858 288.466 303.557 288.87C303.258 289.274 302.852 289.554 302.339 289.71V289.79C302.982 289.896 303.484 290.169 303.845 290.61C304.206 291.048 304.387 291.589 304.387 292.236C304.387 292.789 304.236 293.286 303.934 293.727C303.636 294.165 303.228 294.509 302.711 294.761C302.194 295.013 301.606 295.139 300.946 295.139Z" fill="white"/>
<path d="M349.261 296.273V283.545H350.076V296.273H349.261ZM352.005 287.364C351.946 286.86 351.704 286.469 351.279 286.19C350.855 285.912 350.335 285.773 349.718 285.773C349.268 285.773 348.873 285.846 348.535 285.991C348.2 286.137 347.938 286.338 347.75 286.593C347.564 286.848 347.471 287.138 347.471 287.463C347.471 287.735 347.536 287.969 347.665 288.164C347.798 288.356 347.967 288.517 348.172 288.646C348.378 288.772 348.593 288.877 348.818 288.96C349.044 289.039 349.251 289.104 349.44 289.153L350.474 289.432C350.739 289.501 351.034 289.598 351.359 289.72C351.687 289.843 352 290.01 352.299 290.222C352.6 290.431 352.849 290.7 353.044 291.028C353.24 291.356 353.338 291.759 353.338 292.236C353.338 292.786 353.193 293.283 352.905 293.727C352.62 294.171 352.202 294.524 351.652 294.786C351.105 295.048 350.441 295.179 349.659 295.179C348.929 295.179 348.298 295.061 347.764 294.826C347.234 294.591 346.817 294.263 346.512 293.842C346.21 293.421 346.039 292.932 346 292.375H347.272C347.305 292.759 347.435 293.078 347.66 293.33C347.889 293.578 348.177 293.764 348.525 293.886C348.876 294.006 349.254 294.065 349.659 294.065C350.129 294.065 350.552 293.989 350.926 293.837C351.301 293.681 351.598 293.465 351.816 293.19C352.035 292.912 352.144 292.587 352.144 292.216C352.144 291.878 352.05 291.603 351.861 291.391C351.672 291.179 351.424 291.006 351.115 290.874C350.807 290.741 350.474 290.625 350.116 290.526L348.863 290.168C348.068 289.939 347.438 289.612 346.974 289.188C346.51 288.764 346.278 288.209 346.278 287.523C346.278 286.953 346.432 286.455 346.74 286.031C347.052 285.604 347.469 285.272 347.993 285.037C348.52 284.798 349.108 284.679 349.758 284.679C350.414 284.679 350.998 284.797 351.508 285.032C352.018 285.264 352.423 285.582 352.721 285.987C353.023 286.391 353.182 286.85 353.198 287.364H352.005ZM358.765 284.818V295H357.532V286.111H357.473L354.987 287.761V286.509L357.532 284.818H358.765ZM361.967 295.08C361.722 295.08 361.511 294.992 361.336 294.816C361.16 294.64 361.072 294.43 361.072 294.185C361.072 293.939 361.16 293.729 361.336 293.553C361.511 293.378 361.722 293.29 361.967 293.29C362.212 293.29 362.423 293.378 362.598 293.553C362.774 293.729 362.862 293.939 362.862 294.185C362.862 294.347 362.821 294.496 362.738 294.632C362.658 294.768 362.55 294.877 362.415 294.96C362.282 295.04 362.133 295.08 361.967 295.08ZM367.913 295.139C367.164 295.139 366.526 294.935 365.999 294.528C365.472 294.117 365.069 293.522 364.791 292.743C364.513 291.961 364.373 291.016 364.373 289.909C364.373 288.809 364.513 287.869 364.791 287.09C365.073 286.308 365.477 285.711 366.004 285.3C366.534 284.886 367.171 284.679 367.913 284.679C368.656 284.679 369.29 284.886 369.817 285.3C370.348 285.711 370.752 286.308 371.03 287.09C371.312 287.869 371.453 288.809 371.453 289.909C371.453 291.016 371.314 291.961 371.035 292.743C370.757 293.522 370.354 294.117 369.827 294.528C369.3 294.935 368.662 295.139 367.913 295.139ZM367.913 294.045C368.656 294.045 369.232 293.687 369.643 292.972C370.054 292.256 370.26 291.235 370.26 289.909C370.26 289.027 370.165 288.277 369.976 287.657C369.791 287.037 369.522 286.565 369.171 286.24C368.823 285.915 368.404 285.753 367.913 285.753C367.177 285.753 366.602 286.116 366.188 286.842C365.774 287.564 365.566 288.587 365.566 289.909C365.566 290.791 365.659 291.54 365.845 292.156C366.031 292.773 366.297 293.242 366.645 293.563C366.997 293.885 367.419 294.045 367.913 294.045ZM376.922 284.818V295H375.689V286.111H375.629L373.143 287.761V286.509L375.689 284.818H376.922Z" fill="white"/>
</g>
</g>
<defs>
<linearGradient id="paint0_linear_40000084_4488" x1="96" y1="48" x2="144" y2="96" gradientUnits="userSpaceOnUse">
<stop stop-color="#0052FF" stop-opacity="0.03"/>
<stop offset="1" stop-color="#0052FF" stop-opacity="0.08"/>
</linearGradient>
<linearGradient id="paint1_linear_40000084_4488" x1="96" y1="48" x2="144" y2="96.6" gradientUnits="userSpaceOnUse">
<stop offset="0.1" stop-color="white"/>
<stop offset="0.454409" stop-color="white" stop-opacity="0"/>
<stop offset="0.55" stop-color="white" stop-opacity="0"/>
<stop offset="0.9" stop-color="white"/>
</linearGradient>
<linearGradient id="paint2_linear_40000084_4488" x1="160" y1="48" x2="208" y2="96" gradientUnits="userSpaceOnUse">
<stop stop-color="#17E29D" stop-opacity="0.03"/>
<stop offset="1" stop-color="#0068FF" stop-opacity="0.08"/>
</linearGradient>
<linearGradient id="paint3_linear_40000084_4488" x1="160" y1="48" x2="208" y2="96.6" gradientUnits="userSpaceOnUse">
<stop offset="0.1" stop-color="white"/>
<stop offset="0.454409" stop-color="white" stop-opacity="0"/>
<stop offset="0.55" stop-color="white" stop-opacity="0"/>
<stop offset="0.9" stop-color="white"/>
</linearGradient>
<linearGradient id="paint4_linear_40000084_4488" x1="96.0715" y1="112" x2="144.072" y2="160" gradientUnits="userSpaceOnUse">
<stop stop-color="#F0B90B" stop-opacity="0.03"/>
<stop offset="1" stop-color="#F0B90B" stop-opacity="0.08"/>
</linearGradient>
<linearGradient id="paint5_linear_40000084_4488" x1="96.0715" y1="112" x2="144.072" y2="160.6" gradientUnits="userSpaceOnUse">
<stop offset="0.1" stop-color="white"/>
<stop offset="0.454409" stop-color="white" stop-opacity="0"/>
<stop offset="0.55" stop-color="white" stop-opacity="0"/>
<stop offset="0.9" stop-color="white"/>
</linearGradient>
<linearGradient id="paint6_linear_40000084_4488" x1="160.072" y1="112" x2="208.072" y2="160" gradientUnits="userSpaceOnUse">
<stop stop-color="#7132F5" stop-opacity="0.03"/>
<stop offset="1" stop-color="#7132F5" stop-opacity="0.08"/>
</linearGradient>
<linearGradient id="paint7_linear_40000084_4488" x1="160.072" y1="112" x2="208.072" y2="160.6" gradientUnits="userSpaceOnUse">
<stop offset="0.1" stop-color="white"/>
<stop offset="0.454409" stop-color="white" stop-opacity="0"/>
<stop offset="0.55" stop-color="white" stop-opacity="0"/>
<stop offset="0.9" stop-color="white"/>
</linearGradient>
<linearGradient id="paint8_linear_40000084_4488" x1="288.072" y1="48" x2="336.072" y2="96" gradientUnits="userSpaceOnUse">
<stop stop-color="#EB4BC2" stop-opacity="0.03"/>
<stop offset="1" stop-color="#EB4BC2" stop-opacity="0.08"/>
</linearGradient>
<linearGradient id="paint9_linear_40000084_4488" x1="288.072" y1="48" x2="336.072" y2="96.6" gradientUnits="userSpaceOnUse">
<stop offset="0.1" stop-color="white"/>
<stop offset="0.454409" stop-color="white" stop-opacity="0"/>
<stop offset="0.55" stop-color="white" stop-opacity="0"/>
<stop offset="0.9" stop-color="white"/>
</linearGradient>
<linearGradient id="paint10_linear_40000084_4488" x1="352.072" y1="48" x2="400.072" y2="96" gradientUnits="userSpaceOnUse">
<stop stop-color="white" stop-opacity="0.03"/>
<stop offset="1" stop-color="white" stop-opacity="0.08"/>
</linearGradient>
<linearGradient id="paint11_linear_40000084_4488" x1="352.072" y1="48" x2="400.072" y2="96.6" gradientUnits="userSpaceOnUse">
<stop offset="0.1" stop-color="white"/>
<stop offset="0.454409" stop-color="white" stop-opacity="0"/>
<stop offset="0.55" stop-color="white" stop-opacity="0"/>
<stop offset="0.9" stop-color="white"/>
</linearGradient>
<linearGradient id="paint12_linear_40000084_4488" x1="288.072" y1="112" x2="336.072" y2="160" gradientUnits="userSpaceOnUse">
<stop stop-color="#F63E58" stop-opacity="0.03"/>
<stop offset="1" stop-color="#FCB124" stop-opacity="0.08"/>
</linearGradient>
<linearGradient id="paint13_linear_40000084_4488" x1="288.072" y1="112" x2="336.072" y2="160.6" gradientUnits="userSpaceOnUse">
<stop offset="0.1" stop-color="white"/>
<stop offset="0.454409" stop-color="white" stop-opacity="0"/>
<stop offset="0.55" stop-color="white" stop-opacity="0"/>
<stop offset="0.9" stop-color="white"/>
</linearGradient>
<linearGradient id="paint14_linear_40000084_4488" x1="315.151" y1="142.204" x2="315.151" y2="124.571" gradientUnits="userSpaceOnUse">
<stop stop-color="#FCB124"/>
<stop offset="1" stop-color="#F63E58"/>
</linearGradient>
<linearGradient id="paint15_linear_40000084_4488" x1="307.732" y1="147.43" x2="307.732" y2="130.416" gradientUnits="userSpaceOnUse">
<stop stop-color="#FCB124"/>
<stop offset="1" stop-color="#F63E58"/>
</linearGradient>
<linearGradient id="paint16_linear_40000084_4488" x1="352.072" y1="112" x2="400.072" y2="160" gradientUnits="userSpaceOnUse">
<stop stop-color="#FEDC90" stop-opacity="0.03"/>
<stop offset="1" stop-color="#D1884F" stop-opacity="0.08"/>
</linearGradient>
<linearGradient id="paint17_linear_40000084_4488" x1="352.072" y1="112" x2="400.072" y2="160.6" gradientUnits="userSpaceOnUse">
<stop offset="0.1" stop-color="white"/>
<stop offset="0.454409" stop-color="white" stop-opacity="0"/>
<stop offset="0.55" stop-color="white" stop-opacity="0"/>
<stop offset="0.9" stop-color="white"/>
</linearGradient>
<linearGradient id="paint18_linear_40000084_4488" x1="152" y1="0" x2="152" y2="116" gradientUnits="userSpaceOnUse">
<stop stop-color="white" stop-opacity="0"/>
<stop offset="1" stop-color="white"/>
</linearGradient>
<clipPath id="clip0_40000084_4488">
<rect width="112.072" height="112" fill="white" transform="translate(96 48)"/>
</clipPath>
<clipPath id="clip1_40000084_4488">
<rect width="27.4286" height="27.4286" fill="white" transform="translate(170.286 58.2856)"/>
</clipPath>
<clipPath id="clip2_40000084_4488">
<rect width="112" height="112" fill="white" transform="translate(288.072 48)"/>
</clipPath>
<clipPath id="clip3_40000084_4488">
<rect width="22.8571" height="22.8571" fill="white" transform="translate(364.643 60.5715)"/>
</clipPath>
<clipPath id="clip4_40000084_4488">
<rect width="24.9879" height="22.8571" fill="white" transform="translate(299.578 124.572)"/>
</clipPath>
<clipPath id="clip5_40000084_4488">
<rect width="26.1536" height="26.2857" fill="white" transform="translate(362.995 122.857)"/>
</clipPath>
<clipPath id="clip6_40000084_4488">
<rect width="304" height="116" fill="white" transform="translate(96 192)"/>
</clipPath>
</defs>
</svg>
