<svg width="24" height="24" viewBox="0 0 24 24" fill="none" xmlns="http://www.w3.org/2000/svg">
<path fill-rule="evenodd" clip-rule="evenodd" d="M21.8398 6.05605C21.8834 5.79137 21.8552 5.51983 21.7582 5.26973C21.6612 5.01963 21.4989 4.80012 21.2883 4.63406C21.0776 4.46801 20.8262 4.3615 20.5604 4.32561C20.2945 4.28973 20.0239 4.3258 19.7768 4.43005L2.67678 11.6301C1.48478 12.1321 1.42378 13.8561 2.67678 14.3761C3.91767 14.8931 5.17646 15.366 6.45078 15.7941C7.61878 16.1801 8.89278 16.5371 9.91378 16.6381C10.1928 16.9721 10.5438 17.2941 10.9018 17.5881C11.4488 18.0381 12.1068 18.5011 12.7868 18.9451C14.1488 19.8351 15.6598 20.6861 16.6778 21.2401C17.8948 21.9001 19.3518 21.1401 19.5698 19.8131L21.8398 6.05605ZM4.59378 12.9931L19.7178 6.62505L17.5998 19.4651C16.6008 18.9221 15.1618 18.1091 13.8798 17.2711C13.2889 16.8917 12.7185 16.4814 12.1708 16.0421C12.0244 15.9225 11.8823 15.7977 11.7448 15.6681L15.7058 11.7081C15.8934 11.5205 15.9989 11.2662 15.999 11.0009C15.9991 10.7356 15.8938 10.4812 15.7063 10.2936C15.5188 10.1059 15.2644 10.0004 14.9991 10.0003C14.7339 10.0003 14.4794 10.1055 14.2918 10.2931L9.95478 14.6301C9.22078 14.5361 8.19878 14.2641 7.07678 13.8941C6.2415 13.6157 5.41386 13.315 4.59478 12.9921L4.59378 12.9931Z" fill="white" fill-opacity="0.5"/>
</svg>
