<svg width="24" height="24" viewBox="0 0 24 24" fill="none" xmlns="http://www.w3.org/2000/svg">
<path d="M2.33626 7.27539C1.64081 8.70202 1.25049 10.3054 1.25049 12.0002C1.25049 13.695 1.64081 15.2984 2.33626 16.725L4.94348 15.2162C4.4983 14.2362 4.25031 13.1472 4.25031 12.0002C4.25031 10.8532 4.49831 9.76424 4.94348 8.78427L2.33626 7.27539Z" fill="#5E6464"/>
<path d="M12.75 22.7502C16.1486 22.5156 19.1128 20.6975 20.9136 18.0266L18.3061 16.5176C17.037 18.2945 15.0389 19.5127 12.75 19.7329V22.7502Z" fill="#5E6464"/>
<path d="M20.9136 5.97356C19.1128 3.30266 16.1486 1.4846 12.75 1.25V4.26728C15.0389 4.48749 17.037 5.70565 18.3061 7.48257L20.9136 5.97356Z" fill="#5E6464"/>
<path d="M11.2499 1.25C7.85171 1.48493 4.88799 3.30293 3.0874 5.97359L5.69459 7.48246C6.96361 5.70576 8.96137 4.48769 11.2499 4.26728V1.25Z" fill="#D1D2D2"/>
<path d="M3.0874 18.0265C4.88799 20.6972 7.85172 22.5152 11.2499 22.7501V19.7328C8.96138 19.5124 6.96361 18.2943 5.69459 16.5176L3.0874 18.0265Z" fill="#D1D2D2"/>
<path d="M21.6644 16.7248C22.3599 15.2982 22.7503 13.6947 22.7503 11.9999C22.7503 10.305 22.3599 8.70156 21.6644 7.2749L19.0569 8.78395C19.5021 9.7639 19.7501 10.8529 19.7501 11.9999C19.7501 13.1469 19.5021 14.2358 19.0569 15.2158L21.6644 16.7248Z" fill="#D1D2D2"/>
<path d="M12.0005 18.25C15.4522 18.25 18.2505 15.4518 18.2505 12C18.2505 8.54822 15.4522 5.75 12.0005 5.75C8.54871 5.75 5.75049 8.54822 5.75049 12C5.75049 15.4518 8.54871 18.25 12.0005 18.25Z" fill="#5E6464"/>
<path opacity="0.8" d="M11.7172 8.1765C11.8108 7.9089 12.1892 7.90891 12.2828 8.1765C12.8624 9.83412 14.1658 11.1375 15.8234 11.7171C16.091 11.8107 16.091 12.1892 15.8234 12.2828C14.1657 12.8624 12.8624 14.1657 12.2828 15.8234C12.1892 16.091 11.8107 16.091 11.7171 15.8234C11.1375 14.1658 9.83412 12.8624 8.1765 12.2828C7.90891 12.1892 7.9089 11.8108 8.1765 11.7172C9.83432 11.1377 11.1377 9.83432 11.7172 8.1765Z" fill="white"/>
</svg>
