<svg width="28" height="28" viewBox="0 0 28 28" fill="none" xmlns="http://www.w3.org/2000/svg">
<path d="M20.946 4.9029C20.9797 4.30863 21.0601 3.91665 21.2218 3.55868C21.2858 3.41699 21.3458 3.30103 21.3551 3.30103C21.3643 3.30103 21.3365 3.40561 21.2932 3.53342C21.1756 3.88083 21.1563 4.356 21.2373 4.90884C21.3401 5.61031 21.3986 5.71152 22.1386 6.46925C22.4857 6.82466 22.8895 7.27289 23.0358 7.46533L23.3019 7.81529L23.0358 7.56521C22.7104 7.25941 21.9619 6.66297 21.7966 6.57772C21.6857 6.52054 21.6692 6.52152 21.6009 6.58971C21.5379 6.65254 21.5246 6.74695 21.5158 7.19329C21.5022 7.88885 21.4076 8.33537 21.1792 8.78178C21.0556 9.02325 21.0362 8.97172 21.148 8.69915C21.2314 8.49568 21.2399 8.4062 21.2393 7.73284C21.238 6.37983 21.0777 6.05456 20.1374 5.49734C19.8993 5.35619 19.5068 5.15261 19.2654 5.04493C19.0239 4.93724 18.8321 4.84346 18.8391 4.83645C18.8657 4.8099 19.7826 5.07803 20.1517 5.22026C20.7007 5.43184 20.7913 5.45925 20.858 5.43373C20.9026 5.41663 20.9242 5.28622 20.946 4.9029Z" fill="#EB4BC2"/>
<path d="M9.34711 2.9345C9.02141 2.88398 9.00766 2.87805 9.16091 2.8545C9.45465 2.80934 10.1481 2.87089 10.626 2.98452C11.7416 3.24972 12.7568 3.92907 13.8405 5.13559L14.1284 5.45612L14.5402 5.38991C16.2752 5.11109 18.0402 5.33268 19.5165 6.01466C19.9227 6.20229 20.563 6.57576 20.643 6.67174C20.6685 6.70233 20.7153 6.89923 20.7469 7.10934C20.8566 7.83621 20.8017 8.3933 20.5794 8.80944C20.4585 9.03593 20.4517 9.10768 20.533 9.30146C20.598 9.45613 20.779 9.57059 20.9582 9.5703C21.3251 9.56984 21.7199 8.97678 21.9029 8.15159L21.9756 7.82383L22.1196 7.98693C22.9093 8.88166 23.5295 10.1018 23.6361 10.9704L23.6638 11.1968L23.5311 10.9909C23.3027 10.6367 23.0731 10.3955 22.7792 10.2011C22.2493 9.85048 21.6891 9.73113 20.2054 9.65298C18.8654 9.58233 18.1069 9.46787 17.3549 9.22267C16.0754 8.80549 15.4304 8.2499 13.9106 6.25585C13.2355 5.37015 12.8182 4.88011 12.4031 4.48547C11.46 3.58877 10.5333 3.1185 9.34711 2.9345Z" fill="#EB4BC2"/>
<path d="M9.97944 7.22409C9.31834 6.31386 8.90926 4.91831 8.99785 3.87508L9.02518 3.55225L9.17572 3.57971C9.45831 3.63125 9.94558 3.81262 10.1737 3.95121C10.7999 4.33148 11.071 4.83213 11.3467 6.11775C11.4275 6.49431 11.5335 6.92044 11.5823 7.06471C11.6608 7.29695 11.9574 7.83934 12.1986 8.19162C12.3724 8.4453 12.257 8.56552 11.8729 8.53089C11.2864 8.47795 10.492 7.92963 9.97944 7.22409Z" fill="#EB4BC2"/>
<path d="M20.1435 13.998C17.0538 12.754 15.9656 11.6742 15.9656 9.85223C15.9656 9.58414 15.9748 9.36475 15.9861 9.36475C15.9973 9.36475 16.1169 9.45324 16.2517 9.56143C16.8782 10.0639 17.5798 10.2785 19.5221 10.5619C20.665 10.7287 21.3081 10.8633 21.9014 11.0601C23.7873 11.6855 24.954 12.9547 25.2322 14.6834C25.3131 15.1857 25.2657 16.1277 25.1346 16.6242C25.0311 17.0163 24.7153 17.7231 24.6316 17.7502C24.6083 17.7577 24.5856 17.6687 24.5796 17.5476C24.5478 16.8985 24.2198 16.2665 23.6689 15.7931C23.0425 15.2549 22.201 14.8264 20.1435 13.998Z" fill="#EB4BC2"/>
<path d="M17.9738 14.5146C17.9351 14.2843 17.868 13.9901 17.8247 13.8609L17.7458 13.626L17.8922 13.7904C18.0949 14.0178 18.255 14.3089 18.3907 14.6965C18.4943 14.9923 18.5059 15.0804 18.5052 15.5611C18.5044 16.0331 18.4914 16.132 18.3958 16.3984C18.245 16.8183 18.0578 17.116 17.7437 17.4356C17.1794 18.01 16.4538 18.3281 15.4066 18.46C15.2246 18.4829 14.6941 18.5215 14.2277 18.5458C13.0524 18.6069 12.2788 18.7332 11.5837 18.9772C11.4838 19.0124 11.3945 19.0337 11.3855 19.0246C11.3574 18.9966 11.8306 18.7145 12.2215 18.5262C12.7727 18.2607 13.3214 18.1159 14.5507 17.9111C15.158 17.8099 15.7851 17.6873 15.9444 17.6384C17.4482 17.1774 18.2213 15.9875 17.9738 14.5146Z" fill="#EB4BC2"/>
<path d="M19.3903 17.0304C18.9798 16.148 18.8855 15.2959 19.1104 14.5013C19.1345 14.4164 19.1732 14.3469 19.1965 14.3469C19.2197 14.3469 19.3166 14.3993 19.4117 14.4633C19.6009 14.5906 19.9803 14.8051 20.9911 15.3562C22.2523 16.0438 22.9715 16.5763 23.4605 17.1847C23.8887 17.7175 24.1538 18.3243 24.2814 19.0642C24.3536 19.4834 24.3113 20.4919 24.2037 20.9139C23.8646 22.2447 23.0765 23.2901 21.9523 23.9C21.7876 23.9894 21.6397 24.0628 21.6237 24.0631C21.6077 24.0634 21.6678 23.9108 21.7571 23.724C22.1353 22.9335 22.1783 22.1646 21.8924 21.3086C21.7173 20.7846 21.3604 20.1452 20.6398 19.0644C19.8019 17.8079 19.5964 17.4735 19.3903 17.0304Z" fill="#EB4BC2"/>
<path d="M7.78568 21.7918C8.93224 20.8237 10.3588 20.1359 11.6583 19.9249C12.2183 19.8339 13.1513 19.87 13.6699 20.0027C14.5012 20.2154 15.2448 20.6919 15.6315 21.2596C16.0094 21.8145 16.1716 22.298 16.3404 23.3738C16.407 23.7981 16.4794 24.2242 16.5013 24.3207C16.6281 24.8782 16.8748 25.3239 17.1806 25.5477C17.6662 25.9031 18.5023 25.9252 19.3248 25.6043C19.4644 25.5498 19.5856 25.5122 19.5942 25.5207C19.624 25.5504 19.2098 25.8276 18.9176 25.9736C18.5245 26.17 18.2118 26.2459 17.7964 26.2459C17.043 26.2459 16.4176 25.8627 15.8957 25.0812C15.793 24.9274 15.5622 24.4668 15.3827 24.0576C14.8317 22.8009 14.5596 22.418 13.9198 21.999C13.3631 21.6344 12.645 21.5691 12.1048 21.834C11.3952 22.1819 11.1973 23.0886 11.7055 23.6633C11.9074 23.8917 12.2841 24.0887 12.5921 24.127C13.1683 24.1986 13.6635 23.7603 13.6635 23.1785C13.6635 22.8008 13.5183 22.5852 13.1528 22.4203C12.6537 22.195 12.117 22.4583 12.1196 22.9273C12.1207 23.1273 12.2078 23.2528 12.4083 23.3435C12.5369 23.4017 12.5399 23.4063 12.435 23.3846C11.9769 23.2896 11.8696 22.7374 12.2379 22.3708C12.6801 21.9308 13.5943 22.1249 13.9083 22.7256C14.0402 22.978 14.0555 23.4804 13.9405 23.7838C13.6832 24.463 12.9327 24.8201 12.1715 24.6258C11.6532 24.4935 11.4421 24.3502 10.8172 23.7065C9.73134 22.588 9.30977 22.3712 7.74432 22.1268L7.44434 22.08L7.78568 21.7918Z" fill="#EB4BC2"/>
<path fill-rule="evenodd" clip-rule="evenodd" d="M2.69079 1.77184C6.3171 6.17311 8.81474 7.989 9.09229 8.37265C9.32143 8.68943 9.23521 8.9742 8.84259 9.19743C8.62426 9.32148 8.17542 9.44722 7.95068 9.44722C7.69649 9.44722 7.60922 9.3492 7.60922 9.3492C7.46184 9.2094 7.37883 9.23386 6.62198 7.8904C5.57122 6.25996 4.69188 4.90744 4.6679 4.8848C4.61242 4.83242 4.61338 4.8342 6.51484 8.2364C6.82206 8.94549 6.57595 9.2058 6.57595 9.30678C6.57595 9.51223 6.5199 9.62025 6.26646 9.90292C5.84396 10.3743 5.65509 10.9039 5.51875 11.9999C5.3659 13.2286 4.93612 14.0965 3.74506 15.5819C3.04785 16.4515 2.93376 16.6109 2.75784 16.9613C2.53625 17.4027 2.47532 17.6498 2.45062 18.2072C2.42452 18.7964 2.47536 19.177 2.65538 19.7404C2.81298 20.2336 2.97749 20.5593 3.39804 21.2107C3.76098 21.7728 3.96996 22.1906 3.96996 22.3539C3.96996 22.484 3.99478 22.4841 4.55718 22.3571C5.90307 22.0533 6.99593 21.5187 7.61057 20.8636C7.99096 20.4581 8.08024 20.2343 8.08319 19.6786C8.0851 19.3152 8.07227 19.2391 7.97403 19.03C7.81413 18.6898 7.52301 18.4068 6.88135 17.9682C6.04061 17.3934 5.68152 16.9307 5.58233 16.2944C5.50096 15.7723 5.59535 15.4039 6.06046 14.4291C6.54186 13.4201 6.66116 12.9901 6.74187 11.9731C6.79398 11.3161 6.86617 11.0569 7.05496 10.8489C7.25186 10.632 7.4291 10.5586 7.91638 10.492C8.71077 10.3834 9.21666 10.1779 9.63245 9.79473C9.99316 9.46238 10.1441 9.14206 10.1673 8.65992L10.1848 8.2945L9.98328 8.05948C9.25329 7.20838 2.20194 1.10278 2.15702 1.10278C2.14742 1.10278 2.38763 1.40388 2.69079 1.77184ZM4.37972 18.8739C4.54477 18.5816 4.45708 18.2058 4.181 18.0223C3.92016 17.8488 3.51494 17.9305 3.51494 18.1565C3.51494 18.2255 3.55308 18.2757 3.63904 18.3199C3.78378 18.3944 3.79428 18.4782 3.6804 18.6493C3.56508 18.8227 3.57439 18.9751 3.70667 19.0787C3.91986 19.2456 4.22166 19.1538 4.37972 18.8739Z" fill="#EB4BC2"/>
<path fill-rule="evenodd" clip-rule="evenodd" d="M10.686 10.6835C10.3131 10.7981 9.95049 11.1933 9.83826 11.6078C9.76984 11.8606 9.80868 12.3042 9.91119 12.4411C10.0769 12.6624 10.2371 12.7206 10.6709 12.7176C11.5202 12.7116 12.2585 12.3474 12.3443 11.892C12.4147 11.5188 12.0905 11.0015 11.6438 10.7744C11.4133 10.6572 10.9231 10.6107 10.686 10.6835ZM11.6788 11.4599C11.8098 11.2738 11.7525 11.0727 11.5297 10.9366C11.1056 10.6776 10.4641 10.892 10.4641 11.2927C10.4641 11.4922 10.7986 11.7098 11.1052 11.7098C11.3093 11.7098 11.5886 11.5881 11.6788 11.4599Z" fill="#EB4BC2"/>
</svg>
