<svg width="24" height="24" viewBox="0 0 24 24" fill="none" xmlns="http://www.w3.org/2000/svg">
<path d="M12 24C18.6504 24 24 18.6504 24 12C24 5.3496 18.6504 0 12 0C5.3496 0 0 5.3496 0 12C0 18.6504 5.3496 24 12 24Z" fill="#2775CA"/>
<path d="M15.3014 13.8996C15.3014 12.15 14.2514 11.55 12.1514 11.2992C10.6514 11.0988 10.3514 10.6992 10.3514 9.99961C10.3514 9.30001 10.8518 8.85001 11.8514 8.85001C12.7514 8.85001 13.2518 9.15001 13.5014 9.90001C13.5518 10.05 13.7018 10.1496 13.8518 10.1496H14.6522C14.8526 10.1496 15.0026 9.99961 15.0026 9.79921V9.74881C14.8022 8.64841 13.9022 7.79881 12.7526 7.69921V6.49921C12.7526 6.29881 12.6026 6.14881 12.353 6.09961H11.603C11.4026 6.09961 11.2526 6.24961 11.2034 6.49921V7.64881C9.70343 7.84921 8.75303 8.84881 8.75303 10.0992C8.75303 11.7492 9.75263 12.3996 11.8526 12.6492C13.253 12.8988 13.703 13.1988 13.703 13.9992C13.703 14.7996 13.0034 15.3492 12.053 15.3492C10.7534 15.3492 10.3034 14.7996 10.1534 14.0496C10.103 13.8492 9.95303 13.7496 9.80303 13.7496H8.95343C8.75303 13.7496 8.60303 13.8996 8.60303 14.1V14.1504C8.80343 15.4008 9.60263 16.3008 11.2526 16.5504V17.7504C11.2526 17.9508 11.4026 18.1008 11.6522 18.15H12.4022C12.6026 18.15 12.7526 18 12.8018 17.7504V16.5504C14.3006 16.2996 15.3014 15.2496 15.3014 13.8996Z" fill="white"/>
<path d="M9.45081 19.1497C5.55081 17.7493 3.55041 13.3993 5.00121 9.54969C5.75121 7.44969 7.40121 5.85009 9.45081 5.10009C9.65121 5.00049 9.75081 4.85049 9.75081 4.59969V3.90009C9.75081 3.69969 9.65121 3.54969 9.45081 3.50049C9.40041 3.50049 9.30081 3.50049 9.25041 3.55089C4.50081 5.05089 1.90041 10.1005 3.40041 14.8513C4.30041 17.6509 6.45081 19.8013 9.25041 20.7013C9.45081 20.8009 9.65001 20.7013 9.70041 20.5009C9.75081 20.4505 9.75081 20.4013 9.75081 20.3005V19.6009C9.75081 19.4497 9.60081 19.2505 9.45081 19.1497ZM14.75 3.54969C14.5496 3.45009 14.3504 3.54969 14.3 3.75009C14.2496 3.80049 14.2496 3.84969 14.2496 3.95049V4.65009C14.2496 4.85049 14.3996 5.04969 14.5496 5.15049C18.4496 6.55089 20.45 10.9009 18.9992 14.7505C18.2492 16.8505 16.5992 18.4501 14.5496 19.2001C14.3492 19.2997 14.2496 19.4497 14.2496 19.7005V20.4001C14.2496 20.6005 14.3492 20.7505 14.5496 20.7997C14.6 20.7997 14.6996 20.7997 14.75 20.7493C19.4996 19.2493 22.1 14.1997 20.6 9.44889C19.7 6.60009 17.5004 4.44969 14.75 3.54969Z" fill="white"/>
</svg>
