<svg width="33" height="24" viewBox="0 0 33 24" fill="none" xmlns="http://www.w3.org/2000/svg">
<path d="M8.88065 0.400017C9.09077 0.242424 9.32988 0.127761 9.58431 0.0625755C9.83875 -0.00261042 10.1035 -0.0170432 10.3636 0.0201018C10.6236 0.0572468 10.8737 0.145242 11.0997 0.279063C11.3257 0.412884 11.5232 0.58991 11.6808 0.800034C11.8384 1.01016 11.953 1.24926 12.0182 1.5037C12.0834 1.75814 12.0978 2.02292 12.0607 2.28294C12.0235 2.54295 11.9355 2.7931 11.8017 3.01911C11.6679 3.24512 11.4909 3.44256 11.2807 3.60015C8.15262 5.94625 6.36054 8.22834 5.3345 10.2204C6.7433 9.85778 8.23008 9.94303 9.58819 10.4643C10.9463 10.9857 12.1083 11.9171 12.9126 13.1293C13.7169 14.3414 14.1236 15.774 14.0762 17.228C14.0287 18.6819 13.5295 20.085 12.6479 21.2421C11.7663 22.3993 10.5461 23.253 9.15685 23.6847C7.76765 24.1164 6.27847 24.1045 4.89631 23.6508C3.51414 23.1971 2.30766 22.3241 1.44455 21.1531C0.581447 19.982 0.104597 18.5712 0.0802829 17.1167C-0.173157 14.6605 0.175578 12.1796 1.09632 9.88841C2.29037 6.87629 4.62447 3.59215 8.88065 0.400017ZM26.8814 0.400017C27.0915 0.242424 27.3306 0.127761 27.5851 0.0625755C27.8395 -0.00261042 28.1043 -0.0170432 28.3643 0.0201018C28.6243 0.0572468 28.8745 0.145242 29.1005 0.279063C29.3265 0.412884 29.5239 0.58991 29.6815 0.800034C29.8391 1.01016 29.9538 1.24926 30.019 1.5037C30.0841 1.75814 30.0986 2.02292 30.0614 2.28294C30.0243 2.54295 29.9363 2.7931 29.8025 3.01911C29.6686 3.24512 29.4916 3.44256 29.2815 3.60015C26.1534 5.94625 24.3613 8.22834 23.3352 10.2204C24.744 9.85778 26.2308 9.94303 27.5889 10.4643C28.9471 10.9857 30.109 11.9171 30.9133 13.1293C31.7176 14.3414 32.1244 15.774 32.0769 17.228C32.0295 18.6819 31.5303 20.085 30.6486 21.2421C29.767 22.3993 28.5468 23.253 27.1576 23.6847C25.7684 24.1164 24.2792 24.1045 22.8971 23.6508C21.5149 23.1971 20.3084 22.3241 19.4453 21.1531C18.5822 19.982 18.1053 18.5712 18.081 17.1167C17.8276 14.6605 18.1763 12.1796 19.0971 9.88841C20.2931 6.87629 22.6252 3.59215 26.8814 0.400017Z" fill="#3DEB4F"/>
</svg>
