<svg width="18" height="14" viewBox="0 0 18 14" fill="none" xmlns="http://www.w3.org/2000/svg">
<path d="M9.59135 0.841346C9.59135 0.618207 9.50271 0.404208 9.34492 0.246425C9.18714 0.0886416 8.97314 0 8.75 0C8.52686 0 8.31286 0.0886416 8.15508 0.246425C7.99729 0.404208 7.90865 0.618207 7.90865 0.841346V2.01923H2.86058C2.1019 2.01923 1.37431 2.32061 0.837843 2.85707C0.301381 3.39354 0 4.12114 0 4.87981V10.601C0 11.3596 0.301381 12.0872 0.837843 12.6237C1.37431 13.1602 2.1019 13.4615 2.86058 13.4615H14.6394C15.3981 13.4615 16.1257 13.1602 16.6622 12.6237C17.1986 12.0872 17.5 11.3596 17.5 10.601V4.87981C17.5 4.12114 17.1986 3.39354 16.6622 2.85707C16.1257 2.32061 15.3981 2.01923 14.6394 2.01923H9.59135V0.841346ZM5.38462 9.42308C4.93834 9.42308 4.51034 9.24579 4.19477 8.93023C3.87921 8.61466 3.70192 8.18666 3.70192 7.74038C3.70192 7.29411 3.87921 6.86611 4.19477 6.55054C4.51034 6.23498 4.93834 6.05769 5.38462 6.05769C5.83089 6.05769 6.25889 6.23498 6.57446 6.55054C6.89002 6.86611 7.06731 7.29411 7.06731 7.74038C7.06731 8.18666 6.89002 8.61466 6.57446 8.93023C6.25889 9.24579 5.83089 9.42308 5.38462 9.42308ZM13.7981 7.74038C13.7981 8.18666 13.6208 8.61466 13.3052 8.93023C12.9897 9.24579 12.5617 9.42308 12.1154 9.42308C11.6691 9.42308 11.2411 9.24579 10.9255 8.93023C10.61 8.61466 10.4327 8.18666 10.4327 7.74038C10.4327 7.29411 10.61 6.86611 10.9255 6.55054C11.2411 6.23498 11.6691 6.05769 12.1154 6.05769C12.5617 6.05769 12.9897 6.23498 13.3052 6.55054C13.6208 6.86611 13.7981 7.29411 13.7981 7.74038Z" fill="#3FEC52"/>
</svg>
