<svg width="28" height="22" viewBox="0 0 28 22" fill="none" xmlns="http://www.w3.org/2000/svg">
<path d="M13.7111 0C6.13839 0 0 6.21889 0 13.8901V19.8426C0 20.9376 0.875996 21.8245 1.95736 21.8245C3.03871 21.8245 3.92113 20.9376 3.92113 19.8426V13.8901C3.92113 12.7919 4.79391 11.9049 5.87847 11.9049C6.95984 11.9049 7.83583 12.7919 7.83583 13.8901V19.8426C7.83583 20.9376 8.71182 21.8245 9.79319 21.8245C10.8778 21.8245 11.7537 20.9376 11.7537 19.8426V13.8901C11.7537 12.7919 12.6297 11.9049 13.7111 11.9049C14.7957 11.9049 15.6749 12.7919 15.6749 13.8901V19.8426C15.6749 20.9376 16.5508 21.8245 17.6323 21.8245C18.7135 21.8245 19.5897 20.9376 19.5897 19.8426V13.8901C19.5897 12.7919 20.4656 11.9049 21.5533 11.9049C22.6347 11.9049 23.5107 12.7919 23.5107 13.8901V19.8426C23.5107 20.9376 24.3866 21.8245 25.4713 21.8245C26.5526 21.8245 27.4286 20.9376 27.4286 19.8426V13.8901C27.4286 6.21889 21.287 0 13.7111 0Z" fill="#7132F5"/>
</svg>
