<svg width="24" height="24" viewBox="0 0 24 24" fill="none" xmlns="http://www.w3.org/2000/svg">
<g clip-path="url(#clip0_40000563_1354)">
<path d="M23.9899 11.995C23.9899 5.37033 18.6196 0 11.995 0C5.37033 0 0 5.37033 0 11.995C0 18.6196 5.37033 23.9899 11.995 23.9899C18.6196 23.9899 23.9899 18.6196 23.9899 11.995Z" fill="url(#paint0_linear_40000563_1354)"/>
<path fill-rule="evenodd" clip-rule="evenodd" d="M17.752 17.5303C17.7533 17.5405 17.754 17.5508 17.7543 17.5613C17.7546 17.6427 17.7126 17.7186 17.6433 17.7613L12.0869 21.1875C12.0118 21.2338 11.9173 21.234 11.8425 21.1878L6.33091 17.8043C6.26155 17.7616 6.21936 17.6861 6.21963 17.6046C6.21963 17.5976 6.21992 17.5904 6.22079 17.5834C6.21992 17.5759 6.21963 17.5686 6.21963 17.561L6.2193 13.3338C6.2193 13.3287 6.21959 13.3236 6.21988 13.3187C6.21583 13.2575 6.23604 13.1954 6.27939 13.1473C6.35337 13.0653 6.47444 13.0465 6.56952 13.1019L11.9854 16.2451L17.3513 13.1322C17.36 13.1268 17.3693 13.1226 17.3785 13.1185C17.4178 13.0882 17.467 13.0702 17.5207 13.0702C17.6493 13.0702 17.7539 13.1747 17.7539 13.3034L17.7543 17.4974C17.7543 17.5087 17.7533 17.5195 17.752 17.5303ZM6.68603 17.1921L8.28693 16.225L6.68578 14.0212L6.68603 17.1921ZM8.5621 16.6038C8.11794 16.8721 6.90136 17.607 6.90136 17.607L11.2147 20.2553L8.5621 16.6038ZM12.7891 20.2066L17.0725 17.5652L15.4174 16.57L12.7891 20.2066ZM15.6916 16.1904L17.2878 17.1502L17.2876 13.9823L15.6916 16.1904ZM11.8684 16.7164L7.28975 14.0589L11.9852 20.5223L16.6371 14.0858L12.1025 16.7164C12.0302 16.7584 11.9406 16.7584 11.8684 16.7164ZM6.44462 12.1991C6.3195 12.1949 6.21919 12.0922 6.21919 11.9659L6.21875 6.47121C6.21875 6.4575 6.21991 6.44405 6.22223 6.43114C6.21991 6.41852 6.21875 6.40563 6.21875 6.39246C6.21845 6.31102 6.26064 6.23524 6.33 6.19279L11.8867 2.78487C11.9612 2.73891 12.0554 2.73891 12.13 2.78459L17.6416 6.14952C17.7111 6.19197 17.7533 6.26775 17.7533 6.34918C17.7533 6.35267 17.7531 6.35591 17.7531 6.35941C17.7531 6.3629 17.7533 6.36639 17.7533 6.37014L17.7539 11.9371C17.7539 12.0355 17.6926 12.1199 17.6065 12.154L12.0977 15.1844C12.0278 15.2227 11.9428 15.2227 11.8729 15.1844L6.44462 12.1991ZM6.68521 6.8039L6.68556 11.2252L8.66717 7.99551L6.68521 6.8039ZM17.287 6.76197L15.2867 7.97051L17.2873 11.2309L17.287 6.76197ZM15.0428 7.57278C15.5557 7.26292 17.0707 6.34758 17.0707 6.34758L12.6257 3.63355L15.0428 7.57278ZM11.3119 3.68435L6.90134 6.38951L8.91104 7.59804L11.3119 3.68435ZM6.83155 11.8796L11.9853 14.7137L17.138 11.8794L11.9844 3.48037L6.83155 11.8796Z" fill="url(#paint1_linear_40000563_1354)"/>
<path fill-rule="evenodd" clip-rule="evenodd" d="M17.752 17.5303C17.7533 17.5405 17.754 17.5508 17.7543 17.5613C17.7546 17.6427 17.7126 17.7186 17.6433 17.7613L12.0869 21.1875C12.0118 21.2338 11.9173 21.234 11.8425 21.1878L6.33091 17.8043C6.26155 17.7616 6.21936 17.6861 6.21963 17.6046C6.21963 17.5976 6.21992 17.5904 6.22079 17.5834C6.21992 17.5759 6.21963 17.5686 6.21963 17.561L6.2193 13.3338C6.2193 13.3287 6.21959 13.3236 6.21988 13.3187C6.21583 13.2575 6.23604 13.1954 6.27939 13.1473C6.35337 13.0653 6.47444 13.0465 6.56952 13.1019L11.9854 16.2451L17.3513 13.1322C17.36 13.1268 17.3693 13.1226 17.3785 13.1185C17.4178 13.0882 17.467 13.0702 17.5207 13.0702C17.6493 13.0702 17.7539 13.1747 17.7539 13.3034L17.7543 17.4974C17.7543 17.5087 17.7533 17.5195 17.752 17.5303ZM6.68603 17.1921L8.28693 16.225L6.68578 14.0212L6.68603 17.1921ZM8.5621 16.6038C8.11794 16.8721 6.90136 17.607 6.90136 17.607L11.2147 20.2553L8.5621 16.6038ZM12.7891 20.2066L17.0725 17.5652L15.4174 16.57L12.7891 20.2066ZM15.6916 16.1904L17.2878 17.1502L17.2876 13.9823L15.6916 16.1904ZM11.8684 16.7164L7.28975 14.0589L11.9852 20.5223L16.6371 14.0858L12.1025 16.7164C12.0302 16.7584 11.9406 16.7584 11.8684 16.7164ZM6.44462 12.1991C6.3195 12.1949 6.21919 12.0922 6.21919 11.9659L6.21875 6.47121C6.21875 6.4575 6.21991 6.44405 6.22223 6.43114C6.21991 6.41852 6.21875 6.40563 6.21875 6.39246C6.21845 6.31102 6.26064 6.23524 6.33 6.19279L11.8867 2.78487C11.9612 2.73891 12.0554 2.73891 12.13 2.78459L17.6416 6.14952C17.7111 6.19197 17.7533 6.26775 17.7533 6.34918C17.7533 6.35267 17.7531 6.35591 17.7531 6.35941C17.7531 6.3629 17.7533 6.36639 17.7533 6.37014L17.7539 11.9371C17.7539 12.0355 17.6926 12.1199 17.6065 12.154L12.0977 15.1844C12.0278 15.2227 11.9428 15.2227 11.8729 15.1844L6.44462 12.1991ZM6.68521 6.8039L6.68556 11.2252L8.66717 7.99551L6.68521 6.8039ZM17.287 6.76197L15.2867 7.97051L17.2873 11.2309L17.287 6.76197ZM15.0428 7.57278C15.5557 7.26292 17.0707 6.34758 17.0707 6.34758L12.6257 3.63355L15.0428 7.57278ZM11.3119 3.68435L6.90134 6.38951L8.91104 7.59804L11.3119 3.68435ZM6.83155 11.8796L11.9853 14.7137L17.138 11.8794L11.9844 3.48037L6.83155 11.8796Z" fill="#120370"/>
<path d="M11.9951 23.0603C18.1063 23.0603 23.0604 18.1062 23.0604 11.9949C23.0604 5.8837 18.1063 0.929565 11.9951 0.929565C5.88382 0.929565 0.929688 5.8837 0.929688 11.9949C0.929688 18.1062 5.88382 23.0603 11.9951 23.0603Z" stroke="#120370" stroke-width="0.559766"/>
</g>
<defs>
<linearGradient id="paint0_linear_40000563_1354" x1="1.66222" y1="15.7608" x2="22.4401" y2="8.20484" gradientUnits="userSpaceOnUse">
<stop stop-color="#29BCFA"/>
<stop offset="0.43" stop-color="#6464E4"/>
<stop offset="1" stop-color="#B45AFA"/>
</linearGradient>
<linearGradient id="paint1_linear_40000563_1354" x1="11.9005" y1="20.9002" x2="17.6479" y2="6.46701" gradientUnits="userSpaceOnUse">
<stop stop-color="#29BCFA"/>
<stop offset="0.43" stop-color="#6464E4"/>
<stop offset="1" stop-color="#B45AFA"/>
</linearGradient>
<clipPath id="clip0_40000563_1354">
<rect width="24" height="24" fill="white"/>
</clipPath>
</defs>
</svg>
