<svg width="600" height="240" viewBox="0 0 600 240" fill="none" xmlns="http://www.w3.org/2000/svg">
<rect width="600" height="240" fill="black" fill-opacity="0.2"/>
<rect x="64.5" y="79" width="114" height="82" rx="10.5" fill="url(#paint0_linear_40000061_1044)"/>
<rect x="65" y="79.5" width="113" height="81" rx="10" stroke="url(#paint1_linear_40000061_1044)" stroke-opacity="0.5"/>
<path d="M81.6075 104.687C81.2342 104.603 80.8452 104.561 80.4403 104.559C79.3531 104.559 78.2913 104.888 77.3947 105.502C76.6697 106.008 75.9165 106.849 75.9165 107.873C75.9164 108.14 75.9726 108.404 76.0816 108.648C76.1905 108.892 76.3497 109.111 76.5487 109.289C76.8959 109.607 77.3234 109.793 77.7136 109.911C78.2463 110.071 78.8728 110.154 79.5242 110.19C79.3863 109.8 79.3094 109.376 79.3094 108.921C79.3094 107.185 80.3951 105.71 81.6075 104.687Z" fill="#3DEB4F"/>
<path d="M83.005 98.6016C82.4748 98.0713 81.7557 97.7734 81.0058 97.7734C80.2559 97.7734 79.5368 98.0713 79.0065 98.6016C78.4763 99.1318 78.1784 99.851 78.1784 100.601C78.1784 101.351 78.4763 102.07 79.0065 102.6C79.5368 103.13 80.2559 103.428 81.0058 103.428C81.7557 103.428 82.4748 103.13 83.005 102.6C83.5353 102.07 83.8332 101.351 83.8332 100.601C83.8332 99.851 83.5353 99.1318 83.005 98.6016Z" fill="#3DEB4F"/>
<path d="M96.2737 104.559C97.4544 104.559 98.5266 104.949 99.3194 105.501C100.043 106.007 100.798 106.847 100.798 107.872C100.798 108.456 100.543 108.942 100.164 109.289C99.8181 109.607 99.3906 109.793 99.0004 109.911C98.4689 110.071 97.8412 110.154 97.1898 110.19C97.3278 109.8 97.4047 109.376 97.4047 108.921C97.4047 107.185 96.3201 105.71 95.1066 104.687C95.4899 104.602 95.8812 104.559 96.2737 104.559ZM95.7082 97.7734C96.4581 97.7734 97.1773 98.0713 97.7075 98.6016C98.2377 99.1318 98.5356 99.851 98.5356 100.601C98.5356 101.351 98.2377 102.07 97.7075 102.6C97.1773 103.13 96.4581 103.428 95.7082 103.428C94.9584 103.428 94.2392 103.13 93.709 102.6C93.1787 102.07 92.8809 101.351 92.8809 100.601C92.8809 99.851 93.1787 99.1318 93.709 98.6016C94.2392 98.0713 94.9584 97.7734 95.7082 97.7734Z" fill="#3DEB4F"/>
<path d="M88.7856 103.857C90.9038 103.857 92.8231 104.558 94.2311 105.539C95.569 106.472 96.7022 107.858 96.7022 109.35C96.7022 110.169 96.3528 110.847 95.802 111.352C95.284 111.828 94.6077 112.136 93.911 112.347C92.5188 112.769 90.6856 112.904 88.7856 112.904C86.8856 112.904 85.0523 112.769 83.6601 112.347C82.9634 112.136 82.2871 111.828 81.768 111.352C81.2195 110.848 80.8689 110.17 80.8689 109.351C80.8689 107.859 82.0021 106.473 83.34 105.54C84.7481 104.558 86.6673 103.857 88.7856 103.857ZM88.7856 93.6782C89.9854 93.6782 91.136 94.1548 91.9844 95.0032C92.8328 95.8516 93.3094 97.0022 93.3094 98.202C93.3094 99.4018 92.8328 100.552 91.9844 101.401C91.136 102.249 89.9854 102.726 88.7856 102.726C87.5858 102.726 86.4351 102.249 85.5867 101.401C84.7384 100.552 84.2618 99.4018 84.2618 98.202C84.2618 97.0022 84.7384 95.8516 85.5867 95.0032C86.4351 94.1548 87.5858 93.6782 88.7856 93.6782Z" fill="white"/>
<path d="M114.75 104.687C114.377 104.603 113.988 104.561 113.583 104.559C112.496 104.559 111.434 104.888 110.537 105.502C109.813 106.008 109.059 106.849 109.059 107.873C109.059 108.14 109.115 108.404 109.224 108.648C109.333 108.892 109.493 109.111 109.692 109.289C110.039 109.607 110.466 109.793 110.856 109.911C111.389 110.071 112.016 110.154 112.667 110.19C112.529 109.8 112.452 109.376 112.452 108.921C112.452 107.185 113.538 105.71 114.75 104.687Z" fill="#3DEB4F"/>
<path d="M116.148 98.6016C115.618 98.0713 114.898 97.7734 114.149 97.7734C113.399 97.7734 112.68 98.0713 112.149 98.6016C111.619 99.1318 111.321 99.851 111.321 100.601C111.321 101.351 111.619 102.07 112.149 102.6C112.68 103.13 113.399 103.428 114.149 103.428C114.898 103.428 115.618 103.13 116.148 102.6C116.678 102.07 116.976 101.351 116.976 100.601C116.976 99.851 116.678 99.1318 116.148 98.6016Z" fill="#3DEB4F"/>
<path d="M129.417 104.559C130.597 104.559 131.669 104.949 132.462 105.501C133.186 106.007 133.94 106.847 133.94 107.872C133.94 108.456 133.686 108.942 133.307 109.289C132.961 109.607 132.533 109.793 132.143 109.911C131.612 110.071 130.984 110.154 130.333 110.19C130.471 109.8 130.547 109.376 130.547 108.921C130.547 107.185 129.463 105.71 128.249 104.687C128.633 104.602 129.024 104.559 129.417 104.559ZM128.851 97.7734C129.601 97.7734 130.32 98.0713 130.85 98.6016C131.381 99.1318 131.678 99.851 131.678 100.601C131.678 101.351 131.381 102.07 130.85 102.6C130.32 103.13 129.601 103.428 128.851 103.428C128.101 103.428 127.382 103.13 126.852 102.6C126.322 102.07 126.024 101.351 126.024 100.601C126.024 99.851 126.322 99.1318 126.852 98.6016C127.382 98.0713 128.101 97.7734 128.851 97.7734Z" fill="#3DEB4F"/>
<path d="M121.928 103.857C124.047 103.857 125.966 104.558 127.374 105.539C128.712 106.472 129.845 107.858 129.845 109.35C129.845 110.169 129.496 110.847 128.945 111.352C128.427 111.828 127.751 112.136 127.054 112.347C125.662 112.769 123.828 112.904 121.928 112.904C120.028 112.904 118.195 112.769 116.803 112.347C116.106 112.136 115.43 111.828 114.911 111.352C114.362 110.848 114.012 110.17 114.012 109.351C114.012 107.859 115.145 106.473 116.483 105.54C117.891 104.558 119.81 103.857 121.928 103.857ZM121.928 93.6782C123.128 93.6782 124.279 94.1548 125.127 95.0032C125.976 95.8516 126.452 97.0022 126.452 98.202C126.452 99.4018 125.976 100.552 125.127 101.401C124.279 102.249 123.128 102.726 121.928 102.726C120.729 102.726 119.578 102.249 118.73 101.401C117.881 100.552 117.405 99.4018 117.405 98.202C117.405 97.0022 117.881 95.8516 118.73 95.0032C119.578 94.1548 120.729 93.6782 121.928 93.6782Z" fill="white"/>
<path d="M147.893 104.687C147.52 104.603 147.131 104.561 146.726 104.559C145.639 104.559 144.577 104.888 143.68 105.502C142.955 106.008 142.202 106.849 142.202 107.873C142.202 108.14 142.258 108.404 142.367 108.648C142.476 108.892 142.635 109.111 142.834 109.289C143.182 109.607 143.609 109.793 143.999 109.911C144.532 110.071 145.158 110.154 145.81 110.19C145.672 109.8 145.595 109.376 145.595 108.921C145.595 107.185 146.681 105.71 147.893 104.687Z" fill="#3DEB4F"/>
<path d="M149.291 98.6016C148.76 98.0713 148.041 97.7734 147.291 97.7734C146.542 97.7734 145.822 98.0713 145.292 98.6016C144.762 99.1318 144.464 99.851 144.464 100.601C144.464 101.351 144.762 102.07 145.292 102.6C145.822 103.13 146.542 103.428 147.291 103.428C148.041 103.428 148.76 103.13 149.291 102.6C149.821 102.07 150.119 101.351 150.119 100.601C150.119 99.851 149.821 99.1318 149.291 98.6016Z" fill="#3DEB4F"/>
<path d="M162.559 104.559C163.74 104.559 164.812 104.949 165.605 105.501C166.329 106.007 167.083 106.847 167.083 107.872C167.083 108.456 166.829 108.942 166.45 109.289C166.104 109.607 165.676 109.793 165.286 109.911C164.755 110.071 164.127 110.154 163.475 110.19C163.613 109.8 163.69 109.376 163.69 108.921C163.69 107.185 162.606 105.71 161.392 104.687C161.776 104.602 162.167 104.559 162.559 104.559ZM161.994 97.7734C162.744 97.7734 163.463 98.0713 163.993 98.6016C164.523 99.1318 164.821 99.851 164.821 100.601C164.821 101.351 164.523 102.07 163.993 102.6C163.463 103.13 162.744 103.428 161.994 103.428C161.244 103.428 160.525 103.13 159.995 102.6C159.464 102.07 159.167 101.351 159.167 100.601C159.167 99.851 159.464 99.1318 159.995 98.6016C160.525 98.0713 161.244 97.7734 161.994 97.7734Z" fill="#3DEB4F"/>
<path d="M155.071 103.857C157.189 103.857 159.109 104.558 160.517 105.539C161.855 106.472 162.988 107.858 162.988 109.35C162.988 110.169 162.638 110.847 162.088 111.352C161.57 111.828 160.893 112.136 160.197 112.347C158.804 112.769 156.971 112.904 155.071 112.904C153.171 112.904 151.338 112.769 149.946 112.347C149.249 112.136 148.573 111.828 148.054 111.352C147.505 110.848 147.155 110.17 147.155 109.351C147.155 107.859 148.288 106.473 149.626 105.54C151.034 104.558 152.953 103.857 155.071 103.857ZM155.071 93.6782C156.271 93.6782 157.422 94.1548 158.27 95.0032C159.118 95.8516 159.595 97.0022 159.595 98.202C159.595 99.4018 159.118 100.552 158.27 101.401C157.422 102.249 156.271 102.726 155.071 102.726C153.871 102.726 152.721 102.249 151.872 101.401C151.024 100.552 150.547 99.4018 150.547 98.202C150.547 97.0022 151.024 95.8516 151.872 95.0032C152.721 94.1548 153.871 93.6782 155.071 93.6782Z" fill="white"/>
<path d="M81.6075 137.83C81.2342 137.746 80.8452 137.704 80.4403 137.702C79.3531 137.702 78.2913 138.031 77.3947 138.645C76.6697 139.151 75.9165 139.992 75.9165 141.016C75.9164 141.283 75.9726 141.547 76.0816 141.791C76.1905 142.035 76.3497 142.254 76.5487 142.432C76.8959 142.75 77.3234 142.936 77.7136 143.054C78.2463 143.214 78.8728 143.297 79.5242 143.333C79.3863 142.943 79.3094 142.519 79.3094 142.064C79.3094 140.328 80.3951 138.854 81.6075 137.83Z" fill="#3DEB4F"/>
<path d="M83.005 131.745C82.4748 131.214 81.7557 130.917 81.0058 130.917C80.2559 130.917 79.5368 131.214 79.0065 131.745C78.4763 132.275 78.1784 132.994 78.1784 133.744C78.1784 134.494 78.4763 135.213 79.0065 135.743C79.5368 136.273 80.2559 136.571 81.0058 136.571C81.7557 136.571 82.4748 136.273 83.005 135.743C83.5353 135.213 83.8332 134.494 83.8332 133.744C83.8332 132.994 83.5353 132.275 83.005 131.745Z" fill="#3DEB4F"/>
<path d="M96.2737 137.702C97.4544 137.702 98.5266 138.092 99.3194 138.644C100.043 139.15 100.798 139.99 100.798 141.015C100.798 141.599 100.543 142.085 100.164 142.432C99.8181 142.75 99.3906 142.936 99.0004 143.054C98.4689 143.214 97.8412 143.297 97.1898 143.333C97.3278 142.943 97.4047 142.519 97.4047 142.064C97.4047 140.328 96.3201 138.854 95.1066 137.83C95.4899 137.745 95.8812 137.702 96.2737 137.702ZM95.7082 130.917C96.4581 130.917 97.1773 131.214 97.7075 131.745C98.2377 132.275 98.5356 132.994 98.5356 133.744C98.5356 134.494 98.2377 135.213 97.7075 135.743C97.1773 136.273 96.4581 136.571 95.7082 136.571C94.9584 136.571 94.2392 136.273 93.709 135.743C93.1787 135.213 92.8809 134.494 92.8809 133.744C92.8809 132.994 93.1787 132.275 93.709 131.745C94.2392 131.214 94.9584 130.917 95.7082 130.917Z" fill="#3DEB4F"/>
<path d="M88.7856 137C90.9038 137 92.8231 137.701 94.2311 138.682C95.569 139.615 96.7022 141.001 96.7022 142.493C96.7022 143.312 96.3528 143.99 95.802 144.495C95.284 144.971 94.6077 145.28 93.911 145.49C92.5188 145.912 90.6856 146.047 88.7856 146.047C86.8856 146.047 85.0523 145.912 83.6601 145.49C82.9634 145.28 82.2871 144.971 81.768 144.495C81.2195 143.991 80.8689 143.313 80.8689 142.494C80.8689 141.002 82.0021 139.616 83.34 138.683C84.7481 137.701 86.6673 137 88.7856 137ZM88.7856 126.821C89.9854 126.821 91.136 127.298 91.9844 128.146C92.8328 128.995 93.3094 130.145 93.3094 131.345C93.3094 132.545 92.8328 133.696 91.9844 134.544C91.136 135.392 89.9854 135.869 88.7856 135.869C87.5858 135.869 86.4351 135.392 85.5867 134.544C84.7384 133.696 84.2618 132.545 84.2618 131.345C84.2618 130.145 84.7384 128.995 85.5867 128.146C86.4351 127.298 87.5858 126.821 88.7856 126.821Z" fill="white"/>
<path d="M114.75 137.83C114.377 137.746 113.988 137.704 113.583 137.702C112.496 137.702 111.434 138.031 110.537 138.645C109.813 139.151 109.059 139.992 109.059 141.016C109.059 141.283 109.115 141.547 109.224 141.791C109.333 142.035 109.493 142.254 109.692 142.432C110.039 142.75 110.466 142.936 110.856 143.054C111.389 143.214 112.016 143.297 112.667 143.333C112.529 142.943 112.452 142.519 112.452 142.064C112.452 140.328 113.538 138.854 114.75 137.83Z" fill="#3DEB4F"/>
<path d="M116.148 131.745C115.618 131.214 114.898 130.917 114.149 130.917C113.399 130.917 112.68 131.214 112.149 131.745C111.619 132.275 111.321 132.994 111.321 133.744C111.321 134.494 111.619 135.213 112.149 135.743C112.68 136.273 113.399 136.571 114.149 136.571C114.898 136.571 115.618 136.273 116.148 135.743C116.678 135.213 116.976 134.494 116.976 133.744C116.976 132.994 116.678 132.275 116.148 131.745Z" fill="#3DEB4F"/>
<path d="M129.417 137.702C130.597 137.702 131.669 138.092 132.462 138.644C133.186 139.15 133.94 139.99 133.94 141.015C133.94 141.599 133.686 142.085 133.307 142.432C132.961 142.75 132.533 142.936 132.143 143.054C131.612 143.214 130.984 143.297 130.333 143.333C130.471 142.943 130.547 142.519 130.547 142.064C130.547 140.328 129.463 138.854 128.249 137.83C128.633 137.745 129.024 137.702 129.417 137.702ZM128.851 130.917C129.601 130.917 130.32 131.214 130.85 131.745C131.381 132.275 131.678 132.994 131.678 133.744C131.678 134.494 131.381 135.213 130.85 135.743C130.32 136.273 129.601 136.571 128.851 136.571C128.101 136.571 127.382 136.273 126.852 135.743C126.322 135.213 126.024 134.494 126.024 133.744C126.024 132.994 126.322 132.275 126.852 131.745C127.382 131.214 128.101 130.917 128.851 130.917Z" fill="#3DEB4F"/>
<path d="M121.928 137C124.047 137 125.966 137.701 127.374 138.682C128.712 139.615 129.845 141.001 129.845 142.493C129.845 143.312 129.496 143.99 128.945 144.495C128.427 144.971 127.751 145.28 127.054 145.49C125.662 145.912 123.828 146.047 121.928 146.047C120.028 146.047 118.195 145.912 116.803 145.49C116.106 145.28 115.43 144.971 114.911 144.495C114.362 143.991 114.012 143.313 114.012 142.494C114.012 141.002 115.145 139.616 116.483 138.683C117.891 137.701 119.81 137 121.928 137ZM121.928 126.821C123.128 126.821 124.279 127.298 125.127 128.146C125.976 128.995 126.452 130.145 126.452 131.345C126.452 132.545 125.976 133.696 125.127 134.544C124.279 135.392 123.128 135.869 121.928 135.869C120.729 135.869 119.578 135.392 118.73 134.544C117.881 133.696 117.405 132.545 117.405 131.345C117.405 130.145 117.881 128.995 118.73 128.146C119.578 127.298 120.729 126.821 121.928 126.821Z" fill="white"/>
<path d="M147.893 137.83C147.52 137.746 147.131 137.704 146.726 137.702C145.639 137.702 144.577 138.031 143.68 138.645C142.955 139.151 142.202 139.992 142.202 141.016C142.202 141.283 142.258 141.547 142.367 141.791C142.476 142.035 142.635 142.254 142.834 142.432C143.182 142.75 143.609 142.936 143.999 143.054C144.532 143.214 145.158 143.297 145.81 143.333C145.672 142.943 145.595 142.519 145.595 142.064C145.595 140.328 146.681 138.854 147.893 137.83Z" fill="#3DEB4F"/>
<path d="M149.291 131.745C148.76 131.214 148.041 130.917 147.291 130.917C146.542 130.917 145.822 131.214 145.292 131.745C144.762 132.275 144.464 132.994 144.464 133.744C144.464 134.494 144.762 135.213 145.292 135.743C145.822 136.273 146.542 136.571 147.291 136.571C148.041 136.571 148.76 136.273 149.291 135.743C149.821 135.213 150.119 134.494 150.119 133.744C150.119 132.994 149.821 132.275 149.291 131.745Z" fill="#3DEB4F"/>
<path d="M162.559 137.702C163.74 137.702 164.812 138.092 165.605 138.644C166.329 139.15 167.083 139.99 167.083 141.015C167.083 141.599 166.829 142.085 166.45 142.432C166.104 142.75 165.676 142.936 165.286 143.054C164.755 143.214 164.127 143.297 163.475 143.333C163.613 142.943 163.69 142.519 163.69 142.064C163.69 140.328 162.606 138.854 161.392 137.83C161.776 137.745 162.167 137.702 162.559 137.702ZM161.994 130.917C162.744 130.917 163.463 131.214 163.993 131.745C164.523 132.275 164.821 132.994 164.821 133.744C164.821 134.494 164.523 135.213 163.993 135.743C163.463 136.273 162.744 136.571 161.994 136.571C161.244 136.571 160.525 136.273 159.995 135.743C159.464 135.213 159.167 134.494 159.167 133.744C159.167 132.994 159.464 132.275 159.995 131.745C160.525 131.214 161.244 130.917 161.994 130.917Z" fill="#3DEB4F"/>
<path d="M155.071 137C157.189 137 159.109 137.701 160.517 138.682C161.855 139.615 162.988 141.001 162.988 142.493C162.988 143.312 162.638 143.99 162.088 144.495C161.57 144.971 160.893 145.28 160.197 145.49C158.804 145.912 156.971 146.047 155.071 146.047C153.171 146.047 151.338 145.912 149.946 145.49C149.249 145.28 148.573 144.971 148.054 144.495C147.505 143.991 147.155 143.313 147.155 142.494C147.155 141.002 148.288 139.616 149.626 138.683C151.034 137.701 152.953 137 155.071 137ZM155.071 126.821C156.271 126.821 157.422 127.298 158.27 128.146C159.118 128.995 159.595 130.145 159.595 131.345C159.595 132.545 159.118 133.696 158.27 134.544C157.422 135.392 156.271 135.869 155.071 135.869C153.871 135.869 152.721 135.392 151.872 134.544C151.024 133.696 150.547 132.545 150.547 131.345C150.547 130.145 151.024 128.995 151.872 128.146C152.721 127.298 153.871 126.821 155.071 126.821Z" fill="white"/>
<rect x="243" y="79" width="114" height="82" rx="10.5" fill="url(#paint2_linear_40000061_1044)"/>
<rect x="243.5" y="79.5" width="113" height="81" rx="10" stroke="url(#paint3_linear_40000061_1044)" stroke-opacity="0.5"/>
<path d="M271.914 119.177C270.279 118.38 268.442 117.933 266.5 117.933C264.558 117.933 262.721 118.38 261.086 119.177L262.815 122.164C263.938 121.654 265.186 121.37 266.5 121.37C267.814 121.37 269.062 121.654 270.185 122.164L271.914 119.177Z" fill="#215B2C"/>
<path d="M254.182 131.109C254.451 135.003 256.534 138.4 259.595 140.463L261.324 137.475C259.288 136.021 257.892 133.732 257.64 131.109L254.182 131.109Z" fill="#215B2C"/>
<path d="M273.405 140.463C276.466 138.4 278.549 135.003 278.818 131.109L275.36 131.109C275.108 133.732 273.712 136.021 271.676 137.475L273.405 140.463Z" fill="#215B2C"/>
<path d="M278.818 129.39C278.548 125.497 276.465 122.101 273.405 120.038L271.676 123.025C273.712 124.479 275.108 126.768 275.36 129.39L278.818 129.39Z" fill="#32A240"/>
<path d="M259.595 120.038C256.535 122.101 254.451 125.497 254.182 129.39L257.64 129.39C257.892 126.768 259.288 124.479 261.324 123.025L259.595 120.038Z" fill="#32A240"/>
<path d="M261.086 141.324C262.721 142.121 264.558 142.568 266.5 142.568C268.442 142.568 270.279 142.121 271.914 141.324L270.185 138.336C269.062 138.846 267.814 139.13 266.5 139.13C265.186 139.13 263.938 138.846 262.815 138.336L261.086 141.324Z" fill="#32A240"/>
<path d="M259.338 130.25C259.338 134.205 262.545 137.412 266.5 137.412C270.455 137.412 273.661 134.205 273.661 130.25C273.661 126.295 270.455 123.089 266.5 123.089C262.545 123.089 259.338 126.295 259.338 130.25Z" fill="#215B2C"/>
<path opacity="0.8" d="M270.631 130.176C270.938 130.283 270.938 130.717 270.631 130.824C268.732 131.488 267.238 132.982 266.574 134.881C266.467 135.188 266.033 135.188 265.926 134.881C265.262 132.982 263.768 131.488 261.869 130.824C261.562 130.717 261.562 130.283 261.869 130.176C263.768 129.512 265.262 128.019 265.926 126.119C266.033 125.813 266.467 125.813 266.574 126.119C267.238 128.019 268.732 129.512 270.631 130.176Z" fill="#3FEC52"/>
<g opacity="0.3">
<path d="M271.914 98.6767C270.279 97.8799 268.442 97.4326 266.5 97.4326C264.558 97.4326 262.721 97.8799 261.086 98.6767L262.815 101.664C263.938 101.154 265.186 100.87 266.5 100.87C267.814 100.87 269.062 101.154 270.185 101.664L271.914 98.6767Z" fill="white"/>
<path d="M254.182 110.609C254.451 114.503 256.534 117.9 259.595 119.963L261.324 116.975C259.288 115.521 257.892 113.232 257.64 110.609L254.182 110.609Z" fill="white"/>
<path d="M273.405 119.963C276.466 117.9 278.549 114.503 278.818 110.609L275.36 110.609C275.108 113.232 273.712 115.521 271.676 116.975L273.405 119.963Z" fill="white"/>
</g>
<path opacity="0.8" d="M278.818 108.89C278.548 104.997 276.465 101.601 273.405 99.5376L271.676 102.525C273.712 103.979 275.108 106.268 275.36 108.89L278.818 108.89Z" fill="white"/>
<path opacity="0.8" d="M259.595 99.5376C256.535 101.601 254.451 104.997 254.182 108.89L257.64 108.89C257.892 106.268 259.288 103.979 261.324 102.525L259.595 99.5376Z" fill="white"/>
<path opacity="0.8" d="M261.086 120.824C262.721 121.621 264.558 122.068 266.5 122.068C268.442 122.068 270.279 121.621 271.914 120.824L270.185 117.836C269.062 118.346 267.814 118.63 266.5 118.63C265.186 118.63 263.938 118.346 262.815 117.836L261.086 120.824Z" fill="white"/>
<path opacity="0.3" d="M259.338 109.75C259.338 113.705 262.545 116.912 266.5 116.912C270.455 116.912 273.661 113.705 273.661 109.75C273.661 105.795 270.455 102.589 266.5 102.589C262.545 102.589 259.338 105.795 259.338 109.75Z" fill="white"/>
<path opacity="0.8" d="M270.631 109.676C270.938 109.783 270.938 110.217 270.631 110.324C268.732 110.988 267.238 112.482 266.574 114.381C266.467 114.688 266.033 114.688 265.926 114.381C265.262 112.482 263.768 110.988 261.869 110.324C261.562 110.217 261.562 109.783 261.869 109.676C263.768 109.012 265.262 107.519 265.926 105.619C266.033 105.313 266.467 105.313 266.574 105.619C267.238 107.519 268.732 109.012 270.631 109.676Z" fill="white"/>
<path d="M305.414 119.177C303.779 118.38 301.942 117.933 300 117.933C298.058 117.933 296.221 118.38 294.586 119.177L296.315 122.164C297.438 121.654 298.686 121.37 300 121.37C301.314 121.37 302.562 121.654 303.685 122.164L305.414 119.177Z" fill="#215B2C"/>
<path d="M287.682 131.109C287.951 135.003 290.034 138.4 293.095 140.463L294.824 137.475C292.788 136.021 291.392 133.732 291.14 131.109L287.682 131.109Z" fill="#215B2C"/>
<path d="M306.905 140.463C309.966 138.4 312.049 135.003 312.318 131.109L308.86 131.109C308.608 133.732 307.212 136.021 305.176 137.475L306.905 140.463Z" fill="#215B2C"/>
<path d="M312.318 129.39C312.048 125.497 309.965 122.101 306.905 120.038L305.176 123.025C307.212 124.479 308.608 126.768 308.86 129.39L312.318 129.39Z" fill="#32A240"/>
<path d="M293.095 120.038C290.035 122.101 287.951 125.497 287.682 129.39L291.14 129.39C291.392 126.768 292.788 124.479 294.824 123.025L293.095 120.038Z" fill="#32A240"/>
<path d="M294.586 141.324C296.221 142.121 298.058 142.568 300 142.568C301.942 142.568 303.779 142.121 305.414 141.324L303.685 138.336C302.562 138.846 301.314 139.13 300 139.13C298.686 139.13 297.438 138.846 296.315 138.336L294.586 141.324Z" fill="#32A240"/>
<path d="M292.838 130.25C292.838 134.205 296.045 137.412 300 137.412C303.955 137.412 307.161 134.205 307.161 130.25C307.161 126.295 303.955 123.089 300 123.089C296.045 123.089 292.838 126.295 292.838 130.25Z" fill="#215B2C"/>
<path opacity="0.8" d="M304.131 130.176C304.438 130.283 304.438 130.717 304.131 130.824C302.232 131.488 300.738 132.982 300.074 134.881C299.967 135.188 299.533 135.188 299.426 134.881C298.762 132.982 297.268 131.488 295.369 130.824C295.062 130.717 295.062 130.283 295.369 130.176C297.268 129.512 298.762 128.019 299.426 126.119C299.533 125.813 299.967 125.813 300.074 126.119C300.738 128.019 302.232 129.512 304.131 130.176Z" fill="#3FEC52"/>
<g opacity="0.3">
<path d="M305.414 98.6767C303.779 97.8799 301.942 97.4326 300 97.4326C298.058 97.4326 296.221 97.8799 294.586 98.6767L296.315 101.664C297.438 101.154 298.686 100.87 300 100.87C301.314 100.87 302.562 101.154 303.685 101.664L305.414 98.6767Z" fill="white"/>
<path d="M287.682 110.609C287.951 114.503 290.034 117.9 293.095 119.963L294.824 116.975C292.788 115.521 291.392 113.232 291.14 110.609L287.682 110.609Z" fill="white"/>
<path d="M306.905 119.963C309.966 117.9 312.049 114.503 312.318 110.609L308.86 110.609C308.608 113.232 307.212 115.521 305.176 116.975L306.905 119.963Z" fill="white"/>
</g>
<path opacity="0.8" d="M312.318 108.89C312.048 104.997 309.965 101.601 306.905 99.5376L305.176 102.525C307.212 103.979 308.608 106.268 308.86 108.89L312.318 108.89Z" fill="white"/>
<path opacity="0.8" d="M293.095 99.5376C290.035 101.601 287.951 104.997 287.682 108.89L291.14 108.89C291.392 106.268 292.788 103.979 294.824 102.525L293.095 99.5376Z" fill="white"/>
<path opacity="0.8" d="M294.586 120.824C296.221 121.621 298.058 122.068 300 122.068C301.942 122.068 303.779 121.621 305.414 120.824L303.685 117.836C302.562 118.346 301.314 118.63 300 118.63C298.686 118.63 297.438 118.346 296.315 117.836L294.586 120.824Z" fill="white"/>
<path opacity="0.3" d="M292.838 109.75C292.838 113.705 296.045 116.912 300 116.912C303.955 116.912 307.161 113.705 307.161 109.75C307.161 105.795 303.955 102.589 300 102.589C296.045 102.589 292.838 105.795 292.838 109.75Z" fill="white"/>
<path opacity="0.8" d="M304.131 109.676C304.438 109.783 304.438 110.217 304.131 110.324C302.232 110.988 300.738 112.482 300.074 114.381C299.967 114.688 299.533 114.688 299.426 114.381C298.762 112.482 297.268 110.988 295.369 110.324C295.062 110.217 295.062 109.783 295.369 109.676C297.268 109.012 298.762 107.519 299.426 105.619C299.533 105.313 299.967 105.313 300.074 105.619C300.738 107.519 302.232 109.012 304.131 109.676Z" fill="white"/>
<path d="M338.914 119.177C337.279 118.38 335.442 117.933 333.5 117.933C331.558 117.933 329.721 118.38 328.086 119.177L329.815 122.164C330.938 121.654 332.186 121.37 333.5 121.37C334.814 121.37 336.062 121.654 337.185 122.164L338.914 119.177Z" fill="#215B2C"/>
<path d="M321.182 131.109C321.451 135.003 323.534 138.4 326.595 140.463L328.324 137.475C326.288 136.021 324.892 133.732 324.64 131.109L321.182 131.109Z" fill="#215B2C"/>
<path d="M340.405 140.463C343.466 138.4 345.549 135.003 345.818 131.109L342.36 131.109C342.108 133.732 340.712 136.021 338.676 137.475L340.405 140.463Z" fill="#215B2C"/>
<path d="M345.818 129.39C345.548 125.497 343.465 122.101 340.405 120.038L338.676 123.025C340.712 124.479 342.108 126.768 342.36 129.39L345.818 129.39Z" fill="#32A240"/>
<path d="M326.595 120.038C323.535 122.101 321.451 125.497 321.182 129.39L324.64 129.39C324.892 126.768 326.288 124.479 328.324 123.025L326.595 120.038Z" fill="#32A240"/>
<path d="M328.086 141.324C329.721 142.121 331.558 142.568 333.5 142.568C335.442 142.568 337.279 142.121 338.914 141.324L337.185 138.336C336.062 138.846 334.814 139.13 333.5 139.13C332.186 139.13 330.938 138.846 329.815 138.336L328.086 141.324Z" fill="#32A240"/>
<path d="M326.338 130.25C326.338 134.205 329.545 137.412 333.5 137.412C337.455 137.412 340.661 134.205 340.661 130.25C340.661 126.295 337.455 123.089 333.5 123.089C329.545 123.089 326.338 126.295 326.338 130.25Z" fill="#215B2C"/>
<path opacity="0.8" d="M337.631 130.176C337.938 130.283 337.938 130.717 337.631 130.824C335.732 131.488 334.238 132.982 333.574 134.881C333.467 135.188 333.033 135.188 332.926 134.881C332.262 132.982 330.768 131.488 328.869 130.824C328.562 130.717 328.562 130.283 328.869 130.176C330.768 129.512 332.262 128.019 332.926 126.119C333.033 125.813 333.467 125.813 333.574 126.119C334.238 128.019 335.732 129.512 337.631 130.176Z" fill="#3FEC52"/>
<g opacity="0.3">
<path d="M338.914 98.6767C337.279 97.8799 335.442 97.4326 333.5 97.4326C331.558 97.4326 329.721 97.8799 328.086 98.6767L329.815 101.664C330.938 101.154 332.186 100.87 333.5 100.87C334.814 100.87 336.062 101.154 337.185 101.664L338.914 98.6767Z" fill="white"/>
<path d="M321.182 110.609C321.451 114.503 323.534 117.9 326.595 119.963L328.324 116.975C326.288 115.521 324.892 113.232 324.64 110.609L321.182 110.609Z" fill="white"/>
<path d="M340.405 119.963C343.466 117.9 345.549 114.503 345.818 110.609L342.36 110.609C342.108 113.232 340.712 115.521 338.676 116.975L340.405 119.963Z" fill="white"/>
</g>
<path opacity="0.8" d="M345.818 108.89C345.548 104.997 343.465 101.601 340.405 99.5376L338.676 102.525C340.712 103.979 342.108 106.268 342.36 108.89L345.818 108.89Z" fill="white"/>
<path opacity="0.8" d="M326.595 99.5376C323.535 101.601 321.451 104.997 321.182 108.89L324.64 108.89C324.892 106.268 326.288 103.979 328.324 102.525L326.595 99.5376Z" fill="white"/>
<path opacity="0.8" d="M328.086 120.824C329.721 121.621 331.558 122.068 333.5 122.068C335.442 122.068 337.279 121.621 338.914 120.824L337.185 117.836C336.062 118.346 334.814 118.63 333.5 118.63C332.186 118.63 330.938 118.346 329.815 117.836L328.086 120.824Z" fill="white"/>
<path opacity="0.3" d="M326.338 109.75C326.338 113.705 329.545 116.912 333.5 116.912C337.455 116.912 340.661 113.705 340.661 109.75C340.661 105.795 337.455 102.589 333.5 102.589C329.545 102.589 326.338 105.795 326.338 109.75Z" fill="white"/>
<path opacity="0.8" d="M337.631 109.676C337.938 109.783 337.938 110.217 337.631 110.324C335.732 110.988 334.238 112.482 333.574 114.381C333.467 114.688 333.033 114.688 332.926 114.381C332.262 112.482 330.768 110.988 328.869 110.324C328.562 110.217 328.562 109.783 328.869 109.676C330.768 109.012 332.262 107.519 332.926 105.619C333.033 105.313 333.467 105.313 333.574 105.619C334.238 107.519 335.732 109.012 337.631 109.676Z" fill="white"/>
<rect x="421.5" y="79" width="114" height="82" rx="10.5" fill="url(#paint4_linear_40000061_1044)"/>
<rect x="422" y="79.5" width="113" height="81" rx="10" stroke="url(#paint5_linear_40000061_1044)" stroke-opacity="0.5"/>
<path d="M443.5 102.084C446.096 102.084 448.456 102.835 450.193 103.895C451.059 104.424 451.801 105.048 452.336 105.726C452.862 106.392 453.25 107.189 453.25 108.042C453.25 108.957 452.805 109.679 452.163 110.193C451.557 110.681 448.993 109.596 448.143 109.822C446.433 110.273 445.915 111.834 443.5 111.834C441.085 111.834 438.804 111.682 437.094 111.229C436.244 111.004 435.443 110.681 434.837 110.193C434.194 109.678 433.75 108.957 433.75 108.042C433.75 107.189 434.138 106.392 434.664 105.725C435.199 105.048 435.939 104.425 436.807 103.894C438.544 102.837 440.905 102.084 443.5 102.084ZM443.5 90.167C444.937 90.167 446.314 90.7377 447.33 91.7535C448.346 92.7693 448.917 94.1471 448.917 95.5837C448.917 97.0202 448.346 98.398 447.33 99.4138C446.314 100.43 444.937 101 443.5 101C442.063 101 440.686 100.43 439.67 99.4138C438.654 98.398 438.083 97.0202 438.083 95.5837C438.083 94.1471 438.654 92.7693 439.67 91.7535C440.686 90.7377 442.063 90.167 443.5 90.167Z" fill="white"/>
<path d="M451.816 104.008C452.148 104.041 452.462 104.171 452.72 104.382L452.843 104.494L452.955 104.618C453.193 104.909 453.328 105.272 453.336 105.65H456.463C457.348 105.65 458.196 106.002 458.822 106.628C459.448 107.254 459.8 108.102 459.8 108.987V113.662C459.8 114.547 459.448 115.397 458.822 116.022C458.196 116.648 457.348 117 456.463 117H446.838C445.953 117 445.103 116.648 444.478 116.022C443.852 115.397 443.5 114.547 443.5 113.662V108.987C443.5 108.102 443.852 107.254 444.478 106.628C445.103 106.002 445.953 105.65 446.838 105.65H449.965C449.974 105.216 450.149 104.802 450.457 104.494L450.58 104.382C450.88 104.136 451.259 104 451.65 104L451.816 104.008ZM448.9 110.95C448.801 110.95 448.705 110.989 448.635 111.06C448.564 111.13 448.525 111.226 448.525 111.325C448.525 111.424 448.565 111.52 448.635 111.59C448.705 111.66 448.801 111.7 448.9 111.7C449 111.7 449.095 111.66 449.165 111.59C449.235 111.52 449.275 111.425 449.275 111.325C449.275 111.226 449.235 111.13 449.165 111.06C449.095 110.989 449 110.95 448.9 110.95ZM454.4 110.95C454.301 110.95 454.205 110.989 454.135 111.06C454.064 111.13 454.025 111.226 454.025 111.325C454.025 111.424 454.065 111.52 454.135 111.59C454.205 111.66 454.301 111.7 454.4 111.7C454.5 111.7 454.595 111.66 454.665 111.59C454.735 111.52 454.775 111.425 454.775 111.325C454.775 111.226 454.735 111.13 454.665 111.06C454.595 110.989 454.5 110.95 454.4 110.95Z" fill="#3FEC52" stroke="#161E1E" stroke-width="2"/>
<path d="M477.8 102.084C480.396 102.084 482.756 102.835 484.493 103.895C485.36 104.424 486.101 105.048 486.636 105.726C487.162 106.392 487.55 107.189 487.55 108.042C487.55 108.957 487.105 109.679 486.463 110.193C485.857 110.681 483.293 109.596 482.443 109.822C480.733 110.273 480.215 111.834 477.8 111.834C475.385 111.834 473.104 111.682 471.394 111.229C470.544 111.004 469.743 110.681 469.137 110.193C468.494 109.678 468.05 108.957 468.05 108.042C468.05 107.189 468.438 106.392 468.964 105.725C469.5 105.048 470.239 104.425 471.107 103.894C472.844 102.837 475.205 102.084 477.8 102.084ZM477.8 90.167C479.237 90.167 480.614 90.7377 481.63 91.7535C482.646 92.7693 483.217 94.1471 483.217 95.5837C483.217 97.0202 482.646 98.398 481.63 99.4138C480.614 100.43 479.237 101 477.8 101C476.363 101 474.986 100.43 473.97 99.4138C472.954 98.398 472.383 97.0202 472.383 95.5837C472.383 94.1471 472.954 92.7693 473.97 91.7535C474.986 90.7377 476.363 90.167 477.8 90.167Z" fill="white"/>
<path d="M486.116 104.008C486.448 104.041 486.762 104.171 487.02 104.382L487.143 104.494L487.255 104.618C487.493 104.909 487.628 105.272 487.636 105.65H490.763C491.648 105.65 492.497 106.002 493.122 106.628C493.748 107.254 494.1 108.102 494.1 108.987V113.662C494.1 114.547 493.748 115.397 493.122 116.022C492.497 116.648 491.648 117 490.763 117H481.138C480.253 117 479.403 116.648 478.778 116.022C478.152 115.397 477.8 114.547 477.8 113.662V108.987C477.8 108.102 478.152 107.254 478.778 106.628C479.403 106.002 480.253 105.65 481.138 105.65H484.265C484.274 105.216 484.449 104.802 484.757 104.494L484.88 104.382C485.18 104.136 485.559 104 485.95 104L486.116 104.008ZM483.2 110.95C483.101 110.95 483.005 110.989 482.935 111.06C482.864 111.13 482.825 111.226 482.825 111.325C482.825 111.424 482.865 111.52 482.935 111.59C483.005 111.66 483.101 111.7 483.2 111.7C483.3 111.7 483.395 111.66 483.465 111.59C483.535 111.52 483.575 111.425 483.575 111.325C483.575 111.226 483.535 111.13 483.465 111.06C483.395 110.989 483.3 110.95 483.2 110.95ZM488.7 110.95C488.601 110.95 488.505 110.989 488.435 111.06C488.364 111.13 488.325 111.226 488.325 111.325C488.325 111.424 488.365 111.52 488.435 111.59C488.505 111.66 488.601 111.7 488.7 111.7C488.8 111.7 488.895 111.66 488.965 111.59C489.035 111.52 489.075 111.425 489.075 111.325C489.075 111.226 489.035 111.13 488.965 111.06C488.895 110.989 488.8 110.95 488.7 110.95Z" fill="#3FEC52" stroke="#161E1E" stroke-width="2"/>
<path d="M512.1 102.084C514.696 102.084 517.056 102.835 518.793 103.895C519.66 104.424 520.401 105.048 520.936 105.726C521.462 106.392 521.85 107.189 521.85 108.042C521.85 108.957 521.405 109.679 520.764 110.193C520.157 110.681 517.593 109.596 516.743 109.822C515.033 110.273 514.515 111.834 512.1 111.834C509.685 111.834 507.404 111.682 505.694 111.229C504.844 111.004 504.043 110.681 503.437 110.193C502.794 109.678 502.35 108.957 502.35 108.042C502.35 107.189 502.738 106.392 503.264 105.725C503.8 105.048 504.54 104.425 505.407 103.894C507.144 102.837 509.506 102.084 512.1 102.084ZM512.1 90.167C513.537 90.167 514.914 90.7377 515.93 91.7535C516.946 92.7693 517.517 94.1471 517.517 95.5837C517.517 97.0202 516.946 98.398 515.93 99.4138C514.914 100.43 513.537 101 512.1 101C510.664 101 509.286 100.43 508.27 99.4138C507.254 98.398 506.683 97.0202 506.683 95.5837C506.683 94.1471 507.254 92.7693 508.27 91.7535C509.286 90.7377 510.664 90.167 512.1 90.167Z" fill="white"/>
<path d="M520.417 104.008C520.748 104.041 521.062 104.171 521.32 104.382L521.443 104.494L521.555 104.618C521.793 104.909 521.928 105.272 521.936 105.65H525.063C525.948 105.65 526.797 106.002 527.422 106.628C528.048 107.254 528.4 108.102 528.4 108.987V113.662C528.4 114.547 528.048 115.397 527.422 116.022C526.797 116.648 525.948 117 525.063 117H515.438C514.553 117 513.704 116.648 513.078 116.022C512.452 115.397 512.1 114.547 512.1 113.662V108.987C512.1 108.102 512.452 107.254 513.078 106.628C513.704 106.002 514.553 105.65 515.438 105.65H518.565C518.574 105.216 518.749 104.802 519.057 104.494L519.18 104.382C519.48 104.136 519.859 104 520.25 104L520.417 104.008ZM517.5 110.95C517.401 110.95 517.305 110.989 517.235 111.06C517.165 111.13 517.125 111.226 517.125 111.325C517.126 111.424 517.165 111.52 517.235 111.59C517.305 111.66 517.401 111.7 517.5 111.7C517.6 111.7 517.695 111.66 517.765 111.59C517.835 111.52 517.875 111.425 517.875 111.325C517.875 111.226 517.835 111.13 517.765 111.06C517.695 110.989 517.6 110.95 517.5 110.95ZM523 110.95C522.901 110.95 522.805 110.989 522.735 111.06C522.665 111.13 522.625 111.226 522.625 111.325C522.626 111.424 522.665 111.52 522.735 111.59C522.805 111.66 522.901 111.7 523 111.7C523.1 111.7 523.195 111.66 523.265 111.59C523.335 111.52 523.375 111.425 523.375 111.325C523.375 111.226 523.335 111.13 523.265 111.06C523.195 110.989 523.1 110.95 523 110.95Z" fill="#3FEC52" stroke="#161E1E" stroke-width="2"/>
<path d="M442.5 137.084C445.096 137.084 447.456 137.835 449.193 138.895C450.059 139.424 450.801 140.048 451.336 140.726C451.862 141.392 452.25 142.189 452.25 143.042C452.25 143.957 451.805 144.679 451.163 145.193C450.557 145.681 447.993 144.596 447.143 144.822C445.433 145.273 444.915 146.834 442.5 146.834C440.085 146.834 437.804 146.682 436.094 146.229C435.244 146.004 434.443 145.681 433.837 145.193C433.194 144.678 432.75 143.957 432.75 143.042C432.75 142.189 433.138 141.392 433.664 140.725C434.199 140.048 434.939 139.425 435.807 138.894C437.544 137.837 439.905 137.084 442.5 137.084ZM442.5 125.167C443.937 125.167 445.314 125.738 446.33 126.753C447.346 127.769 447.917 129.147 447.917 130.584C447.917 132.02 447.346 133.398 446.33 134.414C445.314 135.43 443.937 136 442.5 136C441.063 136 439.686 135.43 438.67 134.414C437.654 133.398 437.083 132.02 437.083 130.584C437.083 129.147 437.654 127.769 438.67 126.753C439.686 125.738 441.063 125.167 442.5 125.167Z" fill="white"/>
<path d="M450.816 139.008C451.148 139.041 451.462 139.171 451.72 139.382L451.843 139.494L451.955 139.618C452.193 139.909 452.328 140.272 452.336 140.65H455.463C456.348 140.65 457.196 141.002 457.822 141.628C458.448 142.254 458.8 143.102 458.8 143.987V148.662C458.8 149.547 458.448 150.397 457.822 151.022C457.196 151.648 456.348 152 455.463 152H445.838C444.953 152 444.103 151.648 443.478 151.022C442.852 150.397 442.5 149.547 442.5 148.662V143.987C442.5 143.102 442.852 142.254 443.478 141.628C444.103 141.002 444.953 140.65 445.838 140.65H448.965C448.974 140.216 449.149 139.802 449.457 139.494L449.58 139.382C449.88 139.136 450.259 139 450.65 139L450.816 139.008ZM447.9 145.95C447.801 145.95 447.705 145.989 447.635 146.06C447.564 146.13 447.525 146.226 447.525 146.325C447.525 146.424 447.565 146.52 447.635 146.59C447.705 146.66 447.801 146.7 447.9 146.7C448 146.7 448.095 146.66 448.165 146.59C448.235 146.52 448.275 146.425 448.275 146.325C448.275 146.226 448.235 146.13 448.165 146.06C448.095 145.989 448 145.95 447.9 145.95ZM453.4 145.95C453.301 145.95 453.205 145.989 453.135 146.06C453.064 146.13 453.025 146.226 453.025 146.325C453.025 146.424 453.065 146.52 453.135 146.59C453.205 146.66 453.301 146.7 453.4 146.7C453.5 146.7 453.595 146.66 453.665 146.59C453.735 146.52 453.775 146.425 453.775 146.325C453.775 146.226 453.735 146.13 453.665 146.06C453.595 145.989 453.5 145.95 453.4 145.95Z" fill="#3FEC52" stroke="#161E1E" stroke-width="2"/>
<path d="M477.8 137.084C480.396 137.084 482.756 137.835 484.493 138.895C485.36 139.424 486.101 140.048 486.636 140.726C487.162 141.392 487.55 142.189 487.55 143.042C487.55 143.957 487.105 144.679 486.463 145.193C485.857 145.681 483.293 144.596 482.443 144.822C480.733 145.273 480.215 146.834 477.8 146.834C475.385 146.834 473.104 146.682 471.394 146.229C470.544 146.004 469.743 145.681 469.137 145.193C468.494 144.678 468.05 143.957 468.05 143.042C468.05 142.189 468.438 141.392 468.964 140.725C469.5 140.048 470.239 139.425 471.107 138.894C472.844 137.837 475.205 137.084 477.8 137.084ZM477.8 125.167C479.237 125.167 480.614 125.738 481.63 126.753C482.646 127.769 483.217 129.147 483.217 130.584C483.217 132.02 482.646 133.398 481.63 134.414C480.614 135.43 479.237 136 477.8 136C476.363 136 474.986 135.43 473.97 134.414C472.954 133.398 472.383 132.02 472.383 130.584C472.383 129.147 472.954 127.769 473.97 126.753C474.986 125.738 476.363 125.167 477.8 125.167Z" fill="white"/>
<path d="M486.116 139.008C486.448 139.041 486.762 139.171 487.02 139.382L487.143 139.494L487.255 139.618C487.493 139.909 487.628 140.272 487.636 140.65H490.763C491.648 140.65 492.497 141.002 493.122 141.628C493.748 142.254 494.1 143.102 494.1 143.987V148.662C494.1 149.547 493.748 150.397 493.122 151.022C492.497 151.648 491.648 152 490.763 152H481.138C480.253 152 479.403 151.648 478.778 151.022C478.152 150.397 477.8 149.547 477.8 148.662V143.987C477.8 143.102 478.152 142.254 478.778 141.628C479.403 141.002 480.253 140.65 481.138 140.65H484.265C484.274 140.216 484.449 139.802 484.757 139.494L484.88 139.382C485.18 139.136 485.559 139 485.95 139L486.116 139.008ZM483.2 145.95C483.101 145.95 483.005 145.989 482.935 146.06C482.864 146.13 482.825 146.226 482.825 146.325C482.825 146.424 482.865 146.52 482.935 146.59C483.005 146.66 483.101 146.7 483.2 146.7C483.3 146.7 483.395 146.66 483.465 146.59C483.535 146.52 483.575 146.425 483.575 146.325C483.575 146.226 483.535 146.13 483.465 146.06C483.395 145.989 483.3 145.95 483.2 145.95ZM488.7 145.95C488.601 145.95 488.505 145.989 488.435 146.06C488.364 146.13 488.325 146.226 488.325 146.325C488.325 146.424 488.365 146.52 488.435 146.59C488.505 146.66 488.601 146.7 488.7 146.7C488.8 146.7 488.895 146.66 488.965 146.59C489.035 146.52 489.075 146.425 489.075 146.325C489.075 146.226 489.035 146.13 488.965 146.06C488.895 145.989 488.8 145.95 488.7 145.95Z" fill="#3FEC52" stroke="#161E1E" stroke-width="2"/>
<path d="M513.1 137.084C515.696 137.084 518.056 137.835 519.793 138.895C520.66 139.424 521.401 140.048 521.936 140.726C522.462 141.392 522.85 142.189 522.85 143.042C522.85 143.957 522.405 144.679 521.764 145.193C521.157 145.681 518.593 144.596 517.743 144.822C516.033 145.273 515.515 146.834 513.1 146.834C510.685 146.834 508.404 146.682 506.694 146.229C505.844 146.004 505.043 145.681 504.437 145.193C503.794 144.678 503.35 143.957 503.35 143.042C503.35 142.189 503.738 141.392 504.264 140.725C504.8 140.048 505.54 139.425 506.407 138.894C508.144 137.837 510.506 137.084 513.1 137.084ZM513.1 125.167C514.537 125.167 515.914 125.738 516.93 126.753C517.946 127.769 518.517 129.147 518.517 130.584C518.517 132.02 517.946 133.398 516.93 134.414C515.914 135.43 514.537 136 513.1 136C511.664 136 510.286 135.43 509.27 134.414C508.254 133.398 507.683 132.02 507.683 130.584C507.683 129.147 508.254 127.769 509.27 126.753C510.286 125.738 511.664 125.167 513.1 125.167Z" fill="white"/>
<path d="M521.417 139.008C521.748 139.041 522.062 139.171 522.32 139.382L522.443 139.494L522.555 139.618C522.793 139.909 522.928 140.272 522.936 140.65H526.063C526.948 140.65 527.797 141.002 528.422 141.628C529.048 142.254 529.4 143.102 529.4 143.987V148.662C529.4 149.547 529.048 150.397 528.422 151.022C527.797 151.648 526.948 152 526.063 152H516.438C515.553 152 514.704 151.648 514.078 151.022C513.452 150.397 513.1 149.547 513.1 148.662V143.987C513.1 143.102 513.452 142.254 514.078 141.628C514.704 141.002 515.553 140.65 516.438 140.65H519.565C519.574 140.216 519.749 139.802 520.057 139.494L520.18 139.382C520.48 139.136 520.859 139 521.25 139L521.417 139.008ZM518.5 145.95C518.401 145.95 518.305 145.989 518.235 146.06C518.165 146.13 518.125 146.226 518.125 146.325C518.126 146.424 518.165 146.52 518.235 146.59C518.305 146.66 518.401 146.7 518.5 146.7C518.6 146.7 518.695 146.66 518.765 146.59C518.835 146.52 518.875 146.425 518.875 146.325C518.875 146.226 518.835 146.13 518.765 146.06C518.695 145.989 518.6 145.95 518.5 145.95ZM524 145.95C523.901 145.95 523.805 145.989 523.735 146.06C523.665 146.13 523.625 146.226 523.625 146.325C523.626 146.424 523.665 146.52 523.735 146.59C523.805 146.66 523.901 146.7 524 146.7C524.1 146.7 524.195 146.66 524.265 146.59C524.335 146.52 524.375 146.425 524.375 146.325C524.375 146.226 524.335 146.13 524.265 146.06C524.195 145.989 524.1 145.95 524 145.95Z" fill="#3FEC52" stroke="#161E1E" stroke-width="2"/>
<defs>
<linearGradient id="paint0_linear_40000061_1044" x1="64.5" y1="79" x2="142.242" y2="187.08" gradientUnits="userSpaceOnUse">
<stop stop-color="white" stop-opacity="0.03"/>
<stop offset="1" stop-color="white" stop-opacity="0.08"/>
</linearGradient>
<linearGradient id="paint1_linear_40000061_1044" x1="64.5" y1="79" x2="141.936" y2="188.001" gradientUnits="userSpaceOnUse">
<stop offset="0.1" stop-color="white"/>
<stop offset="0.454409" stop-color="white" stop-opacity="0"/>
<stop offset="0.55" stop-color="white" stop-opacity="0"/>
<stop offset="0.9" stop-color="white"/>
</linearGradient>
<linearGradient id="paint2_linear_40000061_1044" x1="243" y1="79" x2="320.742" y2="187.08" gradientUnits="userSpaceOnUse">
<stop stop-color="white" stop-opacity="0.03"/>
<stop offset="1" stop-color="white" stop-opacity="0.08"/>
</linearGradient>
<linearGradient id="paint3_linear_40000061_1044" x1="243" y1="79" x2="320.436" y2="188.001" gradientUnits="userSpaceOnUse">
<stop offset="0.1" stop-color="white"/>
<stop offset="0.454409" stop-color="white" stop-opacity="0"/>
<stop offset="0.55" stop-color="white" stop-opacity="0"/>
<stop offset="0.9" stop-color="white"/>
</linearGradient>
<linearGradient id="paint4_linear_40000061_1044" x1="421.5" y1="79" x2="499.242" y2="187.08" gradientUnits="userSpaceOnUse">
<stop stop-color="white" stop-opacity="0.03"/>
<stop offset="1" stop-color="white" stop-opacity="0.08"/>
</linearGradient>
<linearGradient id="paint5_linear_40000061_1044" x1="421.5" y1="79" x2="498.936" y2="188.001" gradientUnits="userSpaceOnUse">
<stop offset="0.1" stop-color="white"/>
<stop offset="0.454409" stop-color="white" stop-opacity="0"/>
<stop offset="0.55" stop-color="white" stop-opacity="0"/>
<stop offset="0.9" stop-color="white"/>
</linearGradient>
</defs>
</svg>
