<svg width="392" height="350" viewBox="0 0 392 350" fill="none" xmlns="http://www.w3.org/2000/svg">
<rect width="392" height="350" fill="black" fill-opacity="0.2"/>
<rect x="168" y="59" width="56" height="56" rx="10.5" fill="url(#paint0_linear_40000061_1028)"/>
<rect x="168.5" y="59.5" width="55" height="55" rx="10" stroke="url(#paint1_linear_40000061_1028)" stroke-opacity="0.5"/>
<path fill-rule="evenodd" clip-rule="evenodd" d="M196 75.3335V82.9168C196 83.381 196.184 83.8261 196.513 84.1543C196.841 84.4825 197.286 84.6668 197.75 84.6668H205.333V96.3335C205.333 96.9523 205.088 97.5458 204.65 97.9834C204.212 98.421 203.619 98.6668 203 98.6668H189C188.381 98.6668 187.788 98.421 187.35 97.9834C186.913 97.5458 186.667 96.9523 186.667 96.3335V77.6668C186.667 77.048 186.913 76.4545 187.35 76.0169C187.788 75.5793 188.381 75.3335 189 75.3335H196ZM195.075 87.202C194.856 86.9833 194.559 86.8604 194.25 86.8604C193.941 86.8604 193.644 86.9833 193.425 87.202L190.951 89.6765C190.732 89.8953 190.609 90.192 190.609 90.5013C190.609 90.8107 190.732 91.1074 190.951 91.3262L193.424 93.8018C193.643 94.0207 193.94 94.1438 194.249 94.1439C194.559 94.144 194.855 94.0212 195.074 93.8024C195.293 93.5837 195.416 93.2869 195.416 92.9774C195.417 92.6679 195.294 92.3711 195.075 92.1522L193.425 90.5002L195.075 88.8505C195.294 88.6317 195.416 88.335 195.416 88.0257C195.416 87.7163 195.294 87.4196 195.075 87.2008V87.202ZM198.575 87.202C198.355 86.9895 198.06 86.8719 197.754 86.8745C197.448 86.8772 197.156 86.9999 196.939 87.2162C196.723 87.4325 196.6 87.7251 196.598 88.031C196.595 88.3369 196.713 88.6316 196.925 88.8517L198.575 90.5013L196.925 92.1522C196.713 92.3722 196.595 92.6669 196.598 92.9728C196.6 93.2787 196.723 93.5713 196.939 93.7876C197.156 94.0039 197.448 94.1266 197.754 94.1293C198.06 94.1319 198.355 94.0143 198.575 93.8018L201.049 91.3262C201.268 91.1074 201.391 90.8107 201.391 90.5013C201.391 90.192 201.268 89.8953 201.049 89.6765L198.575 87.202ZM198.333 75.3837C198.775 75.4774 199.181 75.6975 199.5 76.0172L204.65 81.1668C204.969 81.4862 205.19 81.8915 205.283 82.3335H198.333V75.3837Z" fill="#3FEC52"/>
<rect x="39" y="235" width="56" height="56" rx="10.5" fill="url(#paint2_linear_40000061_1028)"/>
<rect x="39.5" y="235.5" width="55" height="55" rx="10" stroke="url(#paint3_linear_40000061_1028)" stroke-opacity="0.5"/>
<path d="M66.1767 257.336C65.3799 258.971 64.9326 260.808 64.9326 262.75C64.9326 264.692 65.3799 266.529 66.1767 268.164L69.1642 266.435C68.6541 265.312 68.3699 264.064 68.3699 262.75C68.3699 261.436 68.6541 260.188 69.1642 259.065L66.1767 257.336Z" fill="#215B2C"/>
<path d="M78.1091 275.067C82.0034 274.798 85.3998 272.715 87.4633 269.655L84.4755 267.926C83.0213 269.962 80.7318 271.358 78.1091 271.61V275.067Z" fill="#215B2C"/>
<path d="M87.4633 255.845C85.3998 252.784 82.0034 250.701 78.1091 250.432V253.889C80.7318 254.142 83.0213 255.538 84.4755 257.574L87.4633 255.845Z" fill="#215B2C"/>
<path d="M76.3905 250.432C72.4967 250.701 69.1008 252.784 67.0376 255.845L70.025 257.573C71.4791 255.538 73.7682 254.142 76.3905 253.889V250.432Z" fill="#32A240"/>
<path d="M67.0376 269.655C69.1008 272.715 72.4967 274.799 76.3905 275.068V271.61C73.7682 271.358 71.4791 269.962 70.025 267.926L67.0376 269.655Z" fill="#32A240"/>
<path d="M88.3239 268.164C89.1209 266.529 89.5682 264.692 89.5682 262.75C89.5682 260.808 89.1209 258.971 88.3239 257.336L85.3362 259.065C85.8463 260.188 86.1305 261.436 86.1305 262.75C86.1305 264.064 85.8463 265.312 85.3362 266.435L88.3239 268.164Z" fill="#32A240"/>
<path d="M77.2504 269.911C81.2054 269.911 84.4118 266.705 84.4118 262.75C84.4118 258.795 81.2054 255.588 77.2504 255.588C73.2952 255.588 70.0889 258.795 70.0889 262.75C70.0889 266.705 73.2952 269.911 77.2504 269.911Z" fill="#215B2C"/>
<path opacity="0.8" d="M77.176 258.619C77.2832 258.312 77.7168 258.312 77.824 258.619C78.4882 260.518 79.9816 262.011 81.881 262.676C82.1876 262.783 82.1877 263.217 81.881 263.324C79.9816 263.988 78.4882 265.481 77.824 267.381C77.7168 267.687 77.2831 267.687 77.1759 267.381C76.5117 265.481 75.0183 263.988 73.1189 263.324C72.8123 263.217 72.8123 262.783 73.1189 262.676C75.0185 262.012 76.512 260.518 77.176 258.619Z" fill="#3FEC52"/>
<g opacity="0.3">
<path d="M45.6767 257.336C44.8799 258.971 44.4326 260.808 44.4326 262.75C44.4326 264.692 44.8799 266.529 45.6767 268.164L48.6642 266.435C48.1541 265.312 47.8699 264.064 47.8699 262.75C47.8699 261.436 48.1541 260.188 48.6642 259.065L45.6767 257.336Z" fill="white"/>
<path d="M57.6091 275.067C61.5034 274.798 64.8998 272.715 66.9633 269.655L63.9755 267.926C62.5213 269.962 60.2318 271.358 57.6091 271.61V275.067Z" fill="white"/>
<path d="M66.9633 255.845C64.8998 252.784 61.5034 250.701 57.6091 250.432V253.889C60.2318 254.142 62.5213 255.538 63.9755 257.574L66.9633 255.845Z" fill="white"/>
</g>
<path opacity="0.8" d="M55.8905 250.432C51.9967 250.701 48.6008 252.784 46.5376 255.845L49.525 257.573C50.9791 255.538 53.2682 254.142 55.8905 253.889V250.432Z" fill="white"/>
<path opacity="0.8" d="M46.5376 269.655C48.6008 272.715 51.9967 274.799 55.8905 275.068V271.61C53.2682 271.358 50.9791 269.962 49.525 267.926L46.5376 269.655Z" fill="white"/>
<path opacity="0.8" d="M67.8239 268.164C68.6209 266.529 69.0682 264.692 69.0682 262.75C69.0682 260.808 68.6209 258.971 67.8239 257.336L64.8362 259.065C65.3463 260.188 65.6305 261.436 65.6305 262.75C65.6305 264.064 65.3463 265.312 64.8362 266.435L67.8239 268.164Z" fill="white"/>
<path opacity="0.3" d="M56.7504 269.911C60.7054 269.911 63.9118 266.705 63.9118 262.75C63.9118 258.795 60.7054 255.588 56.7504 255.588C52.7952 255.588 49.5889 258.795 49.5889 262.75C49.5889 266.705 52.7952 269.911 56.7504 269.911Z" fill="white"/>
<path opacity="0.8" d="M56.676 258.619C56.7832 258.312 57.2168 258.312 57.324 258.619C57.9882 260.518 59.4816 262.011 61.381 262.676C61.6876 262.783 61.6877 263.217 61.381 263.324C59.4816 263.988 57.9882 265.481 57.324 267.381C57.2168 267.687 56.7831 267.687 56.6759 267.381C56.0117 265.481 54.5183 263.988 52.6189 263.324C52.3123 263.217 52.3123 262.783 52.6189 262.676C54.5185 262.012 56.012 260.518 56.676 258.619Z" fill="white"/>
<rect x="168" y="235" width="56" height="56" rx="10.5" fill="url(#paint4_linear_40000061_1028)"/>
<rect x="168.5" y="235.5" width="55" height="55" rx="10" stroke="url(#paint5_linear_40000061_1028)" stroke-opacity="0.5"/>
<path d="M197.058 249.058C197.058 248.777 196.946 248.508 196.748 248.31C196.55 248.111 196.281 248 196 248C195.719 248 195.45 248.111 195.252 248.31C195.054 248.508 194.942 248.777 194.942 249.058V250.538H188.596C187.642 250.538 186.728 250.917 186.053 251.592C185.379 252.266 185 253.181 185 254.135V261.327C185 262.281 185.379 263.195 186.053 263.87C186.728 264.544 187.642 264.923 188.596 264.923H203.404C204.358 264.923 205.272 264.544 205.947 263.87C206.621 263.195 207 262.281 207 261.327V254.135C207 253.181 206.621 252.266 205.947 251.592C205.272 250.917 204.358 250.538 203.404 250.538H197.058V249.058ZM191.769 259.846C191.208 259.846 190.67 259.623 190.273 259.227C189.877 258.83 189.654 258.292 189.654 257.731C189.654 257.17 189.877 256.632 190.273 256.235C190.67 255.838 191.208 255.615 191.769 255.615C192.33 255.615 192.868 255.838 193.265 256.235C193.662 256.632 193.885 257.17 193.885 257.731C193.885 258.292 193.662 258.83 193.265 259.227C192.868 259.623 192.33 259.846 191.769 259.846ZM202.346 257.731C202.346 258.292 202.123 258.83 201.727 259.227C201.33 259.623 200.792 259.846 200.231 259.846C199.67 259.846 199.132 259.623 198.735 259.227C198.338 258.83 198.115 258.292 198.115 257.731C198.115 257.17 198.338 256.632 198.735 256.235C199.132 255.838 199.67 255.615 200.231 255.615C200.792 255.615 201.33 255.838 201.727 256.235C202.123 256.632 202.346 257.17 202.346 257.731Z" fill="#3FEC52"/>
<g clip-path="url(#clip0_40000061_1028)">
<path d="M204.557 274.85C204.094 275.801 203.833 276.87 203.833 278C203.833 279.13 204.094 280.199 204.557 281.15L206.295 280.144C205.999 279.491 205.833 278.765 205.833 278C205.833 277.235 205.999 276.509 206.295 275.856L204.557 274.85Z" fill="#5E6464"/>
<path d="M211.5 285.167C213.765 285.01 215.742 283.798 216.942 282.018L215.204 281.012C214.358 282.196 213.026 283.008 211.5 283.155V285.167Z" fill="#5E6464"/>
<path d="M216.942 273.983C215.742 272.202 213.765 270.99 211.5 270.833V272.845C213.026 272.992 214.358 273.804 215.204 274.989L216.942 273.983Z" fill="#5E6464"/>
<path d="M210.5 270.833C208.234 270.99 206.258 272.202 205.058 273.983L206.796 274.988C207.642 273.804 208.974 272.992 210.5 272.845V270.833Z" fill="#D1D2D2"/>
<path d="M205.058 282.018C206.258 283.798 208.234 285.01 210.5 285.167V283.155C208.974 283.008 207.642 282.196 206.796 281.012L205.058 282.018Z" fill="#D1D2D2"/>
<path d="M217.443 281.15C217.907 280.199 218.167 279.13 218.167 278C218.167 276.87 217.907 275.801 217.443 274.85L215.705 275.856C216.001 276.509 216.167 277.235 216.167 278C216.167 278.765 216.001 279.491 215.705 280.144L217.443 281.15Z" fill="#D1D2D2"/>
<path d="M211 282.167C213.301 282.167 215.167 280.301 215.167 278C215.167 275.699 213.301 273.833 211 273.833C208.699 273.833 206.833 275.699 206.833 278C206.833 280.301 208.699 282.167 211 282.167Z" fill="#5E6464"/>
<path opacity="0.8" d="M210.812 275.451C210.874 275.272 211.126 275.272 211.189 275.451C211.575 276.556 212.444 277.425 213.549 277.811C213.727 277.874 213.727 278.126 213.549 278.188C212.444 278.575 211.575 279.444 211.189 280.549C211.126 280.727 210.874 280.727 210.811 280.549C210.425 279.444 209.556 278.575 208.451 278.188C208.273 278.126 208.273 277.874 208.451 277.811C209.556 277.425 210.425 276.556 210.812 275.451Z" fill="white"/>
</g>
<g clip-path="url(#clip1_40000061_1028)">
<path d="M194.557 274.85C194.094 275.801 193.833 276.87 193.833 278C193.833 279.13 194.094 280.199 194.557 281.15L196.295 280.144C195.999 279.491 195.833 278.765 195.833 278C195.833 277.235 195.999 276.509 196.295 275.856L194.557 274.85Z" fill="#5E6464"/>
<path d="M201.5 285.167C203.765 285.01 205.742 283.798 206.942 282.018L205.204 281.012C204.358 282.196 203.026 283.008 201.5 283.155V285.167Z" fill="#5E6464"/>
<path d="M206.942 273.983C205.742 272.202 203.765 270.99 201.5 270.833V272.845C203.026 272.992 204.358 273.804 205.204 274.989L206.942 273.983Z" fill="#5E6464"/>
<path d="M200.5 270.833C198.234 270.99 196.258 272.202 195.058 273.983L196.796 274.988C197.642 273.804 198.974 272.992 200.5 272.845V270.833Z" fill="#D1D2D2"/>
<path d="M195.058 282.018C196.258 283.798 198.234 285.01 200.5 285.167V283.155C198.974 283.008 197.642 282.196 196.796 281.012L195.058 282.018Z" fill="#D1D2D2"/>
<path d="M207.443 281.15C207.907 280.199 208.167 279.13 208.167 278C208.167 276.87 207.907 275.801 207.443 274.85L205.705 275.856C206.001 276.509 206.167 277.235 206.167 278C206.167 278.765 206.001 279.491 205.705 280.144L207.443 281.15Z" fill="#D1D2D2"/>
<path d="M201 282.167C203.301 282.167 205.167 280.301 205.167 278C205.167 275.699 203.301 273.833 201 273.833C198.699 273.833 196.833 275.699 196.833 278C196.833 280.301 198.699 282.167 201 282.167Z" fill="#5E6464"/>
<path opacity="0.8" d="M200.812 275.451C200.874 275.272 201.126 275.272 201.189 275.451C201.575 276.556 202.444 277.425 203.549 277.811C203.727 277.874 203.727 278.126 203.549 278.188C202.444 278.575 201.575 279.444 201.189 280.549C201.126 280.727 200.874 280.727 200.811 280.549C200.425 279.444 199.556 278.575 198.451 278.188C198.273 278.126 198.273 277.874 198.451 277.811C199.556 277.425 200.425 276.556 200.812 275.451Z" fill="white"/>
</g>
<g clip-path="url(#clip2_40000061_1028)">
<path d="M184.557 274.85C184.094 275.801 183.833 276.87 183.833 278C183.833 279.13 184.094 280.199 184.557 281.15L186.295 280.144C185.999 279.491 185.833 278.765 185.833 278C185.833 277.235 185.999 276.509 186.295 275.856L184.557 274.85Z" fill="#5E6464"/>
<path d="M191.5 285.167C193.765 285.01 195.742 283.798 196.942 282.018L195.204 281.012C194.358 282.196 193.026 283.008 191.5 283.155V285.167Z" fill="#5E6464"/>
<path d="M196.942 273.983C195.742 272.202 193.765 270.99 191.5 270.833V272.845C193.026 272.992 194.358 273.804 195.204 274.989L196.942 273.983Z" fill="#5E6464"/>
<path d="M190.5 270.833C188.234 270.99 186.258 272.202 185.058 273.983L186.796 274.988C187.642 273.804 188.974 272.992 190.5 272.845V270.833Z" fill="#D1D2D2"/>
<path d="M185.058 282.018C186.258 283.798 188.234 285.01 190.5 285.167V283.155C188.974 283.008 187.642 282.196 186.796 281.012L185.058 282.018Z" fill="#D1D2D2"/>
<path d="M197.443 281.15C197.907 280.199 198.167 279.13 198.167 278C198.167 276.87 197.907 275.801 197.443 274.85L195.705 275.856C196.001 276.509 196.167 277.235 196.167 278C196.167 278.765 196.001 279.491 195.705 280.144L197.443 281.15Z" fill="#D1D2D2"/>
<path d="M191 282.167C193.301 282.167 195.167 280.301 195.167 278C195.167 275.699 193.301 273.833 191 273.833C188.699 273.833 186.833 275.699 186.833 278C186.833 280.301 188.699 282.167 191 282.167Z" fill="#5E6464"/>
<path opacity="0.8" d="M190.812 275.451C190.874 275.272 191.126 275.272 191.189 275.451C191.575 276.556 192.444 277.425 193.549 277.811C193.727 277.874 193.727 278.126 193.549 278.188C192.444 278.575 191.575 279.444 191.189 280.549C191.126 280.727 190.874 280.727 190.811 280.549C190.425 279.444 189.556 278.575 188.451 278.188C188.273 278.126 188.273 277.874 188.451 277.811C189.556 277.425 190.425 276.556 190.812 275.451Z" fill="white"/>
</g>
<g clip-path="url(#clip3_40000061_1028)">
<path d="M174.557 274.85C174.094 275.801 173.833 276.87 173.833 278C173.833 279.13 174.094 280.199 174.557 281.15L176.295 280.144C175.999 279.491 175.833 278.765 175.833 278C175.833 277.235 175.999 276.509 176.295 275.856L174.557 274.85Z" fill="#5E6464"/>
<path d="M181.5 285.167C183.765 285.01 185.742 283.798 186.942 282.018L185.204 281.012C184.358 282.196 183.026 283.008 181.5 283.155V285.167Z" fill="#5E6464"/>
<path d="M186.942 273.983C185.742 272.202 183.765 270.99 181.5 270.833V272.845C183.026 272.992 184.358 273.804 185.204 274.989L186.942 273.983Z" fill="#5E6464"/>
<path d="M180.5 270.833C178.234 270.99 176.258 272.202 175.058 273.983L176.796 274.988C177.642 273.804 178.974 272.992 180.5 272.845V270.833Z" fill="#D1D2D2"/>
<path d="M175.058 282.018C176.258 283.798 178.234 285.01 180.5 285.167V283.155C178.974 283.008 177.642 282.196 176.796 281.012L175.058 282.018Z" fill="#D1D2D2"/>
<path d="M187.443 281.15C187.907 280.199 188.167 279.13 188.167 278C188.167 276.87 187.907 275.801 187.443 274.85L185.705 275.856C186.001 276.509 186.167 277.235 186.167 278C186.167 278.765 186.001 279.491 185.705 280.144L187.443 281.15Z" fill="#D1D2D2"/>
<path d="M181 282.167C183.301 282.167 185.167 280.301 185.167 278C185.167 275.699 183.301 273.833 181 273.833C178.699 273.833 176.833 275.699 176.833 278C176.833 280.301 178.699 282.167 181 282.167Z" fill="#5E6464"/>
<path opacity="0.8" d="M180.812 275.451C180.874 275.272 181.126 275.272 181.189 275.451C181.575 276.556 182.444 277.425 183.549 277.811C183.727 277.874 183.727 278.126 183.549 278.188C182.444 278.575 181.575 279.444 181.189 280.549C181.126 280.727 180.874 280.727 180.811 280.549C180.425 279.444 179.556 278.575 178.451 278.188C178.273 278.126 178.273 277.874 178.451 277.811C179.556 277.425 180.425 276.556 180.812 275.451Z" fill="white"/>
</g>
<rect x="297" y="235" width="56" height="56" rx="10.5" fill="url(#paint6_linear_40000061_1028)"/>
<rect x="297.5" y="235.5" width="55" height="55" rx="10" stroke="url(#paint7_linear_40000061_1028)" stroke-opacity="0.5"/>
<path d="M314.134 261.205C313.863 261.476 313.648 261.798 313.501 262.152C313.355 262.506 313.279 262.885 313.279 263.268C313.279 263.651 313.355 264.031 313.501 264.384C313.648 264.738 313.863 265.06 314.134 265.331L317.434 268.63C317.908 269.104 318.53 269.4 319.197 269.469C319.864 269.538 320.533 269.375 321.094 269.008C321.655 268.641 322.072 268.092 322.275 267.454C322.479 266.815 322.456 266.126 322.212 265.502L323.134 264.579L330.609 273.203C330.902 273.541 331.262 273.815 331.666 274.008C332.069 274.201 332.508 274.309 332.955 274.325C333.402 274.34 333.848 274.264 334.264 274.1C334.68 273.936 335.058 273.689 335.375 273.372C335.691 273.056 335.939 272.678 336.103 272.262C336.267 271.845 336.343 271.4 336.327 270.953C336.311 270.506 336.204 270.067 336.011 269.663C335.818 269.26 335.544 268.9 335.206 268.607L326.582 261.132L327.505 260.21C328.129 260.456 328.818 260.479 329.457 260.275C330.096 260.072 330.645 259.654 331.013 259.093C331.38 258.532 331.542 257.862 331.473 257.195C331.404 256.528 331.107 255.905 330.633 255.432L327.333 252.131C326.859 251.657 326.237 251.361 325.57 251.292C324.904 251.223 324.234 251.386 323.673 251.753C323.113 252.12 322.695 252.669 322.492 253.308C322.288 253.946 322.311 254.635 322.556 255.259L317.263 260.552C316.734 260.345 316.156 260.296 315.601 260.412C315.045 260.528 314.535 260.804 314.134 261.205Z" fill="white"/>
<path d="M324 235L324 187C324 180.373 318.627 175 312 175L208 175C201.373 175 196 169.627 196 163L196 115" stroke="white" stroke-opacity="0.2" stroke-width="2"/>
<path d="M69 235L69 187C69 180.373 74.3726 175 81 175L184 175C190.627 175 196 169.627 196 163L196 115" stroke="white" stroke-opacity="0.2" stroke-width="2"/>
<path d="M196 115L196 235" stroke="white" stroke-opacity="0.2" stroke-width="2"/>
<defs>
<linearGradient id="paint0_linear_40000061_1028" x1="168" y1="59" x2="224" y2="115" gradientUnits="userSpaceOnUse">
<stop stop-color="white" stop-opacity="0.03"/>
<stop offset="1" stop-color="white" stop-opacity="0.08"/>
</linearGradient>
<linearGradient id="paint1_linear_40000061_1028" x1="168" y1="59" x2="224" y2="115.7" gradientUnits="userSpaceOnUse">
<stop offset="0.1" stop-color="white"/>
<stop offset="0.454409" stop-color="white" stop-opacity="0"/>
<stop offset="0.55" stop-color="white" stop-opacity="0"/>
<stop offset="0.9" stop-color="white"/>
</linearGradient>
<linearGradient id="paint2_linear_40000061_1028" x1="39" y1="235" x2="95" y2="291" gradientUnits="userSpaceOnUse">
<stop stop-color="white" stop-opacity="0.03"/>
<stop offset="1" stop-color="white" stop-opacity="0.08"/>
</linearGradient>
<linearGradient id="paint3_linear_40000061_1028" x1="39" y1="235" x2="95" y2="291.7" gradientUnits="userSpaceOnUse">
<stop offset="0.1" stop-color="white"/>
<stop offset="0.454409" stop-color="white" stop-opacity="0"/>
<stop offset="0.55" stop-color="white" stop-opacity="0"/>
<stop offset="0.9" stop-color="white"/>
</linearGradient>
<linearGradient id="paint4_linear_40000061_1028" x1="168" y1="235" x2="224" y2="291" gradientUnits="userSpaceOnUse">
<stop stop-color="white" stop-opacity="0.03"/>
<stop offset="1" stop-color="white" stop-opacity="0.08"/>
</linearGradient>
<linearGradient id="paint5_linear_40000061_1028" x1="168" y1="235" x2="224" y2="291.7" gradientUnits="userSpaceOnUse">
<stop offset="0.1" stop-color="white"/>
<stop offset="0.454409" stop-color="white" stop-opacity="0"/>
<stop offset="0.55" stop-color="white" stop-opacity="0"/>
<stop offset="0.9" stop-color="white"/>
</linearGradient>
<linearGradient id="paint6_linear_40000061_1028" x1="297" y1="235" x2="353" y2="291" gradientUnits="userSpaceOnUse">
<stop stop-color="white" stop-opacity="0.03"/>
<stop offset="1" stop-color="white" stop-opacity="0.08"/>
</linearGradient>
<linearGradient id="paint7_linear_40000061_1028" x1="297" y1="235" x2="353" y2="291.7" gradientUnits="userSpaceOnUse">
<stop offset="0.1" stop-color="white"/>
<stop offset="0.454409" stop-color="white" stop-opacity="0"/>
<stop offset="0.55" stop-color="white" stop-opacity="0"/>
<stop offset="0.9" stop-color="white"/>
</linearGradient>
<clipPath id="clip0_40000061_1028">
<rect width="16" height="16" fill="white" transform="translate(203 270)"/>
</clipPath>
<clipPath id="clip1_40000061_1028">
<rect width="16" height="16" fill="white" transform="translate(193 270)"/>
</clipPath>
<clipPath id="clip2_40000061_1028">
<rect width="16" height="16" fill="white" transform="translate(183 270)"/>
</clipPath>
<clipPath id="clip3_40000061_1028">
<rect width="16" height="16" fill="white" transform="translate(173 270)"/>
</clipPath>
</defs>
</svg>
