<svg width="392" height="350" viewBox="0 0 392 350" fill="none" xmlns="http://www.w3.org/2000/svg">
<rect width="392" height="350" fill="black" fill-opacity="0.2"/>
<path d="M196 1L196 235" stroke="white" stroke-opacity="0.2" stroke-width="2"/>
<path d="M128 0.999998L128 239C128 252.255 138.745 263 152 263L168 263" stroke="white" stroke-opacity="0.2" stroke-width="2"/>
<path d="M264 0.999998L264 239C264 252.255 253.255 263 240 263L224 263" stroke="white" stroke-opacity="0.2" stroke-width="2"/>
<rect x="168" y="235" width="56" height="56" rx="10.5" fill="url(#paint0_linear_40000061_1033)"/>
<rect x="168.5" y="235.5" width="55" height="55" rx="10" stroke="url(#paint1_linear_40000061_1033)" stroke-opacity="0.5"/>
<g clip-path="url(#clip0_40000061_1033)">
<path d="M204 254.602C204 256.079 200.418 257.276 196 257.276C191.582 257.276 188 256.079 188 254.602C188 253.126 191.582 251.929 196 251.929C200.418 251.929 204 253.126 204 254.602Z" fill="white"/>
<path d="M209.333 269.126C209.333 267.307 206.069 265.742 201.391 265.05L201.27 265.075C199.692 265.386 197.9 265.562 196 265.562C194.051 265.562 192.216 265.377 190.609 265.05C185.931 265.742 182.667 267.307 182.667 269.126C182.667 271.587 188.636 273.582 196 273.582C203.364 273.582 209.333 271.587 209.333 269.126Z" fill="white"/>
<path d="M206.666 261.107C206.666 259.532 203.611 258.197 199.374 257.725L199.265 257.742C198.257 257.901 197.154 257.988 196 257.988C194.803 257.988 193.663 257.894 192.625 257.725C188.388 258.196 185.333 259.533 185.333 261.107C185.333 263.075 190.109 264.671 196 264.671C201.891 264.671 206.666 263.075 206.666 261.107Z" fill="white"/>
</g>
<path d="M254.336 55.2754C253.641 56.702 253.25 58.3054 253.25 60.0002C253.25 61.695 253.641 63.2984 254.336 64.725L256.943 63.2162C256.498 62.2362 256.25 61.1472 256.25 60.0002C256.25 58.8532 256.498 57.7642 256.943 56.7843L254.336 55.2754Z" fill="#5E6464"/>
<path d="M264.75 70.7502C268.149 70.5156 271.113 68.6975 272.914 66.0266L270.306 64.5176C269.037 66.2945 267.039 67.5127 264.75 67.7329V70.7502Z" fill="#5E6464"/>
<path d="M272.914 53.9736C271.113 51.3027 268.149 49.4846 264.75 49.25V52.2673C267.039 52.4875 269.037 53.7057 270.306 55.4826L272.914 53.9736Z" fill="#5E6464"/>
<path d="M263.25 49.25C259.852 49.4849 256.888 51.3029 255.087 53.9736L257.695 55.4825C258.964 53.7058 260.961 52.4877 263.25 52.2673V49.25Z" fill="#D1D2D2"/>
<path d="M255.087 66.0265C256.888 68.6972 259.852 70.5152 263.25 70.7501V67.7328C260.961 67.5124 258.964 66.2943 257.695 64.5176L255.087 66.0265Z" fill="#D1D2D2"/>
<path d="M273.664 64.7248C274.36 63.2982 274.75 61.6947 274.75 59.9999C274.75 58.305 274.36 56.7016 273.664 55.2749L271.057 56.784C271.502 57.7639 271.75 58.8529 271.75 59.9999C271.75 61.1469 271.502 62.2358 271.057 63.2158L273.664 64.7248Z" fill="#D1D2D2"/>
<path d="M264.001 66.25C267.452 66.25 270.251 63.4518 270.251 60C270.251 56.5482 267.452 53.75 264.001 53.75C260.549 53.75 257.75 56.5482 257.75 60C257.75 63.4518 260.549 66.25 264.001 66.25Z" fill="#5E6464"/>
<path opacity="0.8" d="M263.717 56.1765C263.811 55.9089 264.189 55.9089 264.283 56.1765C264.862 57.8341 266.166 59.1375 267.823 59.7171C268.091 59.8107 268.091 60.1892 267.823 60.2828C266.166 60.8624 264.862 62.1657 264.283 63.8234C264.189 64.091 263.811 64.091 263.717 63.8234C263.137 62.1658 261.834 60.8624 260.177 60.2828C259.909 60.1892 259.909 59.8108 260.177 59.7172C261.834 59.1377 263.138 57.8343 263.717 56.1765Z" fill="white"/>
<path d="M254.336 194.275C253.641 195.702 253.25 197.305 253.25 199C253.25 200.695 253.641 202.298 254.336 203.725L256.943 202.216C256.498 201.236 256.25 200.147 256.25 199C256.25 197.853 256.498 196.764 256.943 195.784L254.336 194.275Z" fill="#5E6464"/>
<path d="M264.75 209.75C268.149 209.516 271.113 207.697 272.914 205.027L270.306 203.518C269.037 205.294 267.039 206.513 264.75 206.733V209.75Z" fill="#5E6464"/>
<path d="M272.914 192.974C271.113 190.303 268.149 188.485 264.75 188.25V191.267C267.039 191.487 269.037 192.706 270.306 194.483L272.914 192.974Z" fill="#5E6464"/>
<path d="M263.25 188.25C259.852 188.485 256.888 190.303 255.087 192.974L257.695 194.482C258.964 192.706 260.961 191.488 263.25 191.267V188.25Z" fill="#D1D2D2"/>
<path d="M255.087 205.026C256.888 207.697 259.852 209.515 263.25 209.75V206.733C260.961 206.512 258.964 205.294 257.695 203.518L255.087 205.026Z" fill="#D1D2D2"/>
<path d="M273.664 203.725C274.36 202.298 274.75 200.695 274.75 199C274.75 197.305 274.36 195.702 273.664 194.275L271.057 195.784C271.502 196.764 271.75 197.853 271.75 199C271.75 200.147 271.502 201.236 271.057 202.216L273.664 203.725Z" fill="#D1D2D2"/>
<path d="M264.001 205.25C267.452 205.25 270.251 202.452 270.251 199C270.251 195.548 267.452 192.75 264.001 192.75C260.549 192.75 257.75 195.548 257.75 199C257.75 202.452 260.549 205.25 264.001 205.25Z" fill="#5E6464"/>
<path opacity="0.8" d="M263.717 195.177C263.811 194.909 264.189 194.909 264.283 195.177C264.862 196.834 266.166 198.137 267.823 198.717C268.091 198.811 268.091 199.189 267.823 199.283C266.166 199.862 264.862 201.166 264.283 202.823C264.189 203.091 263.811 203.091 263.717 202.823C263.137 201.166 261.834 199.862 260.177 199.283C259.909 199.189 259.909 198.811 260.177 198.717C261.834 198.138 263.138 196.834 263.717 195.177Z" fill="white"/>
<path d="M118.336 103.275C117.641 104.702 117.25 106.305 117.25 108C117.25 109.695 117.641 111.298 118.336 112.725L120.943 111.216C120.498 110.236 120.25 109.147 120.25 108C120.25 106.853 120.498 105.764 120.943 104.784L118.336 103.275Z" fill="#5E6464"/>
<path d="M128.75 118.75C132.149 118.516 135.113 116.697 136.914 114.027L134.306 112.518C133.037 114.294 131.039 115.513 128.75 115.733V118.75Z" fill="#5E6464"/>
<path d="M136.914 101.974C135.113 99.3027 132.149 97.4846 128.75 97.25V100.267C131.039 100.487 133.037 101.706 134.306 103.483L136.914 101.974Z" fill="#5E6464"/>
<path d="M127.25 97.25C123.852 97.4849 120.888 99.3029 119.087 101.974L121.695 103.482C122.964 101.706 124.961 100.488 127.25 100.267V97.25Z" fill="#D1D2D2"/>
<path d="M119.087 114.026C120.888 116.697 123.852 118.515 127.25 118.75V115.733C124.961 115.512 122.964 114.294 121.695 112.518L119.087 114.026Z" fill="#D1D2D2"/>
<path d="M137.664 112.725C138.36 111.298 138.75 109.695 138.75 108C138.75 106.305 138.36 104.702 137.664 103.275L135.057 104.784C135.502 105.764 135.75 106.853 135.75 108C135.75 109.147 135.502 110.236 135.057 111.216L137.664 112.725Z" fill="#D1D2D2"/>
<path d="M128.001 114.25C131.452 114.25 134.251 111.452 134.251 108C134.251 104.548 131.452 101.75 128.001 101.75C124.549 101.75 121.75 104.548 121.75 108C121.75 111.452 124.549 114.25 128.001 114.25Z" fill="#5E6464"/>
<path opacity="0.8" d="M127.717 104.177C127.811 103.909 128.189 103.909 128.283 104.177C128.862 105.834 130.166 107.137 131.823 107.717C132.091 107.811 132.091 108.189 131.823 108.283C130.166 108.862 128.862 110.166 128.283 111.823C128.189 112.091 127.811 112.091 127.717 111.823C127.137 110.166 125.834 108.862 124.177 108.283C123.909 108.189 123.909 107.811 124.177 107.717C125.834 107.138 127.138 105.834 127.717 104.177Z" fill="white"/>
<path d="M126.336 250.275C125.641 251.702 125.25 253.305 125.25 255C125.25 256.695 125.641 258.298 126.336 259.725L128.943 258.216C128.498 257.236 128.25 256.147 128.25 255C128.25 253.853 128.498 252.764 128.943 251.784L126.336 250.275Z" fill="#5E6464"/>
<path d="M136.75 265.75C140.149 265.516 143.113 263.697 144.914 261.027L142.306 259.518C141.037 261.294 139.039 262.513 136.75 262.733V265.75Z" fill="#5E6464"/>
<path d="M144.914 248.974C143.113 246.303 140.149 244.485 136.75 244.25V247.267C139.039 247.487 141.037 248.706 142.306 250.483L144.914 248.974Z" fill="#5E6464"/>
<path d="M135.25 244.25C131.852 244.485 128.888 246.303 127.087 248.974L129.695 250.482C130.964 248.706 132.961 247.488 135.25 247.267V244.25Z" fill="#D1D2D2"/>
<path d="M127.087 261.026C128.888 263.697 131.852 265.515 135.25 265.75V262.733C132.961 262.512 130.964 261.294 129.695 259.518L127.087 261.026Z" fill="#D1D2D2"/>
<path d="M145.664 259.725C146.36 258.298 146.75 256.695 146.75 255C146.75 253.305 146.36 251.702 145.664 250.275L143.057 251.784C143.502 252.764 143.75 253.853 143.75 255C143.75 256.147 143.502 257.236 143.057 258.216L145.664 259.725Z" fill="#D1D2D2"/>
<path d="M136.001 261.25C139.452 261.25 142.251 258.452 142.251 255C142.251 251.548 139.452 248.75 136.001 248.75C132.549 248.75 129.75 251.548 129.75 255C129.75 258.452 132.549 261.25 136.001 261.25Z" fill="#5E6464"/>
<path opacity="0.8" d="M135.717 251.177C135.811 250.909 136.189 250.909 136.283 251.177C136.862 252.834 138.166 254.137 139.823 254.717C140.091 254.811 140.091 255.189 139.823 255.283C138.166 255.862 136.862 257.166 136.283 258.823C136.189 259.091 135.811 259.091 135.717 258.823C135.137 257.166 133.834 255.862 132.177 255.283C131.909 255.189 131.909 254.811 132.177 254.717C133.834 254.138 135.138 252.834 135.717 251.177Z" fill="white"/>
<path d="M186.336 79.2754C185.641 80.702 185.25 82.3054 185.25 84.0002C185.25 85.695 185.641 87.2984 186.336 88.725L188.943 87.2162C188.498 86.2362 188.25 85.1472 188.25 84.0002C188.25 82.8532 188.498 81.7642 188.943 80.7843L186.336 79.2754Z" fill="#5E6464"/>
<path d="M196.75 94.7502C200.149 94.5156 203.113 92.6975 204.914 90.0266L202.306 88.5176C201.037 90.2945 199.039 91.5127 196.75 91.7329V94.7502Z" fill="#5E6464"/>
<path d="M204.914 77.9736C203.113 75.3027 200.149 73.4846 196.75 73.25V76.2673C199.039 76.4875 201.037 77.7057 202.306 79.4826L204.914 77.9736Z" fill="#5E6464"/>
<path d="M195.25 73.25C191.852 73.4849 188.888 75.3029 187.087 77.9736L189.695 79.4825C190.964 77.7058 192.961 76.4877 195.25 76.2673V73.25Z" fill="#D1D2D2"/>
<path d="M187.087 90.0265C188.888 92.6972 191.852 94.5152 195.25 94.7501V91.7328C192.961 91.5124 190.964 90.2943 189.695 88.5176L187.087 90.0265Z" fill="#D1D2D2"/>
<path d="M205.664 88.7248C206.36 87.2982 206.75 85.6947 206.75 83.9999C206.75 82.305 206.36 80.7016 205.664 79.2749L203.057 80.784C203.502 81.7639 203.75 82.8529 203.75 83.9999C203.75 85.1469 203.502 86.2358 203.057 87.2158L205.664 88.7248Z" fill="#D1D2D2"/>
<path d="M196.001 90.25C199.452 90.25 202.251 87.4518 202.251 84C202.251 80.5482 199.452 77.75 196.001 77.75C192.549 77.75 189.75 80.5482 189.75 84C189.75 87.4518 192.549 90.25 196.001 90.25Z" fill="#5E6464"/>
<path opacity="0.8" d="M195.717 80.1765C195.811 79.9089 196.189 79.9089 196.283 80.1765C196.862 81.8341 198.166 83.1375 199.823 83.7171C200.091 83.8107 200.091 84.1892 199.823 84.2828C198.166 84.8624 196.862 86.1657 196.283 87.8234C196.189 88.091 195.811 88.091 195.717 87.8234C195.137 86.1658 193.834 84.8624 192.177 84.2828C191.909 84.1892 191.909 83.8108 192.177 83.7172C193.834 83.1377 195.138 81.8343 195.717 80.1765Z" fill="white"/>
<path d="M186.336 198.275C185.641 199.702 185.25 201.305 185.25 203C185.25 204.695 185.641 206.298 186.336 207.725L188.943 206.216C188.498 205.236 188.25 204.147 188.25 203C188.25 201.853 188.498 200.764 188.943 199.784L186.336 198.275Z" fill="#5E6464"/>
<path d="M196.75 213.75C200.149 213.516 203.113 211.697 204.914 209.027L202.306 207.518C201.037 209.294 199.039 210.513 196.75 210.733V213.75Z" fill="#5E6464"/>
<path d="M204.914 196.974C203.113 194.303 200.149 192.485 196.75 192.25V195.267C199.039 195.487 201.037 196.706 202.306 198.483L204.914 196.974Z" fill="#5E6464"/>
<path d="M195.25 192.25C191.852 192.485 188.888 194.303 187.087 196.974L189.695 198.482C190.964 196.706 192.961 195.488 195.25 195.267V192.25Z" fill="#D1D2D2"/>
<path d="M187.087 209.026C188.888 211.697 191.852 213.515 195.25 213.75V210.733C192.961 210.512 190.964 209.294 189.695 207.518L187.087 209.026Z" fill="#D1D2D2"/>
<path d="M205.664 207.725C206.36 206.298 206.75 204.695 206.75 203C206.75 201.305 206.36 199.702 205.664 198.275L203.057 199.784C203.502 200.764 203.75 201.853 203.75 203C203.75 204.147 203.502 205.236 203.057 206.216L205.664 207.725Z" fill="#D1D2D2"/>
<path d="M196.001 209.25C199.452 209.25 202.251 206.452 202.251 203C202.251 199.548 199.452 196.75 196.001 196.75C192.549 196.75 189.75 199.548 189.75 203C189.75 206.452 192.549 209.25 196.001 209.25Z" fill="#5E6464"/>
<path opacity="0.8" d="M195.717 199.177C195.811 198.909 196.189 198.909 196.283 199.177C196.862 200.834 198.166 202.137 199.823 202.717C200.091 202.811 200.091 203.189 199.823 203.283C198.166 203.862 196.862 205.166 196.283 206.823C196.189 207.091 195.811 207.091 195.717 206.823C195.137 205.166 193.834 203.862 192.177 203.283C191.909 203.189 191.909 202.811 192.177 202.717C193.834 202.138 195.138 200.834 195.717 199.177Z" fill="white"/>
<defs>
<linearGradient id="paint0_linear_40000061_1033" x1="168" y1="235" x2="224" y2="291" gradientUnits="userSpaceOnUse">
<stop stop-color="white" stop-opacity="0.03"/>
<stop offset="1" stop-color="white" stop-opacity="0.08"/>
</linearGradient>
<linearGradient id="paint1_linear_40000061_1033" x1="168" y1="235" x2="224" y2="291.7" gradientUnits="userSpaceOnUse">
<stop offset="0.1" stop-color="white"/>
<stop offset="0.454409" stop-color="white" stop-opacity="0"/>
<stop offset="0.55" stop-color="white" stop-opacity="0"/>
<stop offset="0.9" stop-color="white"/>
</linearGradient>
<clipPath id="clip0_40000061_1033">
<rect width="26.6667" height="26.6667" fill="white" transform="translate(182.667 249.667)"/>
</clipPath>
</defs>
</svg>
