<svg width="392" height="350" viewBox="0 0 392 350" fill="none" xmlns="http://www.w3.org/2000/svg">
<rect width="392" height="350" fill="black" fill-opacity="0.2"/>
<path d="M109 175L284 175" stroke="white" stroke-opacity="0.1"/>
<path d="M144 104H250" stroke="white" stroke-opacity="0.1"/>
<path d="M144 246L249 246" stroke="white" stroke-opacity="0.1"/>
<path d="M196.495 122V227" stroke="white" stroke-opacity="0.1"/>
<path d="M267 122V227" stroke="white" stroke-opacity="0.1"/>
<path d="M125 122V227" stroke="white" stroke-opacity="0.1"/>
<path d="M125 122L88 157" stroke="white" stroke-opacity="0.1"/>
<path d="M196 123L88 157" stroke="white" stroke-opacity="0.1"/>
<path d="M196 123L303 157" stroke="white" stroke-opacity="0.1"/>
<path d="M125 122L161.999 157" stroke="white" stroke-opacity="0.1"/>
<path d="M125 122L232 157" stroke="white" stroke-opacity="0.1"/>
<path d="M88 193L125.999 229.001" stroke="white" stroke-opacity="0.1"/>
<path d="M196.5 122L159.5 157" stroke="white" stroke-opacity="0.1"/>
<path d="M267 122L159.5 157" stroke="white" stroke-opacity="0.1"/>
<path d="M196.5 122L232 157" stroke="white" stroke-opacity="0.1"/>
<path d="M160.5 193L123.5 229" stroke="white" stroke-opacity="0.1"/>
<path d="M232 193L123.5 229" stroke="white" stroke-opacity="0.1"/>
<path d="M161 193.5C175.449 207.169 183.05 215.332 197.499 229.001" stroke="white" stroke-opacity="0.1"/>
<path d="M160.5 193L267 228" stroke="white" stroke-opacity="0.1"/>
<path d="M89 193L197.499 229.001" stroke="white" stroke-opacity="0.1"/>
<path d="M267 122L232 157" stroke="white" stroke-opacity="0.1"/>
<path d="M267 122L303.999 157" stroke="white" stroke-opacity="0.1"/>
<path d="M231 194L194 229" stroke="white" stroke-opacity="0.1"/>
<path d="M303 193L194 229" stroke="white" stroke-opacity="0.1"/>
<path d="M303 193L266 229" stroke="white" stroke-opacity="0.1"/>
<path d="M231 194L267.999 229.001" stroke="white" stroke-opacity="0.1"/>
<rect x="144.636" y="85" width="38.1818" height="38.1818" rx="9.54545" transform="rotate(90 144.636 85)" fill="#212727"/>
<rect x="144.239" y="85.3977" width="37.3864" height="37.3864" rx="9.14773" transform="rotate(90 144.239 85.3977)" stroke="url(#paint0_linear_40000061_1023)" stroke-opacity="0.5" stroke-width="0.795455"/>
<path d="M125.897 96.0604C125.897 95.7561 125.776 95.4643 125.561 95.2491C125.346 95.034 125.054 94.9131 124.75 94.9131C124.446 94.9131 124.154 95.034 123.939 95.2491C123.724 95.4643 123.603 95.7561 123.603 96.0604V97.6666H116.719C115.684 97.6666 114.692 98.0776 113.961 98.8091C113.229 99.5406 112.818 100.533 112.818 101.567V109.369C112.818 110.403 113.229 111.396 113.961 112.127C114.692 112.859 115.684 113.27 116.719 113.27H132.781C133.816 113.27 134.808 112.859 135.539 112.127C136.271 111.396 136.682 110.403 136.682 109.369V101.567C136.682 100.533 136.271 99.5406 135.539 98.8091C134.808 98.0776 133.816 97.6666 132.781 97.6666H125.897V96.0604ZM120.161 107.763C119.552 107.763 118.969 107.521 118.538 107.091C118.108 106.66 117.866 106.077 117.866 105.468C117.866 104.86 118.108 104.276 118.538 103.846C118.969 103.415 119.552 103.174 120.161 103.174C120.769 103.174 121.353 103.415 121.783 103.846C122.214 104.276 122.455 104.86 122.455 105.468C122.455 106.077 122.214 106.66 121.783 107.091C121.353 107.521 120.769 107.763 120.161 107.763ZM131.634 105.468C131.634 106.077 131.392 106.66 130.962 107.091C130.531 107.521 129.948 107.763 129.339 107.763C128.731 107.763 128.147 107.521 127.717 107.091C127.286 106.66 127.045 106.077 127.045 105.468C127.045 104.86 127.286 104.276 127.717 103.846C128.147 103.415 128.731 103.174 129.339 103.174C129.948 103.174 130.531 103.415 130.962 103.846C131.392 104.276 131.634 104.86 131.634 105.468Z" fill="#3FEC52"/>
<rect x="215.546" y="85" width="38.1818" height="38.1818" rx="9.54545" transform="rotate(90 215.546 85)" fill="#212727"/>
<rect x="215.148" y="85.3977" width="37.3864" height="37.3864" rx="9.14773" transform="rotate(90 215.148 85.3977)" stroke="url(#paint1_linear_40000061_1023)" stroke-opacity="0.5" stroke-width="0.795455"/>
<path d="M196.807 96.0594C196.807 95.7551 196.686 95.4633 196.471 95.2481C196.256 95.033 195.964 94.9121 195.66 94.9121C195.355 94.9121 195.064 95.033 194.848 95.2481C194.633 95.4633 194.512 95.7551 194.512 96.0594V97.6656H187.629C186.594 97.6656 185.602 98.0766 184.87 98.8081C184.139 99.5397 183.728 100.532 183.728 101.566V109.368C183.728 110.403 184.139 111.395 184.87 112.126C185.602 112.858 186.594 113.269 187.629 113.269H203.691C204.725 113.269 205.717 112.858 206.449 112.126C207.18 111.395 207.591 110.403 207.591 109.368V101.566C207.591 100.532 207.18 99.5397 206.449 98.8081C205.717 98.0766 204.725 97.6656 203.691 97.6656H196.807V96.0594ZM191.07 107.762C190.462 107.762 189.878 107.52 189.448 107.09C189.018 106.659 188.776 106.076 188.776 105.467C188.776 104.859 189.018 104.275 189.448 103.845C189.878 103.414 190.462 103.173 191.07 103.173C191.679 103.173 192.263 103.414 192.693 103.845C193.123 104.275 193.365 104.859 193.365 105.467C193.365 106.076 193.123 106.659 192.693 107.09C192.263 107.52 191.679 107.762 191.07 107.762ZM202.543 105.467C202.543 106.076 202.302 106.659 201.871 107.09C201.441 107.52 200.857 107.762 200.249 107.762C199.64 107.762 199.057 107.52 198.626 107.09C198.196 106.659 197.954 106.076 197.954 105.467C197.954 104.859 198.196 104.275 198.626 103.845C199.057 103.414 199.64 103.173 200.249 103.173C200.857 103.173 201.441 103.414 201.871 103.845C202.302 104.275 202.543 104.859 202.543 105.467Z" fill="#3FEC52"/>
<rect x="286.455" y="85" width="38.1818" height="38.1818" rx="9.54545" transform="rotate(90 286.455 85)" fill="#212727"/>
<rect x="286.057" y="85.3977" width="37.3864" height="37.3864" rx="9.14773" transform="rotate(90 286.057 85.3977)" stroke="url(#paint2_linear_40000061_1023)" stroke-opacity="0.5" stroke-width="0.795455"/>
<path d="M267.716 96.0594C267.716 95.7551 267.595 95.4633 267.38 95.2481C267.164 95.033 266.873 94.9121 266.568 94.9121C266.264 94.9121 265.972 95.033 265.757 95.2481C265.542 95.4633 265.421 95.7551 265.421 96.0594V97.6656H258.537C257.503 97.6656 256.511 98.0766 255.779 98.8081C255.047 99.5397 254.636 100.532 254.636 101.566V109.368C254.636 110.403 255.047 111.395 255.779 112.126C256.511 112.858 257.503 113.269 258.537 113.269H274.599C275.634 113.269 276.626 112.858 277.358 112.126C278.089 111.395 278.5 110.403 278.5 109.368V101.566C278.5 100.532 278.089 99.5397 277.358 98.8081C276.626 98.0766 275.634 97.6656 274.599 97.6656H267.716V96.0594ZM261.979 107.762C261.371 107.762 260.787 107.52 260.357 107.09C259.926 106.659 259.685 106.076 259.685 105.467C259.685 104.859 259.926 104.275 260.357 103.845C260.787 103.414 261.371 103.173 261.979 103.173C262.588 103.173 263.171 103.414 263.602 103.845C264.032 104.275 264.274 104.859 264.274 105.467C264.274 106.076 264.032 106.659 263.602 107.09C263.171 107.52 262.588 107.762 261.979 107.762ZM273.452 105.467C273.452 106.076 273.21 106.659 272.78 107.09C272.35 107.52 271.766 107.762 271.157 107.762C270.549 107.762 269.965 107.52 269.535 107.09C269.105 106.659 268.863 106.076 268.863 105.467C268.863 104.859 269.105 104.275 269.535 103.845C269.965 103.414 270.549 103.173 271.157 103.173C271.766 103.173 272.35 103.414 272.78 103.845C273.21 104.275 273.452 104.859 273.452 105.467Z" fill="#3FEC52"/>
<rect x="109.182" y="155.909" width="38.1818" height="38.1818" rx="9.54545" transform="rotate(90 109.182 155.909)" fill="#212727"/>
<rect x="108.784" y="156.307" width="37.3864" height="37.3864" rx="9.14773" transform="rotate(90 108.784 156.307)" stroke="url(#paint3_linear_40000061_1023)" stroke-opacity="0.5" stroke-width="0.795455"/>
<path d="M90.4429 166.97C90.4429 166.665 90.322 166.373 90.1068 166.158C89.8917 165.943 89.5999 165.822 89.2956 165.822C88.9913 165.822 88.6995 165.943 88.4843 166.158C88.2692 166.373 88.1483 166.665 88.1483 166.97V168.576H81.2646C80.23 168.576 79.2378 168.987 78.5063 169.718C77.7747 170.45 77.3638 171.442 77.3638 172.477V180.278C77.3638 181.313 77.7747 182.305 78.5063 183.036C79.2378 183.768 80.23 184.179 81.2646 184.179H97.3266C98.3612 184.179 99.3534 183.768 100.085 183.036C100.816 182.305 101.227 181.313 101.227 180.278V172.477C101.227 171.442 100.816 170.45 100.085 169.718C99.3534 168.987 98.3612 168.576 97.3266 168.576H90.4429V166.97ZM84.7064 178.672C84.0979 178.672 83.5142 178.43 83.0839 178C82.6536 177.57 82.4118 176.986 82.4118 176.377C82.4118 175.769 82.6536 175.185 83.0839 174.755C83.5142 174.325 84.0979 174.083 84.7064 174.083C85.315 174.083 85.8986 174.325 86.3289 174.755C86.7593 175.185 87.001 175.769 87.001 176.377C87.001 176.986 86.7593 177.57 86.3289 178C85.8986 178.43 85.315 178.672 84.7064 178.672ZM96.1793 176.377C96.1793 176.986 95.9376 177.57 95.5073 178C95.0769 178.43 94.4933 178.672 93.8847 178.672C93.2762 178.672 92.6926 178.43 92.2622 178C91.8319 177.57 91.5902 176.986 91.5902 176.377C91.5902 175.769 91.8319 175.185 92.2622 174.755C92.6926 174.325 93.2762 174.083 93.8847 174.083C94.4933 174.083 95.0769 174.325 95.5073 174.755C95.9376 175.185 96.1793 175.769 96.1793 176.377Z" fill="#3FEC52"/>
<rect x="180.091" y="155.909" width="38.1818" height="38.1818" rx="9.54545" transform="rotate(90 180.091 155.909)" fill="#212727"/>
<rect x="179.693" y="156.307" width="37.3864" height="37.3864" rx="9.14773" transform="rotate(90 179.693 156.307)" stroke="url(#paint4_linear_40000061_1023)" stroke-opacity="0.5" stroke-width="0.795455"/>
<path d="M161.352 166.969C161.352 166.664 161.231 166.372 161.016 166.157C160.8 165.942 160.509 165.821 160.204 165.821C159.9 165.821 159.608 165.942 159.393 166.157C159.178 166.372 159.057 166.664 159.057 166.969V168.575H152.173C151.139 168.575 150.147 168.986 149.415 169.717C148.683 170.449 148.272 171.441 148.272 172.476V180.277C148.272 181.312 148.683 182.304 149.415 183.035C150.147 183.767 151.139 184.178 152.173 184.178H168.235C169.27 184.178 170.262 183.767 170.994 183.035C171.725 182.304 172.136 181.312 172.136 180.277V172.476C172.136 171.441 171.725 170.449 170.994 169.717C170.262 168.986 169.27 168.575 168.235 168.575H161.352V166.969ZM155.615 178.671C155.007 178.671 154.423 178.429 153.993 177.999C153.562 177.569 153.321 176.985 153.321 176.376C153.321 175.768 153.562 175.184 153.993 174.754C154.423 174.324 155.007 174.082 155.615 174.082C156.224 174.082 156.807 174.324 157.238 174.754C157.668 175.184 157.91 175.768 157.91 176.376C157.91 176.985 157.668 177.569 157.238 177.999C156.807 178.429 156.224 178.671 155.615 178.671ZM167.088 176.376C167.088 176.985 166.846 177.569 166.416 177.999C165.986 178.429 165.402 178.671 164.793 178.671C164.185 178.671 163.601 178.429 163.171 177.999C162.741 177.569 162.499 176.985 162.499 176.376C162.499 175.768 162.741 175.184 163.171 174.754C163.601 174.324 164.185 174.082 164.793 174.082C165.402 174.082 165.986 174.324 166.416 174.754C166.846 175.184 167.088 175.768 167.088 176.376Z" fill="#3FEC52"/>
<rect x="251" y="155.909" width="38.1818" height="38.1818" rx="9.54545" transform="rotate(90 251 155.909)" fill="#212727"/>
<rect x="250.603" y="156.307" width="37.3864" height="37.3864" rx="9.14773" transform="rotate(90 250.603 156.307)" stroke="url(#paint5_linear_40000061_1023)" stroke-opacity="0.5" stroke-width="0.795455"/>
<path d="M232.261 166.969C232.261 166.664 232.14 166.372 231.925 166.157C231.71 165.942 231.418 165.821 231.114 165.821C230.81 165.821 230.518 165.942 230.303 166.157C230.088 166.372 229.967 166.664 229.967 166.969V168.575H223.083C222.048 168.575 221.056 168.986 220.325 169.717C219.593 170.449 219.182 171.441 219.182 172.476V180.277C219.182 181.312 219.593 182.304 220.325 183.035C221.056 183.767 222.048 184.178 223.083 184.178H239.145C240.18 184.178 241.172 183.767 241.903 183.035C242.635 182.304 243.046 181.312 243.046 180.277V172.476C243.046 171.441 242.635 170.449 241.903 169.717C241.172 168.986 240.18 168.575 239.145 168.575H232.261V166.969ZM226.525 178.671C225.916 178.671 225.333 178.429 224.902 177.999C224.472 177.569 224.23 176.985 224.23 176.376C224.23 175.768 224.472 175.184 224.902 174.754C225.333 174.324 225.916 174.082 226.525 174.082C227.133 174.082 227.717 174.324 228.147 174.754C228.578 175.184 228.819 175.768 228.819 176.376C228.819 176.985 228.578 177.569 228.147 177.999C227.717 178.429 227.133 178.671 226.525 178.671ZM237.998 176.376C237.998 176.985 237.756 177.569 237.326 177.999C236.895 178.429 236.312 178.671 235.703 178.671C235.095 178.671 234.511 178.429 234.081 177.999C233.65 177.569 233.409 176.985 233.409 176.376C233.409 175.768 233.65 175.184 234.081 174.754C234.511 174.324 235.095 174.082 235.703 174.082C236.312 174.082 236.895 174.324 237.326 174.754C237.756 175.184 237.998 175.768 237.998 176.376Z" fill="#3FEC52"/>
<rect x="321.909" y="155.909" width="38.1818" height="38.1818" rx="9.54545" transform="rotate(90 321.909 155.909)" fill="#212727"/>
<rect x="321.511" y="156.307" width="37.3864" height="37.3864" rx="9.14773" transform="rotate(90 321.511 156.307)" stroke="url(#paint6_linear_40000061_1023)" stroke-opacity="0.5" stroke-width="0.795455"/>
<path d="M303.17 166.969C303.17 166.664 303.049 166.372 302.834 166.157C302.619 165.942 302.327 165.821 302.023 165.821C301.719 165.821 301.427 165.942 301.212 166.157C300.996 166.372 300.876 166.664 300.876 166.969V168.575H293.992C292.957 168.575 291.965 168.986 291.234 169.717C290.502 170.449 290.091 171.441 290.091 172.476V180.277C290.091 181.312 290.502 182.304 291.234 183.035C291.965 183.767 292.957 184.178 293.992 184.178H310.054C311.088 184.178 312.081 183.767 312.812 183.035C313.544 182.304 313.955 181.312 313.955 180.277V172.476C313.955 171.441 313.544 170.449 312.812 169.717C312.081 168.986 311.088 168.575 310.054 168.575H303.17V166.969ZM297.434 178.671C296.825 178.671 296.242 178.429 295.811 177.999C295.381 177.569 295.139 176.985 295.139 176.376C295.139 175.768 295.381 175.184 295.811 174.754C296.242 174.324 296.825 174.082 297.434 174.082C298.042 174.082 298.626 174.324 299.056 174.754C299.487 175.184 299.728 175.768 299.728 176.376C299.728 176.985 299.487 177.569 299.056 177.999C298.626 178.429 298.042 178.671 297.434 178.671ZM308.907 176.376C308.907 176.985 308.665 177.569 308.235 177.999C307.804 178.429 307.221 178.671 306.612 178.671C306.003 178.671 305.42 178.429 304.99 177.999C304.559 177.569 304.317 176.985 304.317 176.376C304.317 175.768 304.559 175.184 304.99 174.754C305.42 174.324 306.003 174.082 306.612 174.082C307.221 174.082 307.804 174.324 308.235 174.754C308.665 175.184 308.907 175.768 308.907 176.376Z" fill="#3FEC52"/>
<rect x="144.636" y="226.818" width="38.1818" height="38.1818" rx="9.54545" transform="rotate(90 144.636 226.818)" fill="#212727"/>
<rect x="144.239" y="227.216" width="37.3864" height="37.3864" rx="9.14773" transform="rotate(90 144.239 227.216)" stroke="url(#paint7_linear_40000061_1023)" stroke-opacity="0.5" stroke-width="0.795455"/>
<path d="M125.897 237.878C125.897 237.573 125.776 237.282 125.561 237.067C125.346 236.851 125.054 236.73 124.75 236.73C124.446 236.73 124.154 236.851 123.939 237.067C123.724 237.282 123.603 237.573 123.603 237.878V239.484H116.719C115.684 239.484 114.692 239.895 113.961 240.626C113.229 241.358 112.818 242.35 112.818 243.385V251.186C112.818 252.221 113.229 253.213 113.961 253.945C114.692 254.676 115.684 255.087 116.719 255.087H132.781C133.816 255.087 134.808 254.676 135.539 253.945C136.271 253.213 136.682 252.221 136.682 251.186V243.385C136.682 242.35 136.271 241.358 135.539 240.626C134.808 239.895 133.816 239.484 132.781 239.484H125.897V237.878ZM120.161 249.58C119.552 249.58 118.969 249.338 118.538 248.908C118.108 248.478 117.866 247.894 117.866 247.286C117.866 246.677 118.108 246.093 118.538 245.663C118.969 245.233 119.552 244.991 120.161 244.991C120.769 244.991 121.353 245.233 121.783 245.663C122.214 246.093 122.455 246.677 122.455 247.286C122.455 247.894 122.214 248.478 121.783 248.908C121.353 249.338 120.769 249.58 120.161 249.58ZM131.634 247.286C131.634 247.894 131.392 248.478 130.962 248.908C130.531 249.338 129.948 249.58 129.339 249.58C128.731 249.58 128.147 249.338 127.717 248.908C127.286 248.478 127.045 247.894 127.045 247.286C127.045 246.677 127.286 246.093 127.717 245.663C128.147 245.233 128.731 244.991 129.339 244.991C129.948 244.991 130.531 245.233 130.962 245.663C131.392 246.093 131.634 246.677 131.634 247.286Z" fill="#3FEC52"/>
<rect x="215.546" y="226.818" width="38.1818" height="38.1818" rx="9.54545" transform="rotate(90 215.546 226.818)" fill="#212727"/>
<rect x="215.148" y="227.216" width="37.3864" height="37.3864" rx="9.14773" transform="rotate(90 215.148 227.216)" stroke="url(#paint8_linear_40000061_1023)" stroke-opacity="0.5" stroke-width="0.795455"/>
<path d="M196.807 237.877C196.807 237.573 196.686 237.281 196.471 237.066C196.256 236.851 195.964 236.73 195.66 236.73C195.355 236.73 195.064 236.851 194.848 237.066C194.633 237.281 194.512 237.573 194.512 237.877V239.483H187.629C186.594 239.483 185.602 239.894 184.87 240.626C184.139 241.358 183.728 242.35 183.728 243.384V251.186C183.728 252.22 184.139 253.213 184.87 253.944C185.602 254.676 186.594 255.087 187.629 255.087H203.691C204.725 255.087 205.717 254.676 206.449 253.944C207.18 253.213 207.591 252.22 207.591 251.186V243.384C207.591 242.35 207.18 241.358 206.449 240.626C205.717 239.894 204.725 239.483 203.691 239.483H196.807V237.877ZM191.07 249.58C190.462 249.58 189.878 249.338 189.448 248.908C189.018 248.477 188.776 247.894 188.776 247.285C188.776 246.676 189.018 246.093 189.448 245.663C189.878 245.232 190.462 244.99 191.07 244.99C191.679 244.99 192.263 245.232 192.693 245.663C193.123 246.093 193.365 246.676 193.365 247.285C193.365 247.894 193.123 248.477 192.693 248.908C192.263 249.338 191.679 249.58 191.07 249.58ZM202.543 247.285C202.543 247.894 202.302 248.477 201.871 248.908C201.441 249.338 200.857 249.58 200.249 249.58C199.64 249.58 199.057 249.338 198.626 248.908C198.196 248.477 197.954 247.894 197.954 247.285C197.954 246.676 198.196 246.093 198.626 245.663C199.057 245.232 199.64 244.99 200.249 244.99C200.857 244.99 201.441 245.232 201.871 245.663C202.302 246.093 202.543 246.676 202.543 247.285Z" fill="#3FEC52"/>
<rect x="286.455" y="226.818" width="38.1818" height="38.1818" rx="9.54545" transform="rotate(90 286.455 226.818)" fill="#212727"/>
<rect x="286.057" y="227.216" width="37.3864" height="37.3864" rx="9.14773" transform="rotate(90 286.057 227.216)" stroke="url(#paint9_linear_40000061_1023)" stroke-opacity="0.5" stroke-width="0.795455"/>
<path d="M267.716 237.877C267.716 237.573 267.595 237.281 267.38 237.066C267.164 236.851 266.873 236.73 266.568 236.73C266.264 236.73 265.972 236.851 265.757 237.066C265.542 237.281 265.421 237.573 265.421 237.877V239.483H258.537C257.503 239.483 256.511 239.894 255.779 240.626C255.047 241.358 254.636 242.35 254.636 243.384V251.186C254.636 252.22 255.047 253.213 255.779 253.944C256.511 254.676 257.503 255.087 258.537 255.087H274.599C275.634 255.087 276.626 254.676 277.358 253.944C278.089 253.213 278.5 252.22 278.5 251.186V243.384C278.5 242.35 278.089 241.358 277.358 240.626C276.626 239.894 275.634 239.483 274.599 239.483H267.716V237.877ZM261.979 249.58C261.371 249.58 260.787 249.338 260.357 248.908C259.926 248.477 259.685 247.894 259.685 247.285C259.685 246.676 259.926 246.093 260.357 245.663C260.787 245.232 261.371 244.99 261.979 244.99C262.588 244.99 263.171 245.232 263.602 245.663C264.032 246.093 264.274 246.676 264.274 247.285C264.274 247.894 264.032 248.477 263.602 248.908C263.171 249.338 262.588 249.58 261.979 249.58ZM273.452 247.285C273.452 247.894 273.21 248.477 272.78 248.908C272.35 249.338 271.766 249.58 271.157 249.58C270.549 249.58 269.965 249.338 269.535 248.908C269.105 248.477 268.863 247.894 268.863 247.285C268.863 246.676 269.105 246.093 269.535 245.663C269.965 245.232 270.549 244.99 271.157 244.99C271.766 244.99 272.35 245.232 272.78 245.663C273.21 246.093 273.452 246.676 273.452 247.285Z" fill="#3FEC52"/>
<defs>
<linearGradient id="paint0_linear_40000061_1023" x1="182.719" y1="85.5761" x2="145.213" y2="123.083" gradientUnits="userSpaceOnUse">
<stop offset="0.1" stop-color="white"/>
<stop offset="0.454409" stop-color="white" stop-opacity="0"/>
<stop offset="0.55" stop-color="white" stop-opacity="0"/>
<stop offset="0.9" stop-color="white"/>
</linearGradient>
<linearGradient id="paint1_linear_40000061_1023" x1="253.629" y1="85.5761" x2="216.122" y2="123.083" gradientUnits="userSpaceOnUse">
<stop offset="0.1" stop-color="white"/>
<stop offset="0.454409" stop-color="white" stop-opacity="0"/>
<stop offset="0.55" stop-color="white" stop-opacity="0"/>
<stop offset="0.9" stop-color="white"/>
</linearGradient>
<linearGradient id="paint2_linear_40000061_1023" x1="324.538" y1="85.5761" x2="287.031" y2="123.083" gradientUnits="userSpaceOnUse">
<stop offset="0.1" stop-color="white"/>
<stop offset="0.454409" stop-color="white" stop-opacity="0"/>
<stop offset="0.55" stop-color="white" stop-opacity="0"/>
<stop offset="0.9" stop-color="white"/>
</linearGradient>
<linearGradient id="paint3_linear_40000061_1023" x1="147.265" y1="156.485" x2="109.758" y2="193.992" gradientUnits="userSpaceOnUse">
<stop offset="0.1" stop-color="white"/>
<stop offset="0.454409" stop-color="white" stop-opacity="0"/>
<stop offset="0.55" stop-color="white" stop-opacity="0"/>
<stop offset="0.9" stop-color="white"/>
</linearGradient>
<linearGradient id="paint4_linear_40000061_1023" x1="218.174" y1="156.485" x2="180.667" y2="193.992" gradientUnits="userSpaceOnUse">
<stop offset="0.1" stop-color="white"/>
<stop offset="0.454409" stop-color="white" stop-opacity="0"/>
<stop offset="0.55" stop-color="white" stop-opacity="0"/>
<stop offset="0.9" stop-color="white"/>
</linearGradient>
<linearGradient id="paint5_linear_40000061_1023" x1="289.083" y1="156.485" x2="251.576" y2="193.992" gradientUnits="userSpaceOnUse">
<stop offset="0.1" stop-color="white"/>
<stop offset="0.454409" stop-color="white" stop-opacity="0"/>
<stop offset="0.55" stop-color="white" stop-opacity="0"/>
<stop offset="0.9" stop-color="white"/>
</linearGradient>
<linearGradient id="paint6_linear_40000061_1023" x1="359.992" y1="156.485" x2="322.485" y2="193.992" gradientUnits="userSpaceOnUse">
<stop offset="0.1" stop-color="white"/>
<stop offset="0.454409" stop-color="white" stop-opacity="0"/>
<stop offset="0.55" stop-color="white" stop-opacity="0"/>
<stop offset="0.9" stop-color="white"/>
</linearGradient>
<linearGradient id="paint7_linear_40000061_1023" x1="182.719" y1="227.394" x2="145.213" y2="264.901" gradientUnits="userSpaceOnUse">
<stop offset="0.1" stop-color="white"/>
<stop offset="0.454409" stop-color="white" stop-opacity="0"/>
<stop offset="0.55" stop-color="white" stop-opacity="0"/>
<stop offset="0.9" stop-color="white"/>
</linearGradient>
<linearGradient id="paint8_linear_40000061_1023" x1="253.629" y1="227.394" x2="216.122" y2="264.901" gradientUnits="userSpaceOnUse">
<stop offset="0.1" stop-color="white"/>
<stop offset="0.454409" stop-color="white" stop-opacity="0"/>
<stop offset="0.55" stop-color="white" stop-opacity="0"/>
<stop offset="0.9" stop-color="white"/>
</linearGradient>
<linearGradient id="paint9_linear_40000061_1023" x1="324.538" y1="227.394" x2="287.031" y2="264.901" gradientUnits="userSpaceOnUse">
<stop offset="0.1" stop-color="white"/>
<stop offset="0.454409" stop-color="white" stop-opacity="0"/>
<stop offset="0.55" stop-color="white" stop-opacity="0"/>
<stop offset="0.9" stop-color="white"/>
</linearGradient>
</defs>
</svg>
